<?xml version="1.0" encoding="utf-8"?>
<!-- Generator: Adobe Illustrator 17.1.0, SVG Export Plug-In . SVG Version: 6.00 Build 0)  -->
<!DOCTYPE svg PUBLIC "-//W3C//DTD SVG 1.1//EN" "http://www.w3.org/Graphics/SVG/1.1/DTD/svg11.dtd">
<svg version="1.1" id="Layer_1" xmlns="http://www.w3.org/2000/svg" xmlns:xlink="http://www.w3.org/1999/xlink" x="0px" y="0px"
	 viewBox="0 0 256 256" enable-background="new 0 0 256 256" xml:space="preserve">
<g>
	
		<linearGradient id="SVGID_1_" gradientUnits="userSpaceOnUse" x1="-91.6845" y1="133.1032" x2="64.5106" y2="133.1032" gradientTransform="matrix(0.8666 0.4989 -0.4989 0.8666 206.9516 27.0187)">
		<stop  offset="0" style="stop-color:#FFFFFF"/>
		<stop  offset="1" style="stop-color:#000000"/>
	</linearGradient>
	<path opacity="0.1" fill="url(#SVGID_1_)" d="M196.5,174.6c-21.5,37.4-69.3,50.2-106.6,28.7C52.4,181.7,39.6,134,61.1,96.6
		c21.5-37.4,69.3-50.2,106.6-28.7C205.1,89.4,218,137.2,196.5,174.6z"/>
	<path fill="#FAFAFA" d="M194.9,168.8c-21.5,37.4-69.3,50.2-106.6,28.7C50.9,176,38,128.3,59.5,90.9c21.5-37.4,69.3-50.2,106.6-28.7
		C203.6,83.7,216.4,131.4,194.9,168.8z"/>
	<path fill="#E1E1E1" d="M178.9,159.6c-16.4,28.5-52.9,38.4-81.4,21.9c-28.5-16.4-38.4-52.9-21.9-81.4C92,71.6,128.4,61.7,157,78.2
		C185.5,94.6,195.3,131.1,178.9,159.6z"/>
	<path fill="#097138" d="M104.5,65.6c-12.9-7.4-28-7.7-40.7-2.2c1.7,13.8,9.6,26.6,22.5,34c12.9,7.4,28,7.7,40.7,2.2
		C125.3,85.9,117.4,73.1,104.5,65.6z"/>
	<g opacity="0.3">
		<path fill="#097138" d="M106,74.7c-0.8-0.5-1.9-0.2-2.4,0.6c-0.5,0.8-0.2,1.9,0.6,2.4c0.8,0.5,1.9,0.2,2.4-0.6
			C107.2,76.2,106.9,75.2,106,74.7z"/>
		<path fill="#097138" d="M100.3,71.4c-0.8-0.5-1.9-0.2-2.4,0.6c-0.5,0.8-0.2,1.9,0.6,2.4c0.8,0.5,1.9,0.2,2.4-0.6
			C101.5,72.9,101.2,71.9,100.3,71.4z"/>
		<path fill="#097138" d="M94.6,68.1c-0.8-0.5-1.9-0.2-2.4,0.6c-0.5,0.8-0.2,1.9,0.7,2.4c0.8,0.5,1.9,0.2,2.4-0.6
			C95.7,69.6,95.4,68.6,94.6,68.1z"/>
		<path fill="#097138" d="M88.9,64.8c-0.8-0.5-1.9-0.2-2.4,0.6c-0.5,0.8-0.2,1.9,0.6,2.4c0.8,0.5,1.9,0.2,2.4-0.6
			C90,66.3,89.7,65.3,88.9,64.8z"/>
		<path fill="#097138" d="M83.2,61.5c-0.8-0.5-1.9-0.2-2.4,0.6c-0.5,0.8-0.2,1.9,0.6,2.4c0.8,0.5,1.9,0.2,2.4-0.6
			C84.3,63,84,62,83.2,61.5z"/>
		<path fill="#097138" d="M75.7,61.2c0.8,0.5,1.9,0.2,2.4-0.6c0.1-0.2,0.2-0.5,0.2-0.8c-1.1,0.1-2.3,0.2-3.4,0.4
			C75,60.6,75.3,61,75.7,61.2z"/>
		<path fill="#097138" d="M103,69.8c0.8,0.5,1.9,0.2,2.4-0.7c0.5-0.8,0.2-1.9-0.6-2.4c-0.8-0.5-1.9-0.2-2.4,0.6
			C101.9,68.3,102.2,69.3,103,69.8z"/>
		<path fill="#097138" d="M97.3,66.5c0.8,0.5,1.9,0.2,2.4-0.6c0.5-0.8,0.2-1.9-0.6-2.4c-0.8-0.5-1.9-0.2-2.4,0.6
			C96.2,65,96.5,66,97.3,66.5z"/>
		<path fill="#097138" d="M91.6,63.2c0.8,0.5,1.9,0.2,2.4-0.6c0.2-0.4,0.3-0.8,0.2-1.2c-1-0.3-2-0.5-3.1-0.7
			c-0.1,0.1-0.1,0.1-0.2,0.2C90.5,61.7,90.7,62.7,91.6,63.2z"/>
		<path fill="#097138" d="M87.4,60c-0.6-0.1-1.1-0.1-1.7-0.2c0,0,0.1,0.1,0.1,0.1C86.4,60.2,86.9,60.2,87.4,60z"/>
		<path fill="#097138" d="M121,85.3c-0.5,0.8-0.2,1.9,0.7,2.4c0.7,0.4,1.5,0.3,2.1-0.3c-0.4-1-0.9-2-1.4-3
			C121.8,84.5,121.3,84.8,121,85.3z"/>
		<path fill="#097138" d="M117.7,81.4c-0.8-0.5-1.9-0.2-2.4,0.6c-0.5,0.8-0.2,1.9,0.6,2.4c0.8,0.5,1.9,0.2,2.4-0.6
			C118.8,82.9,118.5,81.8,117.7,81.4z"/>
		<path fill="#097138" d="M111.9,78.1c-0.8-0.5-1.9-0.2-2.4,0.6c-0.5,0.8-0.2,1.9,0.6,2.4c0.8,0.5,1.9,0.2,2.4-0.6
			C113.1,79.6,112.8,78.6,111.9,78.1z"/>
		<path fill="#097138" d="M114,74.1c-0.5,0.8-0.2,1.9,0.6,2.4c0.8,0.4,1.7,0.2,2.2-0.4c-0.7-0.9-1.5-1.7-2.3-2.6
			C114.3,73.7,114.1,73.9,114,74.1z"/>
		<path fill="#097138" d="M108.9,73.2c0.8,0.5,1.9,0.2,2.4-0.7c0.5-0.8,0.2-1.9-0.6-2.4c-0.8-0.5-1.9-0.2-2.4,0.6
			C107.8,71.7,108.1,72.7,108.9,73.2z"/>
		<path fill="#097138" d="M100.6,87.7c0.5-0.8,0.2-1.9-0.6-2.4c-0.8-0.5-1.9-0.2-2.4,0.6c-0.5,0.8-0.2,1.9,0.6,2.4
			C99,88.8,100.1,88.5,100.6,87.7z"/>
		<path fill="#097138" d="M94.2,82c-0.8-0.5-1.9-0.2-2.4,0.7c-0.5,0.8-0.2,1.9,0.6,2.4c0.8,0.5,1.9,0.2,2.4-0.6
			C95.4,83.5,95.1,82.4,94.2,82z"/>
		<path fill="#097138" d="M88.5,78.7c-0.8-0.5-1.9-0.2-2.4,0.6c-0.5,0.8-0.2,1.9,0.6,2.4c0.8,0.5,1.9,0.2,2.4-0.6
			C89.6,80.2,89.3,79.2,88.5,78.7z"/>
		<path fill="#097138" d="M82.8,75.4c-0.8-0.5-1.9-0.2-2.4,0.7c-0.5,0.8-0.2,1.9,0.6,2.4c0.8,0.5,1.9,0.2,2.4-0.6
			C83.9,76.9,83.6,75.9,82.8,75.4z"/>
		<path fill="#097138" d="M77.7,74.5c0.5-0.8,0.2-1.9-0.6-2.4c-0.8-0.5-1.9-0.2-2.4,0.6c-0.5,0.8-0.2,1.9,0.6,2.4
			C76.2,75.6,77.2,75.3,77.7,74.5z"/>
		<path fill="#097138" d="M69,69.4c-0.5,0.8-0.2,1.9,0.6,2.4c0.8,0.5,1.9,0.2,2.4-0.6c0.5-0.8,0.2-1.9-0.6-2.4
			C70.5,68.3,69.4,68.6,69,69.4z"/>
		<path fill="#097138" d="M66.3,67.9c0.5-0.8,0.2-1.9-0.6-2.4c-0.5-0.3-1.1-0.3-1.6-0.1c0.2,1.1,0.4,2.2,0.7,3.3
			C65.4,68.8,65.9,68.4,66.3,67.9z"/>
		<path fill="#097138" d="M96.9,80.4c0.8,0.5,1.9,0.2,2.4-0.6c0.5-0.8,0.2-1.9-0.6-2.4c-0.8-0.5-1.9-0.2-2.4,0.6
			C95.8,78.8,96.1,79.9,96.9,80.4z"/>
		<path fill="#097138" d="M91.2,77.1c0.8,0.5,1.9,0.2,2.4-0.6c0.5-0.8,0.2-1.9-0.6-2.4c-0.8-0.5-1.9-0.2-2.4,0.6
			C90.1,75.5,90.4,76.6,91.2,77.1z"/>
		<path fill="#097138" d="M85.5,73.8c0.8,0.5,1.9,0.2,2.4-0.6c0.5-0.8,0.2-1.9-0.6-2.4c-0.8-0.5-1.9-0.2-2.4,0.6
			C84.4,72.2,84.6,73.3,85.5,73.8z"/>
		<path fill="#097138" d="M79.8,70.5c0.8,0.5,1.9,0.2,2.4-0.6c0.5-0.8,0.2-1.9-0.6-2.4c-0.8-0.5-1.9-0.2-2.4,0.7
			C78.6,69,78.9,70,79.8,70.5z"/>
		<path fill="#097138" d="M74,67.2c0.8,0.5,1.9,0.2,2.4-0.6c0.5-0.8,0.2-1.9-0.6-2.4c-0.8-0.5-1.9-0.2-2.4,0.6
			C72.9,65.7,73.2,66.7,74,67.2z"/>
		<path fill="#097138" d="M68.3,63.9c0.8,0.5,1.9,0.2,2.4-0.6c0.4-0.7,0.3-1.6-0.3-2.1c-1,0.3-2,0.6-2.9,0.9
			C67.3,62.8,67.6,63.5,68.3,63.9z"/>
		<path fill="#097138" d="M123,98.5c-0.8-0.5-1.9-0.2-2.4,0.7c-0.5,0.8-0.2,1.9,0.6,2.4c0,0,0.1,0,0.1,0c0.8-0.2,1.6-0.5,2.3-0.7
			C124.1,100,123.8,99,123,98.5z"/>
		<path fill="#097138" d="M115.6,98.3c0.8,0.5,1.9,0.2,2.4-0.6c0.5-0.8,0.2-1.9-0.6-2.4c-0.8-0.5-1.9-0.2-2.4,0.6
			C114.4,96.7,114.7,97.8,115.6,98.3z"/>
		<path fill="#097138" d="M112.2,94.3c0.5-0.8,0.2-1.9-0.6-2.4c-0.8-0.5-1.9-0.2-2.4,0.7c-0.5,0.8-0.2,1.9,0.6,2.4
			C110.7,95.5,111.7,95.2,112.2,94.3z"/>
		<path fill="#097138" d="M106.5,91c0.5-0.8,0.2-1.9-0.6-2.4c-0.8-0.5-1.9-0.2-2.4,0.6c-0.5,0.8-0.2,1.9,0.6,2.4
			C104.9,92.2,106,91.9,106.5,91z"/>
		<path fill="#097138" d="M125.1,94.6c-0.5,0.8-0.2,1.9,0.6,2.4c0.3,0.2,0.6,0.2,0.9,0.2c-0.2-1.1-0.4-2.2-0.7-3.3
			C125.6,94,125.3,94.3,125.1,94.6z"/>
		<path fill="#097138" d="M119.4,91.3c-0.5,0.8-0.2,1.9,0.6,2.4c0.8,0.5,1.9,0.2,2.4-0.6c0.5-0.8,0.2-1.9-0.6-2.4
			C120.9,90.2,119.8,90.5,119.4,91.3z"/>
		<path fill="#097138" d="M116.7,89.7c0.5-0.8,0.2-1.9-0.6-2.4c-0.8-0.5-1.9-0.2-2.4,0.6c-0.5,0.8-0.2,1.9,0.6,2.4
			C115.1,90.9,116.2,90.6,116.7,89.7z"/>
		<path fill="#097138" d="M108.6,87.1c0.8,0.5,1.9,0.2,2.4-0.6c0.5-0.8,0.2-1.9-0.6-2.4c-0.8-0.5-1.9-0.2-2.4,0.6
			C107.4,85.5,107.7,86.6,108.6,87.1z"/>
		<path fill="#097138" d="M102.8,83.8c0.8,0.5,1.9,0.2,2.4-0.6c0.5-0.8,0.2-1.9-0.6-2.4c-0.8-0.5-1.9-0.2-2.4,0.6
			C101.7,82.2,102,83.3,102.8,83.8z"/>
		<path fill="#097138" d="M92.1,98.9c0.8,0.5,1.9,0.2,2.4-0.6c0.5-0.8,0.2-1.9-0.6-2.4c-0.8-0.5-1.9-0.2-2.4,0.6
			C91,97.3,91.3,98.4,92.1,98.9z"/>
		<path fill="#097138" d="M86.4,95.6c0.8,0.5,1.9,0.2,2.4-0.6c0.5-0.8,0.2-1.9-0.6-2.4c-0.8-0.5-1.9-0.2-2.4,0.6
			C85.3,94,85.6,95.1,86.4,95.6z"/>
		<path fill="#097138" d="M80.7,92.3c0.8,0.5,1.9,0.2,2.4-0.6c0.5-0.8,0.2-1.9-0.6-2.4c-0.8-0.5-1.9-0.2-2.4,0.6
			C79.5,90.7,79.8,91.8,80.7,92.3z"/>
		<path fill="#097138" d="M76.7,86c-0.8-0.5-1.9-0.2-2.4,0.6c-0.1,0.2-0.2,0.4-0.2,0.6c0.6,0.7,1.2,1.4,1.8,2c0.6,0,1.1-0.3,1.4-0.9
			C77.8,87.5,77.5,86.5,76.7,86z"/>
		<path fill="#097138" d="M71,82.7c-0.1-0.1-0.2-0.1-0.3-0.1c0.4,0.6,0.8,1.2,1.2,1.7C71.9,83.6,71.6,83,71,82.7z"/>
		<path fill="#097138" d="M90.8,91c0.8,0.5,1.9,0.2,2.4-0.7c0.5-0.8,0.2-1.9-0.6-2.4c-0.8-0.5-1.9-0.2-2.4,0.6
			C89.7,89.4,90,90.5,90.8,91z"/>
		<path fill="#097138" d="M85.1,87.7c0.8,0.5,1.9,0.2,2.4-0.6c0.5-0.8,0.2-1.9-0.6-2.4c-0.8-0.5-1.9-0.2-2.4,0.6
			C84,86.1,84.3,87.2,85.1,87.7z"/>
		<path fill="#097138" d="M79.4,84.4c0.8,0.5,1.9,0.2,2.4-0.6c0.5-0.8,0.2-1.9-0.6-2.4c-0.8-0.5-1.9-0.2-2.4,0.6
			C78.3,82.8,78.5,83.9,79.4,84.4z"/>
		<path fill="#097138" d="M73.7,81.1c0.8,0.5,1.9,0.2,2.4-0.6c0.5-0.8,0.2-1.9-0.6-2.4c-0.8-0.5-1.9-0.2-2.4,0.6
			C72.5,79.6,72.8,80.6,73.7,81.1z"/>
		<path fill="#097138" d="M70.3,77.2c0.5-0.8,0.2-1.9-0.6-2.4c-0.8-0.5-1.9-0.2-2.4,0.6c-0.1,0.1-0.1,0.3-0.2,0.5
			c0.3,0.7,0.6,1.3,0.9,2C68.9,78.3,69.9,78,70.3,77.2z"/>
		<path fill="#097138" d="M105.5,102.5c-0.8-0.4-1.8-0.2-2.3,0.5c1,0.1,2,0.2,3,0.3C106,103,105.8,102.7,105.5,102.5z"/>
		<path fill="#097138" d="M100.4,101.6c0.5-0.8,0.2-1.9-0.6-2.4c-0.8-0.5-1.9-0.2-2.4,0.6c-0.4,0.7-0.3,1.6,0.3,2.1
			c0.6,0.2,1.2,0.3,1.8,0.4C99.8,102.3,100.2,102,100.4,101.6z"/>
		<path fill="#097138" d="M115.6,101.2c-0.8-0.5-1.9-0.2-2.4,0.6c-0.2,0.4-0.3,0.9-0.2,1.3c1.1-0.1,2.3-0.3,3.4-0.5
			C116.5,102.1,116.2,101.6,115.6,101.2z"/>
		<path fill="#097138" d="M108.2,101c0.8,0.5,1.9,0.2,2.4-0.6c0.5-0.8,0.2-1.9-0.6-2.4c-0.8-0.5-1.9-0.2-2.4,0.6
			C107,99.4,107.3,100.5,108.2,101z"/>
		<path fill="#097138" d="M102.4,97.7c0.8,0.5,1.9,0.2,2.4-0.6c0.5-0.8,0.2-1.9-0.6-2.4c-0.8-0.5-1.9-0.2-2.4,0.6
			C101.3,96.1,101.6,97.2,102.4,97.7z"/>
		<path fill="#097138" d="M96.7,94.4c0.8,0.5,1.9,0.2,2.4-0.7c0.5-0.8,0.2-1.9-0.6-2.4c-0.8-0.5-1.9-0.2-2.4,0.6
			C95.6,92.8,95.9,93.9,96.7,94.4z"/>
	</g>
	<g>
		<g>
			<path fill="#00C853" d="M153,85.4c-4.7-7.6-14.3-3.8-18.4-12.9c-4.4-9.6,6.1-14.4,1.7-23.9c-4.4-9.6-14.8-4.8-19.2-14.4
				c-1.7-3.8-6.9-5.1-11.6-2.9c-4.7,2.1-7.1,6.9-5.4,10.7c4.4,9.6-6.1,14.4-1.7,23.9c4.4,9.6,14.8,4.8,19.2,14.4
				c3.8,8.3-3.6,13-2.7,20.3c0,2.1,0.3,4.1,1.2,6c3.9,8.5,15.8,11.4,26.6,6.5c10.8-4.9,16.4-15.8,12.5-24.4
				C154.7,87.5,153.9,86.4,153,85.4z"/>
			
				<line fill="none" stroke="#33AC71" stroke-width="1.7801" stroke-linecap="round" stroke-miterlimit="10" x1="111.1" y1="43.9" x2="135.6" y2="97.6"/>
			
				<line fill="none" stroke="#33AC71" stroke-width="1.7801" stroke-linecap="round" stroke-miterlimit="10" x1="119" y1="61.2" x2="122.6" y2="51.4"/>
			
				<line fill="none" stroke="#33AC71" stroke-width="1.7801" stroke-linecap="round" stroke-miterlimit="10" x1="119" y1="61.2" x2="109.2" y2="57.5"/>
			
				<line fill="none" stroke="#33AC71" stroke-width="1.7801" stroke-linecap="round" stroke-miterlimit="10" x1="123.9" y1="72" x2="127.6" y2="62.2"/>
			
				<line fill="none" stroke="#33AC71" stroke-width="1.7801" stroke-linecap="round" stroke-miterlimit="10" x1="123.9" y1="72" x2="114.1" y2="68.4"/>
			
				<line fill="none" stroke="#33AC71" stroke-width="1.7801" stroke-linecap="round" stroke-miterlimit="10" x1="128.3" y1="81.6" x2="130.6" y2="75.4"/>
			
				<line fill="none" stroke="#33AC71" stroke-width="1.7801" stroke-linecap="round" stroke-miterlimit="10" x1="128.3" y1="81.6" x2="122.2" y2="79.3"/>
		</g>
		<line fill="none" stroke="#00C853" stroke-width="3.5602" stroke-miterlimit="10" x1="141.3" y1="107.9" x2="146" y2="120.5"/>
	</g>
	<path fill="none" stroke="#8D6E63" stroke-width="1.7801" stroke-miterlimit="10" d="M164.7,85.4c2.5-4.3,9-5.2,14.5-2.1"/>
	<g>
		<circle fill="#DB4437" cx="157.1" cy="95.2" r="16"/>
		<g>
			<path fill="#EDA29B" d="M146.2,89c4.1-7.1,12.9-9.8,20.2-6.6c-0.5-0.3-0.9-0.7-1.4-1c-7.6-4.4-17.4-1.8-21.8,5.9
				c-4.4,7.6-1.8,17.4,5.9,21.8c0.5,0.3,1.1,0.5,1.6,0.7C144.2,105,142.1,96.1,146.2,89z"/>
		</g>
	</g>
	<path fill="#FFD600" d="M134.6,144.7l-39-22.5c0,0-8.6-3.5-12.9,4.5c-4.4,8,8,12.7,2.2,22.6c-5.8,9.8,14.2,28.9,26.5,25.6
		C123.7,171.6,134.6,144.7,134.6,144.7z"/>
	<path fill="#8D6E63" d="M153,172.9c-3.7,6.5-12,8.7-18.4,5l-28.8-16.6c-6.5-3.7-8.7-12-5-18.4l9.5-16.5c3.7-6.5,12-8.7,18.4-5
		l28.8,16.6c6.5,3.7,8.7,12,5,18.4L153,172.9z"/>
	
		<line fill="none" stroke="#3E2723" stroke-width="1.7801" stroke-linecap="round" stroke-miterlimit="10" x1="121.5" y1="132.2" x2="123.2" y2="154.3"/>
	
		<line fill="none" stroke="#3E2723" stroke-width="1.7801" stroke-linecap="round" stroke-miterlimit="10" x1="132.1" y1="138.3" x2="133.8" y2="160.4"/>
	
		<line fill="none" stroke="#3E2723" stroke-width="1.7801" stroke-linecap="round" stroke-miterlimit="10" x1="142.7" y1="144.4" x2="144.4" y2="166.5"/>
	<circle fill="#00C853" cx="133.9" cy="138.7" r="3.6"/>
	<circle fill="#00C853" cx="124.1" cy="144.2" r="3.6"/>
	<circle fill="#00C853" cx="137.9" cy="153.2" r="3.6"/>
	<circle fill="#EDA29B" cx="165.7" cy="92.2" r="2.6"/>
</g>
</svg>
