<?xml version="1.0" encoding="utf-8"?>
<!-- Generator: Adobe Illustrator 17.1.0, SVG Export Plug-In . SVG Version: 6.00 Build 0)  -->
<!DOCTYPE svg PUBLIC "-//W3C//DTD SVG 1.1//EN" "http://www.w3.org/Graphics/SVG/1.1/DTD/svg11.dtd">
<svg version="1.1" id="Layer_1" xmlns="http://www.w3.org/2000/svg" xmlns:xlink="http://www.w3.org/1999/xlink" x="0px" y="0px"
	 viewBox="0 0 256 256" enable-background="new 0 0 256 256" xml:space="preserve">
<g>
	<polygon fill="#33B679" points="94.7,47.5 122.3,55 148.3,43.3 166.2,65.6 194.3,71.4 195.6,100 214.9,121.2 199.2,145.1 
		202.3,173.5 175.5,183.7 161.3,208.5 133.7,201 107.7,212.7 89.8,190.4 61.7,184.6 60.4,156 41.1,134.8 56.8,110.9 53.7,82.5 
		80.5,72.3 	"/>
	<polygon opacity="0.15" fill="#424242" points="103.4,177.7 128.9,203.2 133.7,201 161.3,208.5 175.5,183.7 202.3,173.5 
		199.2,145.1 207.6,132.2 157.9,82.5 126.4,156.3 	"/>
	<g>
		<path fill="#FFE068" d="M140.1,129.6v-6.5c7.8,0,13.9-2.2,18.2-6.6c4.7-4.9,6.1-11.3,6.6-15.1h-11.9v-6.5h18.5l0.1,3.1
			c0,0.6,0.4,13.7-8.6,22.9C157.4,126.7,149.8,129.6,140.1,129.6z"/>
		<path fill="#FFE068" d="M114,129.6v-6.5c-7.8,0-13.9-2.2-18.2-6.6c-4.7-4.9-6.1-11.3-6.6-15.1h11.9v-6.5H82.7l-0.1,3.1
			c0,0.6-0.4,13.7,8.6,22.9C96.6,126.7,104.3,129.6,114,129.6z"/>
		<rect x="119.3" y="129.6" fill="#FFE068" width="14.3" height="26.8"/>
		<path fill="#F2B31B" d="M126.9,92.5H96.6c0,0-1.9,50.4,30.3,50.4V92.5z"/>
		<path fill="#FBCB42" d="M126.9,92.5h30.3c0,0,1.9,50.4-30.3,50.4V92.5z"/>
		<rect x="96.6" y="83.2" fill="#FFE068" width="60.7" height="9.4"/>
		<path fill="#F2B31B" d="M150.5,177.7c0-13-10.6-23.6-23.6-23.6c-13,0-23.6,10.6-23.6,23.6H150.5z"/>
	</g>
	<g>
		<polygon fill="none" points="103.4,177.7 157.9,82.5 207.6,132.2 214.9,121.2 195.6,100 194.3,71.4 166.2,65.6 148.3,43.3 
			122.3,55 94.7,47.5 80.5,72.3 53.7,82.5 56.8,110.9 41.1,134.8 60.4,156 61.7,184.6 89.8,190.4 107.7,212.7 128.9,203.2 		"/>
	</g>
</g>
</svg>
