<?xml version="1.0" encoding="utf-8"?>
<!-- Generator: Adobe Illustrator 17.1.0, SVG Export Plug-In . SVG Version: 6.00 Build 0)  -->
<!DOCTYPE svg PUBLIC "-//W3C//DTD SVG 1.1//EN" "http://www.w3.org/Graphics/SVG/1.1/DTD/svg11.dtd">
<svg version="1.1" id="Layer_1" xmlns="http://www.w3.org/2000/svg" xmlns:xlink="http://www.w3.org/1999/xlink" x="0px" y="0px"
	 viewBox="0 0 256 256" enable-background="new 0 0 256 256" xml:space="preserve">
<g>
	<g>
		<g>
			<g>
				<defs>
					<circle id="SVGID_1_" cx="81.2" cy="119.9" r="45.4"/>
				</defs>
				<clipPath id="SVGID_2_">
					<use xlink:href="#SVGID_1_"  overflow="visible"/>
				</clipPath>
				<circle clip-path="url(#SVGID_2_)" fill="#FAFAFA" cx="81.2" cy="119.9" r="45.4"/>
				<polygon clip-path="url(#SVGID_2_)" fill="#444444" points="90.6,107.9 96.5,126 81.1,137.2 65.6,126 71.5,107.9 				"/>
				<polygon clip-path="url(#SVGID_2_)" fill="#444444" points="90.3,168.7 96.2,157.5 80.7,150.6 65.3,157.5 71.2,168.7 				"/>
				<polygon clip-path="url(#SVGID_2_)" fill="#444444" points="36.2,141.8 48.4,144.9 51.6,128.3 41.3,114.9 31.8,123.3 				"/>
				<polygon clip-path="url(#SVGID_2_)" fill="#444444" points="125.1,141.4 112.8,144.5 109.7,127.9 120,114.5 129.5,122.8 				"/>
				<polygon clip-path="url(#SVGID_2_)" fill="#444444" points="117.3,88.6 115.3,101.1 98.8,97.4 90.6,82.6 102,77.1 				"/>
				<polygon clip-path="url(#SVGID_2_)" fill="#444444" points="43.7,88.1 45.7,100.6 62.2,96.9 70.4,82.1 58.9,76.7 				"/>
			</g>
		</g>
	</g>
	<path opacity="0.1" fill="#424242" d="M81.2,74.5c-3.4,0-6.8,0.4-10,1.1c20.2,4.6,35.4,22.6,35.4,44.2c0,21.6-15.1,39.7-35.4,44.2
		c3.2,0.7,6.6,1.1,10,1.1c25.1,0,45.4-20.3,45.4-45.4C126.6,94.8,106.2,74.5,81.2,74.5z"/>
	<g>
		<path fill="#E7711B" d="M181,137.1c3.8-14.4,12.9-26.2,24.7-33.7c-7.3-11-18.4-19.4-32-23l-12,52.2L181,137.1z"/>
		<path fill="#E7711B" d="M135,126.5c2.6-13.6-0.2-27.2-7-38.2c-10.6,7.3-18.7,18.2-22.2,31.5L135,126.5z"/>
		<path fill="#E7711B" d="M158,131.8l12-52.2c-13.8-2.7-27.5,0-38.8,6.7c7.3,11.9,10.3,26.4,7.5,41.1L158,131.8z"/>
		<path fill="#E7711B" d="M134.2,130.2l-29.2-6.7c-2.6,13.5-0.1,26.9,6.2,38.1C122.1,154.6,130.6,143.6,134.2,130.2z"/>
		<path fill="#E7711B" d="M160.9,136.3l-12,52.2c13.8,2.7,27.5,0,38.8-6.7c-7.3-11.9-10.3-26.4-7.5-41.1L160.9,136.3z"/>
		<path fill="#E7711B" d="M183.9,141.6c-2.6,13.6,0.2,27.2,7,38.2c10.6-7.3,18.7-18.2,22.2-31.5L183.9,141.6z"/>
		<path fill="#E7711B" d="M137.8,131.1c-3.8,14.4-12.9,26.2-24.7,33.7c7.3,11,18.4,19.4,32,23l12-52.2L137.8,131.1z"/>
		<path fill="#E7711B" d="M213.9,144.7c2.6-13.5,0.1-26.9-6.2-38.1c-11,7-19.4,17.9-23,31.3L213.9,144.7z"/>
		<path fill="#572A1A" d="M190.8,179.9c-6.8-11.1-9.6-24.6-7-38.2l29.2,6.7c0.2-0.6,0.3-1.2,0.5-1.8c0.1-0.6,0.3-1.2,0.4-1.8
			l-29.2-6.7c3.6-13.4,12-24.3,23-31.3c-0.6-1.1-1.3-2.2-2-3.2c-11.8,7.5-20.9,19.3-24.7,33.7l-19.3-4.5l12-52.2
			c-0.6-0.2-1.2-0.3-1.8-0.5c-0.6-0.1-1.2-0.3-1.8-0.4l-12,52.2l-19.3-4.5c2.9-14.7-0.2-29.2-7.5-41.1c-1.1,0.6-2.1,1.3-3.2,2
			c6.8,11.1,9.6,24.6,7,38.2l-29.2-6.7c-0.2,0.6-0.3,1.2-0.5,1.8c-0.1,0.6-0.3,1.2-0.4,1.8l29.2,6.7c-3.6,13.4-12,24.3-23,31.3
			c0.6,1.1,1.3,2.1,2,3.2c11.8-7.5,20.9-19.3,24.7-33.7l19.3,4.5l-12,52.2c0.6,0.2,1.2,0.3,1.8,0.5c0.6,0.1,1.2,0.3,1.8,0.4l12-52.2
			l19.3,4.5c-2.9,14.7,0.2,29.2,7.5,41.1C188.7,181.3,189.8,180.6,190.8,179.9z"/>
	</g>
	<g>
		<defs>
			<circle id="SVGID_3_" cx="103.9" cy="167.9" r="18"/>
		</defs>
		<use xlink:href="#SVGID_3_"  overflow="visible" fill="#FFFFFF"/>
		<clipPath id="SVGID_4_">
			<use xlink:href="#SVGID_3_"  overflow="visible"/>
		</clipPath>
		<g clip-path="url(#SVGID_4_)">
			<path fill="#D3362D" d="M124.3,211.4c-0.8,0-1.5-0.7-1.5-1.5c0-0.8,0.6-1.6,1.5-1.6c0.5,0,0.9,0,1.4-0.1c0.8-0.1,1.6,0.5,1.7,1.4
				c0.1,0.8-0.5,1.6-1.4,1.7C125.4,211.4,124.9,211.4,124.3,211.4C124.3,211.4,124.3,211.4,124.3,211.4z M118.2,210.8
				c-0.1,0-0.2,0-0.4,0c-0.5-0.1-1.1-0.3-1.6-0.4c-0.8-0.3-1.3-1.1-1-1.9c0.3-0.8,1.1-1.2,1.9-1c0.5,0.1,0.9,0.3,1.4,0.4
				c0.8,0.2,1.3,1,1.1,1.8C119.5,210.4,118.9,210.8,118.2,210.8z M131.7,209.9c-0.6,0-1.2-0.4-1.4-1c-0.3-0.8,0.1-1.7,0.9-2
				c0.4-0.2,0.9-0.4,1.3-0.6c0.8-0.4,1.7,0,2,0.7c0.4,0.8,0,1.7-0.7,2c-0.5,0.2-1,0.5-1.5,0.7C132.1,209.9,131.9,209.9,131.7,209.9z
				 M111.2,207.8c-0.3,0-0.6-0.1-0.8-0.3c-0.5-0.3-0.9-0.6-1.3-0.9c-0.7-0.5-0.8-1.5-0.3-2.1c0.5-0.7,1.5-0.8,2.1-0.3
				c0.4,0.3,0.8,0.6,1.2,0.8c0.7,0.5,0.9,1.4,0.4,2.1C112.2,207.6,111.7,207.8,111.2,207.8z M138.2,205.9c-0.4,0-0.8-0.2-1.2-0.5
				c-0.6-0.6-0.5-1.6,0.1-2.2c0.4-0.3,0.7-0.6,1-1c0.2-0.2,0.4-0.3,0.6-0.4c0.1-0.2,0.2-0.5,0.3-0.7c0.3-0.4,0.6-0.7,0.9-1.1
				c0.5-0.7,1.5-0.8,2.1-0.3c0.7,0.5,0.8,1.5,0.3,2.1c-0.3,0.4-0.7,0.9-1,1.3c-0.2,0.2-0.5,0.4-0.7,0.5c-0.1,0.3-0.2,0.5-0.4,0.8
				c-0.4,0.4-0.8,0.8-1.2,1.1C138.9,205.8,138.6,205.9,138.2,205.9z M105.7,202.6c-0.5,0-0.9-0.2-1.2-0.6c-0.3-0.4-0.6-0.9-0.9-1.3
				c-0.5-0.7-0.3-1.7,0.4-2.1c0.7-0.5,1.7-0.3,2.1,0.4c0.3,0.4,0.5,0.8,0.8,1.2c0.5,0.7,0.4,1.6-0.3,2.1
				C106.3,202.5,106,202.6,105.7,202.6z M144.3,197.3c-0.2,0-0.4,0-0.6-0.1c-0.8-0.3-1.2-1.2-0.9-2c0.2-0.4,0.3-0.9,0.5-1.3
				c0.3-0.8,1.1-1.3,1.9-1c0.8,0.3,1.3,1.1,1,1.9c-0.2,0.5-0.3,1-0.5,1.5C145.5,196.9,145,197.3,144.3,197.3z M102.2,195.8
				c-0.6,0-1.3-0.4-1.5-1.1c-0.2-0.5-0.3-1-0.4-1.6c-0.2-0.8,0.3-1.6,1.1-1.8c0.8-0.2,1.6,0.3,1.8,1.1c0.1,0.5,0.2,0.9,0.4,1.4
				c0.3,0.8-0.2,1.7-1,1.9C102.5,195.8,102.3,195.8,102.2,195.8z M145.9,189.8C145.9,189.8,145.8,189.8,145.9,189.8
				c-0.9,0-1.6-0.7-1.5-1.6c0-0.2,0-0.5,0-0.7c0-0.2,0-0.5,0-0.7c0-0.8,0.6-1.6,1.5-1.6c0.8,0,1.6,0.6,1.6,1.5c0,0.3,0,0.6,0,0.8
				c0,0.3,0,0.5,0,0.8C147.4,189.2,146.7,189.8,145.9,189.8z M101.1,188.3C101.1,188.3,101.1,188.3,101.1,188.3
				c-0.9,0-1.6-0.7-1.5-1.6c0-0.5,0.1-1.1,0.1-1.6c0.1-0.8,0.8-1.4,1.7-1.4c0.8,0.1,1.5,0.8,1.4,1.7c0,0.5-0.1,0.9-0.1,1.4
				C102.6,187.7,102,188.3,101.1,188.3z M144.8,182.3c-0.6,0-1.3-0.4-1.5-1.1c-0.1-0.4-0.3-0.9-0.5-1.3c-0.3-0.8,0.1-1.7,0.9-2
				c0.8-0.3,1.7,0.1,2,0.9c0.2,0.5,0.4,1,0.5,1.5c0.3,0.8-0.2,1.7-1,1.9C145.1,182.3,145,182.3,144.8,182.3z M102.7,180.9
				c-0.2,0-0.4,0-0.6-0.1c-0.8-0.3-1.2-1.2-0.9-2c0.2-0.5,0.4-1,0.6-1.5c0.4-0.8,1.3-1.1,2-0.7c0.8,0.4,1.1,1.3,0.7,2
				c-0.2,0.4-0.4,0.9-0.6,1.3C103.9,180.5,103.3,180.9,102.7,180.9z M141.3,175.5c-0.5,0-0.9-0.2-1.2-0.6c-0.3-0.4-0.6-0.7-0.9-1.1
				c-0.6-0.6-0.5-1.6,0.1-2.2c0.6-0.6,1.6-0.5,2.2,0.1c0.4,0.4,0.7,0.8,1,1.3c0.5,0.7,0.4,1.6-0.3,2.1
				C142,175.4,141.7,175.5,141.3,175.5z M106.6,174.4c-0.4,0-0.7-0.1-1-0.4c-0.6-0.6-0.7-1.5-0.1-2.2c0.4-0.4,0.7-0.8,1.1-1.2
				c0.6-0.6,1.6-0.6,2.2,0c0.6,0.6,0.6,1.6,0,2.2c-0.3,0.3-0.7,0.7-1,1C107.5,174.2,107,174.4,106.6,174.4z M135.8,170.3
				c-0.3,0-0.6-0.1-0.8-0.3c-0.4-0.3-0.8-0.5-1.2-0.7c-0.7-0.4-1-1.3-0.6-2.1c0.4-0.7,1.3-1,2.1-0.6c0.5,0.3,0.9,0.5,1.4,0.8
				c0.7,0.5,0.9,1.4,0.4,2.1C136.7,170.1,136.3,170.3,135.8,170.3z M112.5,169.6c-0.5,0-1.1-0.3-1.3-0.8c-0.4-0.7-0.2-1.7,0.6-2.1
				c0.5-0.3,1-0.5,1.5-0.8c0.8-0.4,1.7,0,2,0.7c0.4,0.8,0,1.7-0.7,2c-0.4,0.2-0.9,0.4-1.3,0.7C113,169.5,112.8,169.6,112.5,169.6z
				 M128.8,167.3c-0.1,0-0.2,0-0.4,0c-0.5-0.1-0.9-0.2-1.4-0.3c-0.8-0.1-1.4-0.9-1.2-1.8c0.1-0.8,0.9-1.4,1.8-1.2
				c0.5,0.1,1.1,0.2,1.6,0.3c0.8,0.2,1.3,1,1.1,1.8C130.1,166.8,129.5,167.3,128.8,167.3z M119.7,167c-0.7,0-1.4-0.5-1.5-1.3
				c-0.1-0.8,0.4-1.6,1.2-1.8c0.5-0.1,1.1-0.2,1.6-0.2c0.8-0.1,1.6,0.5,1.7,1.4c0.1,0.8-0.5,1.6-1.4,1.7c-0.5,0-0.9,0.1-1.4,0.2
				C119.9,167,119.8,167,119.7,167z"/>
			<path fill="#D3362D" d="M85,172.2c-0.8,0-1.5-0.7-1.5-1.5c0-0.8,0.6-1.6,1.5-1.6c0.5,0,1,0,1.4-0.1c0.8-0.1,1.6,0.5,1.7,1.4
				c0.1,0.8-0.5,1.6-1.4,1.7C86.1,172.1,85.6,172.1,85,172.2C85,172.2,85,172.2,85,172.2z M78.9,171.5c-0.1,0-0.2,0-0.4,0
				c-0.5-0.1-1.1-0.3-1.6-0.4c-0.8-0.3-1.3-1.1-1-1.9c0.3-0.8,1.1-1.3,1.9-1c0.5,0.1,0.9,0.3,1.4,0.4c0.8,0.2,1.3,1,1.1,1.8
				C80.2,171.1,79.6,171.5,78.9,171.5z M92.4,170.6c-0.6,0-1.2-0.4-1.4-1c-0.3-0.8,0.1-1.7,0.9-2c0.4-0.2,0.9-0.4,1.3-0.6
				c0.8-0.4,1.7,0,2,0.7c0.4,0.8,0,1.7-0.7,2c-0.5,0.2-1,0.5-1.5,0.6C92.8,170.6,92.6,170.6,92.4,170.6z M71.9,168.5
				c-0.3,0-0.6-0.1-0.8-0.3c-0.5-0.3-0.9-0.6-1.3-0.9c-0.7-0.5-0.8-1.5-0.3-2.1c0.5-0.7,1.5-0.8,2.1-0.3c0.4,0.3,0.8,0.6,1.2,0.8
				c0.7,0.5,0.9,1.4,0.4,2.1C72.9,168.3,72.4,168.5,71.9,168.5z M98.9,166.7c-0.4,0-0.9-0.2-1.2-0.5c-0.6-0.6-0.5-1.6,0.1-2.2
				c0.4-0.3,0.7-0.6,1-1c0.6-0.6,1.6-0.6,2.2,0c0.6,0.6,0.6,1.6,0,2.2c-0.4,0.4-0.8,0.8-1.2,1.1C99.6,166.5,99.3,166.7,98.9,166.7z
				 M66.4,163.3c-0.5,0-0.9-0.2-1.2-0.6c-0.3-0.4-0.6-0.9-0.9-1.3c-0.5-0.7-0.3-1.7,0.4-2.1c0.7-0.5,1.7-0.3,2.1,0.4
				c0.3,0.4,0.5,0.8,0.8,1.2c0.5,0.7,0.4,1.6-0.3,2.1C67,163.2,66.7,163.3,66.4,163.3z M103.7,160.8c-0.3,0-0.5-0.1-0.7-0.2
				c-0.7-0.4-1-1.3-0.6-2.1c0.2-0.4,0.5-0.8,0.7-1.3c0.4-0.8,1.3-1.1,2-0.7c0.8,0.4,1.1,1.3,0.7,2c-0.2,0.5-0.5,1-0.8,1.5
				C104.8,160.5,104.3,160.8,103.7,160.8z M62.9,156.5c-0.6,0-1.3-0.4-1.5-1.1c-0.2-0.5-0.3-1-0.4-1.6c-0.2-0.8,0.3-1.6,1.1-1.8
				c0.8-0.2,1.6,0.3,1.8,1.1c0.1,0.5,0.2,0.9,0.4,1.4c0.3,0.8-0.2,1.7-1,1.9C63.2,156.5,63,156.5,62.9,156.5z M106.3,153.6
				c-0.1,0-0.2,0-0.3,0c-0.8-0.1-1.4-0.9-1.2-1.8c0.1-0.5,0.1-0.9,0.2-1.4c0.1-0.8,0.8-1.4,1.7-1.4c0.8,0.1,1.5,0.8,1.4,1.7
				c-0.1,0.5-0.1,1.1-0.2,1.6C107.7,153.1,107,153.6,106.3,153.6z M61.8,149C61.8,149,61.8,149,61.8,149c-0.9,0-1.6-0.7-1.5-1.6
				c0-0.5,0.1-1.1,0.1-1.6c0.1-0.8,0.8-1.5,1.7-1.4c0.8,0.1,1.5,0.8,1.4,1.7c0,0.5-0.1,0.9-0.1,1.4C63.3,148.4,62.7,149,61.8,149z
				 M106.3,146c-0.7,0-1.4-0.5-1.5-1.3c-0.1-0.5-0.2-0.9-0.3-1.4c-0.2-0.8,0.3-1.6,1.1-1.8c0.8-0.2,1.6,0.3,1.8,1.1
				c0.1,0.5,0.2,1.1,0.3,1.6c0.1,0.8-0.4,1.6-1.2,1.8C106.4,146,106.4,146,106.3,146z M63.4,141.6c-0.2,0-0.4,0-0.6-0.1
				c-0.8-0.3-1.2-1.2-0.9-2c0.2-0.5,0.4-1,0.7-1.5c0.4-0.8,1.3-1.1,2-0.7c0.8,0.4,1.1,1.3,0.7,2c-0.2,0.4-0.4,0.9-0.6,1.3
				C64.6,141.2,64,141.6,63.4,141.6z M103.7,138.8c-0.5,0-1.1-0.3-1.3-0.8c-0.2-0.4-0.5-0.8-0.7-1.2c-0.5-0.7-0.3-1.7,0.4-2.1
				c0.7-0.5,1.7-0.3,2.1,0.4c0.3,0.5,0.6,0.9,0.8,1.4c0.4,0.7,0.2,1.7-0.6,2.1C104.3,138.8,104,138.8,103.7,138.8z M67.3,135.1
				c-0.4,0-0.7-0.1-1-0.4c-0.6-0.6-0.7-1.5-0.1-2.2c0.4-0.4,0.7-0.8,1.1-1.2c0.2-0.2,0.5-0.4,0.8-0.4c0.1-0.3,0.2-0.5,0.5-0.7
				c0.4-0.4,0.8-0.7,1.3-1c0.7-0.5,1.6-0.4,2.1,0.3c0.5,0.7,0.4,1.6-0.3,2.1c-0.4,0.3-0.7,0.6-1.1,0.9c-0.2,0.2-0.4,0.3-0.7,0.3
				c-0.1,0.2-0.2,0.5-0.4,0.6c-0.3,0.3-0.7,0.7-1,1C68.2,134.9,67.8,135.1,67.3,135.1z M98.9,132.9c-0.4,0-0.7-0.1-1-0.4
				c-0.4-0.3-0.7-0.6-1.1-0.9c-0.7-0.5-0.8-1.5-0.3-2.1c0.5-0.7,1.5-0.8,2.1-0.3c0.4,0.3,0.9,0.7,1.3,1c0.6,0.6,0.7,1.5,0.1,2.2
				C99.8,132.7,99.4,132.9,98.9,132.9z M92.4,129c-0.2,0-0.4,0-0.6-0.1c-0.4-0.2-0.9-0.3-1.3-0.5c-0.8-0.3-1.3-1.1-1-1.9
				c0.3-0.8,1.1-1.3,1.9-1c0.5,0.2,1,0.3,1.5,0.5c0.8,0.3,1.2,1.2,0.9,2C93.6,128.6,93.1,129,92.4,129z M76,128.9
				c-0.6,0-1.2-0.4-1.4-1c-0.3-0.8,0.1-1.7,0.9-2c0.5-0.2,1-0.4,1.5-0.5c0.8-0.3,1.7,0.2,1.9,1c0.3,0.8-0.2,1.7-1,1.9
				c-0.4,0.1-0.9,0.3-1.3,0.5C76.4,128.9,76.2,128.9,76,128.9z M85,127.4C85,127.4,85,127.4,85,127.4c-0.5,0-1,0-1.5,0
				c-0.9,0-1.6-0.6-1.6-1.5c0-0.8,0.6-1.6,1.5-1.6c0.5,0,1.1,0,1.6,0c0.8,0,1.5,0.7,1.5,1.6C86.5,126.8,85.8,127.4,85,127.4z"/>
		</g>
	</g>
</g>
<path opacity="0.1" fill="#424242" d="M159.4,78.3c-3.4,0-6.8,0.3-10,0.9c26,4.7,45.8,27.5,45.8,54.9s-19.8,50.2-45.8,54.9
	c3.2,0.6,6.6,0.9,10,0.9c30.8,0,55.8-25,55.8-55.8S190.3,78.3,159.4,78.3z"/>
<path opacity="0.1" fill="#424242" d="M116.6,155.2c-4.8-4.8-11.6-6.3-17.7-4.5c2.8,0.8,5.5,2.3,7.7,4.5c7,7,7,18.4,0,25.4
	c-2.2,2.2-4.9,3.7-7.7,4.5c6.1,1.8,12.9,0.2,17.7-4.5C123.6,173.6,123.6,162.2,116.6,155.2z"/>
</svg>
