<?xml version="1.0" encoding="utf-8"?>
<!-- Generator: Adobe Illustrator 17.1.0, SVG Export Plug-In . SVG Version: 6.00 Build 0)  -->
<!DOCTYPE svg PUBLIC "-//W3C//DTD SVG 1.1//EN" "http://www.w3.org/Graphics/SVG/1.1/DTD/svg11.dtd">
<svg version="1.1" id="Layer_1" xmlns="http://www.w3.org/2000/svg" xmlns:xlink="http://www.w3.org/1999/xlink" x="0px" y="0px"
	 viewBox="0 0 256 256" enable-background="new 0 0 256 256" xml:space="preserve">
<g>
	<circle fill="#18FFFF" cx="128.1" cy="127.9" r="73.6"/>
	<g>
		<defs>
			<circle id="SVGID_1_" cx="128.1" cy="127.9" r="73.6"/>
		</defs>
		<clipPath id="SVGID_2_">
			<use xlink:href="#SVGID_1_"  overflow="visible"/>
		</clipPath>
		<path clip-path="url(#SVGID_2_)" fill="#00C853" d="M137.8,55.2l18.1-9.9l28.2,5.6c0,0,12.7,19.7,12.7,22c0,2.3-2.3,10.4-2.3,10.4
			l-6.6,2.3h-21c-2.7,0-4.9,2.2-4.9,4.9c0,1.8,1,3.4,2.5,4.3l0.2,0.1c3.9,2,6.6,6.1,6.6,10.8c0,6.7-5.4,12.1-12.1,12.1
			c-1.5,0-2.9-0.3-4.3-0.8l-0.4-0.2l-8.9-3.3l-0.1-0.1c-0.6-0.2-1.2-0.4-1.9-0.4c-2.7,0-4.9,2.2-4.9,4.9c0,1.5,0.6,2.8,1.7,3.7
			l6.3,5.5l0.4,0.3c0.8,0.8,1.3,1.9,1.3,3.2c0,0.8-0.2,1.5-0.5,2.1l0,0.1c-0.3,0.6-0.4,1.3-0.4,2c0,1.7,0.8,3.2,2.1,4.2l0.2,0.2
			l16,11.4l0.1,0c3.4,2.5,5.7,6.6,5.7,11.2c0,2.7-0.8,5.2-2.1,7.3l-0.1,0.1c-0.7,1.2-1.1,2.5-1.1,4c0,2.5,1.2,4.7,3.1,6.1l0,0
			c1.2,0.9,2.8,1.4,4.4,1.4c2.3,0,4.3-1,5.7-2.6l10.5,10.3l-5.5,13.5l-69.1,11.6l-13.3-4.8l3.7-6.9l1.1-3l21.7-15l0.4-0.3
			c2.2-1.4,3.7-4,3.7-6.8c0-2.5-1.2-4.8-3-6.3l-0.1-0.1c-1.3-1.4-2.1-3.4-2.1-5.5c0-2.6,1.2-4.9,3.1-6.4l0.6-0.4l11.7-6.9
			c1.9-1.2,2.6-3.7,1.4-5.6l-19.7-30l-2.6-3.9l-5.5-8.2c-3.2-4.8-2.1-11.2,2.5-14.6l0.2-0.1c4.1-3,5.2-8.7,2.4-13l-0.1-0.1
			c-2.8-4.4-1.6-10.1,2.7-13L137.8,55.2"/>
	</g>
	<g>
		<defs>
			<circle id="SVGID_3_" cx="127.9" cy="128.1" r="73.6"/>
		</defs>
		<clipPath id="SVGID_4_">
			<use xlink:href="#SVGID_3_"  overflow="visible"/>
		</clipPath>
		<path clip-path="url(#SVGID_4_)" fill="#00C853" d="M45.8,128.9c-0.2,1.5-0.4,2.5-0.4,2.9c-0.2,1.7,9.7,18.7,9.7,18.7
			c2,2.3,4.6,4.1,7.6,5.2c9.3,3.2,19.5-1.7,22.7-11c2.3-6.5,0.6-13.4-3.9-18.1l0-0.1c-2.6-3.4-2.2-8.2,1-11.1
			c0.1-0.1,1.3-1.2,1.3-1.2c0.1-0.1,0.2-0.1,0.3-0.2c3.4-3.1,3.6-8.3,0.6-11.7l-9.6-9.9l-15-3.5c0,0-10.8,17.4-11,17.7
			C49.1,106.9,46.7,122.3,45.8,128.9"/>
		<rect x="52" y="150.8" clip-path="url(#SVGID_4_)" fill="#00C853" width="17.1" height="5.8"/>
	</g>
</g>
<path opacity="0.1" fill="#424242" d="M152.1,58.6c-11.3-3.9-23-4.9-34.1-3.4c4.7,0.7,9.4,1.8,14.1,3.4
	c38.4,13.3,58.7,55.3,45.4,93.7c-9.4,27-33,45.1-59.5,48.7c34.1,4.7,67.8-15,79.6-48.7C210.8,113.8,190.5,71.9,152.1,58.6z"/>
</svg>
