<?xml version="1.0" encoding="utf-8"?>
<!-- Generator: Adobe Illustrator 17.1.0, SVG Export Plug-In . SVG Version: 6.00 Build 0)  -->
<!DOCTYPE svg PUBLIC "-//W3C//DTD SVG 1.1//EN" "http://www.w3.org/Graphics/SVG/1.1/DTD/svg11.dtd">
<svg version="1.1" id="Layer_1" xmlns="http://www.w3.org/2000/svg" xmlns:xlink="http://www.w3.org/1999/xlink" x="0px" y="0px"
	 viewBox="0 0 256 256" enable-background="new 0 0 256 256" xml:space="preserve">
<g>
	<path fill="#89695E" d="M120.1,114.5c0-2.4,0.2-4.7,0.7-7c0.5-2.3,1.1-4.4,2-6.5c0.9-2.1,2-4.1,3.2-5.9c1.2-1.9,2.7-3.6,4.2-5.1
		c1.6-1.6,3.3-3,5.1-4.2c1.9-1.3,3.8-2.3,5.9-3.2c2.1-0.9,4.3-1.6,6.5-2c2.3-0.5,4.6-0.7,7-0.7s4.7,0.2,7,0.7c2.3,0.5,4.4,1.1,6.5,2
		c2.1,0.9,4.1,2,5.9,3.2c1.9,1.3,3.6,2.7,5.1,4.2s3,3.3,4.2,5.1c1.2,1.9,2.3,3.8,3.2,5.9s1.6,4.3,2,6.5c0.5,2.3,0.7,4.6,0.7,7H181
		h-8.7h-8.7h-8.7h-8.7h-8.7h-8.7H120.1z"/>
	<polygon fill="#89695E" points="236.5,126 120.1,126 120.1,114.5 236.5,103.5 	"/>
	<path fill="#89695E" d="M224.7,103.5c0-3.3,2.6-5.9,5.9-5.9c0.4,0,0.8,0.7,1.2,0.8c0.1,0,0.3-0.3,0.5-0.3c0.1,0,0.2-0.2,0.3-0.2
		c2.3,0.8,3.9,3,3.9,5.6c0,3.3-2.6,5.9-5.9,5.9S224.7,106.7,224.7,103.5z"/>
	<path fill="#89695E" d="M162,80.4l70.6,17.5c0,0-0.1,13.3,0,13.3c0.1,0-49.5,5.1-49.2,5C183.5,116.1,162,80.4,162,80.4z"/>
	<g>
		<path fill="#89695E" d="M160.3,139.7c-5.5,0-10-2.3-10-5c0-2.8-4.5-5-10-5h-10.1c-5.5,0-10,2.3-10,5c0,2.8,0,8.7,0,13.3
			s4.5,8.3,10,8.3h96.3c5.5,0,10-3.7,10-8.3s-4.5-8.3-10-8.3H160.3z"/>
	</g>
	<circle fill="#89695E" cx="126.1" cy="150.4" r="5.9"/>
	<rect x="201.1" y="139.7" fill="#89695E" width="35.4" height="9"/>
	<circle fill="#FFFFFF" cx="149.8" cy="98.6" r="8.9"/>
	<circle fill="#FFFFFF" cx="149.8" cy="107.5" r="8.9"/>
	<circle fill="#FFFFFF" cx="177.8" cy="105.5" r="11"/>
	<circle fill="#FFFFFF" cx="223.9" cy="108.3" r="4.9"/>
	<rect x="140.9" y="97.6" fill="#FFFFFF" width="17.8" height="10"/>
	<rect x="219.1" y="103.4" fill="#FFFFFF" width="4.9" height="4.9"/>
	<g>
		<path fill="#F1CA3A" d="M158.6,135c-2.2,0-3.1-1.6-2-3.5l0.1-0.1c1.1-1.9,2.9-1.9,4,0l0.1,0.1c1.1,1.9,0.2,3.5-2,3.5H158.6z"/>
	</g>
	<g>
		<path fill="#F1CA3A" d="M166.7,129.3c2.2,0,3.1,1.6,2,3.5l-0.1,0.1c-1.1,1.9-2.9,1.9-4,0l-0.1-0.1c-1.1-1.9-0.2-3.5,2-3.5H166.7z"
			/>
	</g>
	<g>
		<path fill="#F1CA3A" d="M174.6,135c-2.2,0-3.1-1.6-2-3.5l0.1-0.1c1.1-1.9,2.9-1.9,4,0l0.1,0.1c1.1,1.9,0.2,3.5-2,3.5H174.6z"/>
	</g>
	<g>
		<path fill="#F1CA3A" d="M182.7,129.3c2.2,0,3.1,1.6,2,3.5l-0.1,0.1c-1.1,1.9-2.9,1.9-4,0l-0.1-0.1c-1.1-1.9-0.2-3.5,2-3.5H182.7z"
			/>
	</g>
	<g>
		<path fill="#F1CA3A" d="M190.6,135c-2.2,0-3.1-1.6-2-3.5l0.1-0.1c1.1-1.9,2.9-1.9,4,0l0.1,0.1c1.1,1.9,0.2,3.5-2,3.5H190.6z"/>
	</g>
	<g>
		<path fill="#F1CA3A" d="M198.7,129.3c2.2,0,3.1,1.6,2,3.5l-0.1,0.1c-1.1,1.9-2.9,1.9-4,0l-0.1-0.1c-1.1-1.9-0.2-3.5,2-3.5H198.7z"
			/>
	</g>
	<g>
		<path fill="#F1CA3A" d="M206.5,135c-2.2,0-3.1-1.6-2-3.5l0.1-0.1c1.1-1.9,2.9-1.9,4,0l0.1,0.1c1.1,1.9,0.2,3.5-2,3.5H206.5z"/>
	</g>
	<g>
		<path fill="#F1CA3A" d="M214.7,129.3c2.2,0,3.1,1.6,2,3.5l-0.1,0.1c-1.1,1.9-2.9,1.9-4,0l-0.1-0.1c-1.1-1.9-0.2-3.5,2-3.5H214.7z"
			/>
	</g>
	<g>
		<path fill="#F1CA3A" d="M222.5,135c-2.2,0-3.1-1.6-2-3.5l0.1-0.1c1.1-1.9,2.9-1.9,4,0l0.1,0.1c1.1,1.9,0.2,3.5-2,3.5H222.5z"/>
	</g>
	<g>
		<path fill="#F1CA3A" d="M230.6,129.3c2.2,0,3.1,1.6,2,3.5l-0.1,0.1c-1.1,1.9-2.9,1.9-4,0l-0.1-0.1c-1.1-1.9-0.2-3.5,2-3.5H230.6z"
			/>
	</g>
	<g>
		<path fill="#89695E" d="M111.8,146.3c0,5.5-4.5,10-10,10h-6.6c-5.5,0-10-4.5-10-10v-6.6c0-5.5,4.5-10,10-10h6.6
			c5.5,0,10,4.5,10,10V146.3z"/>
	</g>
	<g>
		<path fill="#89695E" d="M76.9,146.3c0,5.5-4.5,10-10,10h-6.6c-5.5,0-10-4.5-10-10v-6.6c0-5.5,4.5-10,10-10h6.6c5.5,0,10,4.5,10,10
			V146.3z"/>
	</g>
	<circle fill="#89695E" cx="105.9" cy="123.8" r="5.9"/>
	<rect x="100" y="123.8" fill="#89695E" width="11.8" height="14.2"/>
	<circle fill="#89695E" cx="71" cy="123.8" r="5.9"/>
	<rect x="65.1" y="123.8" fill="#89695E" width="11.8" height="14.2"/>
	<g>
		<path fill="#89695E" d="M41.8,146.3c0,5.5-4.5,10-10,10h-6.6c-5.5,0-10-4.5-10-10v-6.6c0-5.5,4.5-10,10-10h6.6c5.5,0,10,4.5,10,10
			V146.3z"/>
	</g>
	<circle fill="#89695E" cx="35.9" cy="123.8" r="5.9"/>
	<rect x="30" y="123.8" fill="#89695E" width="11.8" height="14.2"/>
</g>
</svg>
