<?xml version="1.0" encoding="utf-8"?>
<!-- Generator: Adobe Illustrator 17.1.0, SVG Export Plug-In . SVG Version: 6.00 Build 0)  -->
<!DOCTYPE svg PUBLIC "-//W3C//DTD SVG 1.1//EN" "http://www.w3.org/Graphics/SVG/1.1/DTD/svg11.dtd">
<svg version="1.1" id="Layer_1" xmlns="http://www.w3.org/2000/svg" xmlns:xlink="http://www.w3.org/1999/xlink" x="0px" y="0px"
	 viewBox="0 0 256 256" enable-background="new 0 0 256 256" xml:space="preserve">
<g>
	<g>
		<g>
			<path opacity="0.1" fill="#424242" d="M207.3,145.5c0-27.4-21.9-49.7-49.1-50.4v-2.5H68.4v106.9h89.8v-3.6
				C185.4,195.2,207.3,172.9,207.3,145.5z"/>
			
				<linearGradient id="SVGID_1_" gradientUnits="userSpaceOnUse" x1="113.4817" y1="118.5412" x2="203.2719" y2="118.5412" gradientTransform="matrix(1 0 0 1 -14.3298 -1.1731)">
				<stop  offset="0" style="stop-color:#FFFFFF"/>
				<stop  offset="1" style="stop-color:#000000"/>
			</linearGradient>
			<rect x="99.2" y="63.9" opacity="0.15" fill="url(#SVGID_1_)" width="89.8" height="106.9"/>
			<rect x="80.8" y="62.1" fill="#0F9D58" width="106.3" height="106.3"/>
			
				<linearGradient id="SVGID_2_" gradientUnits="userSpaceOnUse" x1="303.4458" y1="1.8373" x2="393.2426" y2="1.8373" gradientTransform="matrix(0.9848 -0.1736 0.1736 0.9848 -212.5825 176.9693)">
				<stop  offset="0" style="stop-color:#FFFFFF"/>
				<stop  offset="1" style="stop-color:#000000"/>
			</linearGradient>
			<polygon opacity="0.15" fill="url(#SVGID_2_)" points="184.3,163.1 95.9,178.7 77.3,73.5 165.7,57.9 			"/>
			
				<rect x="67.7" y="64.9" transform="matrix(0.9848 -0.1736 0.1736 0.9848 -18.6668 22.7807)" fill="#FFAB91" width="106.3" height="106.3"/>
			<g>
				<circle fill="#262626" cx="155" cy="142.7" r="50.4"/>
				<circle fill="#FDD835" cx="155" cy="142.7" r="16.5"/>
				<circle fill="#263238" cx="155" cy="142.7" r="2.7"/>
				<path fill="#444444" d="M155,101.5c-22.8,0-41.2,18.5-41.2,41.2c0,22.8,18.5,41.2,41.2,41.2s41.2-18.5,41.2-41.2
					C196.3,120,177.8,101.5,155,101.5z M155,183.1c-22.3,0-40.3-18.1-40.3-40.3s18.1-40.3,40.3-40.3s40.3,18.1,40.3,40.3
					S177.3,183.1,155,183.1z"/>
				<path fill="#444444" d="M155,110.7c-17.7,0-32.1,14.4-32.1,32.1s14.4,32.1,32.1,32.1s32.1-14.4,32.1-32.1S172.8,110.7,155,110.7
					z M155,173.9c-17.2,0-31.2-14-31.2-31.2c0-17.2,14-31.2,31.2-31.2s31.2,14,31.2,31.2C186.2,160,172.2,173.9,155,173.9z"/>
			</g>
			<g>
				<rect x="48.7" y="89.6" fill="#00ACC1" width="106.3" height="106.3"/>
				<rect x="71.8" y="103.4" fill="#FDD835" width="25.5" height="6.8"/>
				<circle fill="#00BCD4" cx="91.3" cy="151.8" r="19.5"/>
				<polygon fill="#FF4081" points="91.9,151.1 112.6,115.3 133.2,151.1 				"/>
				<g>
					<path fill="#FDD835" d="M129.1,171.2c-0.3,0-0.5-0.2-0.5-0.5c0-1.2-0.8-1.8-1.7-2.5c-0.9-0.7-2-1.6-2-3.2c0-1.6,1.1-2.5,2-3.2
						c0.9-0.7,1.7-1.3,1.7-2.5c0-1.2-0.8-1.8-1.7-2.5c-0.9-0.7-2-1.6-2-3.2c0-1.6,1.1-2.5,2-3.2c0.9-0.7,1.7-1.3,1.7-2.5
						c0-1.2-0.8-1.8-1.7-2.5c-0.9-0.7-2-1.6-2-3.2c0-1.6,1.1-2.5,2-3.2c0.9-0.7,1.7-1.3,1.7-2.5c0-0.3,0.2-0.5,0.5-0.5
						c0.3,0,0.5,0.2,0.5,0.5c0,1.6-1.1,2.5-2,3.2c-0.9,0.7-1.7,1.3-1.7,2.5c0,1.2,0.8,1.8,1.7,2.5c0.9,0.7,2,1.6,2,3.2
						c0,1.6-1.1,2.5-2,3.2c-0.9,0.7-1.7,1.3-1.7,2.5c0,1.2,0.8,1.8,1.7,2.5c0.9,0.7,2,1.6,2,3.2c0,1.6-1.1,2.5-2,3.2
						c-0.9,0.7-1.7,1.3-1.7,2.5c0,1.2,0.8,1.8,1.7,2.5c0.9,0.7,2,1.6,2,3.2C129.6,171,129.4,171.2,129.1,171.2z"/>
					<path fill="#FDD835" d="M116.1,171.2c-0.3,0-0.5-0.2-0.5-0.5c0-1.2-0.8-1.8-1.7-2.5c-0.9-0.7-2-1.6-2-3.2c0-1.6,1.1-2.5,2-3.2
						c0.9-0.7,1.7-1.3,1.7-2.5c0-1.2-0.8-1.8-1.7-2.5c-0.9-0.7-2-1.6-2-3.2c0-1.6,1.1-2.5,2-3.2c0.9-0.7,1.7-1.3,1.7-2.5
						c0-1.2-0.8-1.8-1.7-2.5c-0.9-0.7-2-1.6-2-3.2c0-1.6,1.1-2.5,2-3.2c0.9-0.7,1.7-1.3,1.7-2.5c0-0.3,0.2-0.5,0.5-0.5
						c0.3,0,0.5,0.2,0.5,0.5c0,1.6-1.1,2.5-2,3.2c-0.9,0.7-1.7,1.3-1.7,2.5c0,1.2,0.8,1.8,1.7,2.5c0.9,0.7,2,1.6,2,3.2
						c0,1.6-1.1,2.5-2,3.2c-0.9,0.7-1.7,1.3-1.7,2.5c0,1.2,0.8,1.8,1.7,2.5c0.9,0.7,2,1.6,2,3.2c0,1.6-1.1,2.5-2,3.2
						c-0.9,0.7-1.7,1.3-1.7,2.5c0,1.2,0.8,1.8,1.7,2.5c0.9,0.7,2,1.6,2,3.2C116.6,171,116.4,171.2,116.1,171.2z"/>
					<path fill="#FDD835" d="M122.7,171.2c-0.3,0-0.5-0.2-0.5-0.5c0-1.2-0.8-1.8-1.7-2.5c-0.9-0.7-2-1.6-2-3.2c0-1.6,1.1-2.5,2-3.2
						c0.9-0.7,1.7-1.3,1.7-2.5c0-1.2-0.8-1.8-1.7-2.5c-0.9-0.7-2-1.6-2-3.2c0-1.6,1.1-2.5,2-3.2c0.9-0.7,1.7-1.3,1.7-2.5
						c0-1.2-0.8-1.8-1.7-2.5c-0.9-0.7-2-1.6-2-3.2c0-1.6,1.1-2.5,2-3.2c0.9-0.7,1.7-1.3,1.7-2.5c0-0.3,0.2-0.5,0.5-0.5
						c0.3,0,0.5,0.2,0.5,0.5c0,1.6-1.1,2.5-2,3.2c-0.9,0.7-1.7,1.3-1.7,2.5c0,1.2,0.8,1.8,1.7,2.5c0.9,0.7,2,1.6,2,3.2
						c0,1.6-1.1,2.5-2,3.2c-0.9,0.7-1.7,1.3-1.7,2.5c0,1.2,0.8,1.8,1.7,2.5c0.9,0.7,2,1.6,2,3.2c0,1.6-1.1,2.5-2,3.2
						c-0.9,0.7-1.7,1.3-1.7,2.5c0,1.2,0.8,1.8,1.7,2.5c0.9,0.7,2,1.6,2,3.2C123.2,171,122.9,171.2,122.7,171.2z"/>
				</g>
			</g>
			<linearGradient id="SVGID_3_" gradientUnits="userSpaceOnUse" x1="181.1569" y1="142.2076" x2="159.16" y2="142.2076">
				<stop  offset="0" style="stop-color:#FFFFFF"/>
				<stop  offset="1" style="stop-color:#000000"/>
			</linearGradient>
			<rect x="155" y="91.3" opacity="0.2" fill="url(#SVGID_3_)" width="2.7" height="101.9"/>
		</g>
	</g>
</g>
</svg>
