<?xml version="1.0" encoding="utf-8"?>
<!-- Generator: Adobe Illustrator 17.1.0, SVG Export Plug-In . SVG Version: 6.00 Build 0)  -->
<!DOCTYPE svg PUBLIC "-//W3C//DTD SVG 1.1//EN" "http://www.w3.org/Graphics/SVG/1.1/DTD/svg11.dtd">
<svg version="1.1" id="Layer_1" xmlns="http://www.w3.org/2000/svg" xmlns:xlink="http://www.w3.org/1999/xlink" x="0px" y="0px"
	 viewBox="0 0 256 256" enable-background="new 0 0 256 256" xml:space="preserve">
<g>
	<g>
		<defs>
			<circle id="SVGID_1_" cx="86.2" cy="77.2" r="37.1"/>
		</defs>
		<clipPath id="SVGID_2_">
			<use xlink:href="#SVGID_1_"  overflow="visible"/>
		</clipPath>
		<rect x="49.1" y="40.1" clip-path="url(#SVGID_2_)" fill="#FF8A80" width="74.2" height="74.2"/>
		<g clip-path="url(#SVGID_2_)">
			<path fill="#E0F7FA" d="M110.2,101.6c-0.5-0.7-0.8-1.1-0.8-1.1l-0.1-0.2c-0.3-0.5-0.7-1-1.1-1.4c-1.9-2-4.2-3.1-6.6-3.3
				c0,0,0,0,0,0v0l-0.1-0.1c-3.7,4-9.3,6.6-15.5,6.7c-6.5-0.2-12.2-3-16-7.3c0,0,0,0,0,0l0,0c0,0.1-0.1,0.2-0.1,0.3
				c-1.8,0.5-3.5,1.6-4.9,3.1L65,98.6c0,0-0.3,0.3-0.9,1c-0.5,0.6-1.3,1.5-2.2,2.6c-1.8,2.3-4.2,5.5-6.8,9.7c-0.5,0.8-1,1.6-1.5,2.5
				h63.6c-1.9-4.1-3.8-7.4-5.2-9.8C111.2,103.3,110.6,102.3,110.2,101.6z"/>
			<path fill="#FFE0B2" d="M86,102.3c6.2-0.1,11.7-2.7,15.5-6.7l0.1,0.1v0c-9.8-7.7-7.5-13.6-4.9-16.6c0.8-0.7,1.6-1.5,2.6-2.3
				c0,0,0,0,0,0l7.6-6.4c0.9-0.7,1.5-1.8,1.7-3c0.4-2.5-1.4-4.9-4-5.3c-0.9-0.1-1.7,0-2.5,0.3c-0.1-0.6-0.3-1.1-0.5-1.7
				C86,63,79.6,59.4,77,56c-0.9,1.5-3.6,4.8-9.8,5.9c0,0.1-0.1,0.3-0.1,0.4c-0.6-0.2-1.2-0.2-1.9-0.1c-2.5,0.4-4.3,2.7-4,5.3
				c0.2,1.2,0.8,2.2,1.6,2.9l6.4,5.4c3.6,3.7,8.8,11.4,0.9,19.1c0,0,0,0.1-0.1,0.1c0,0,0,0,0,0C73.8,99.3,79.5,102.1,86,102.3z
				 M93.4,66.8c0.5,0,0.9,0.4,0.9,0.9c0,0.5-0.4,0.9-0.9,0.9c-0.5,0-0.9-0.4-0.9-0.9C92.5,67.2,92.9,66.8,93.4,66.8z M78.5,66.8
				c0.5,0,0.9,0.4,0.9,0.9c0,0.5-0.4,0.9-0.9,0.9c-0.5,0-0.9-0.4-0.9-0.9C77.6,67.2,78,66.8,78.5,66.8z"/>
			<circle fill="#444444" cx="93.5" cy="67.8" r="1"/>
			<circle fill="#444444" cx="78.6" cy="67.8" r="1"/>
			<path fill="#444444" d="M77,56c2.6,3.4,9,7,24.6,4.9c-1.3-4-3.9-7.3-7.3-9.5c10,0.9,8.2-5.4,8.2-5.4c-0.8,3.2-6.4,2.5-6.4,2.5
				H85.1c0,0,0,0,0,0c-1,0-2,0-3,0.2c-7.4,1-13.1,6.4-14.9,13.3C73.4,60.8,76.1,57.5,77,56z"/>
		</g>
	</g>
	<g>
		<g>
			<path fill="#FFCC80" d="M153.7,109.3C153.7,109.3,153.6,109.4,153.7,109.3c0,0,0.1-0.1,0.2-0.2
				C153.8,109.2,153.7,109.3,153.7,109.3z"/>
		</g>
	</g>
	<g>
		<defs>
			<circle id="SVGID_3_" cx="169.8" cy="77.2" r="37.1"/>
		</defs>
		<clipPath id="SVGID_4_">
			<use xlink:href="#SVGID_3_"  overflow="visible"/>
		</clipPath>
		<rect x="132.6" y="40.1" clip-path="url(#SVGID_4_)" fill="#80D8FF" width="74.2" height="74.2"/>
		<g clip-path="url(#SVGID_4_)">
			<path fill="none" d="M167.1,55c-0.1-0.1-0.1-0.1-0.2-0.2C167,54.9,167.1,55,167.1,55z"/>
			<path fill="none" d="M166.5,54.3c-0.1-0.1-0.2-0.2-0.3-0.3C166.4,54.1,166.5,54.2,166.5,54.3z"/>
			<path fill="none" d="M166.8,54.7c-0.1-0.1-0.1-0.2-0.2-0.2C166.7,54.5,166.8,54.6,166.8,54.7z"/>
			<path fill="none" d="M167.5,55.4c-0.1-0.1-0.1-0.1-0.2-0.2C167.3,55.2,167.4,55.3,167.5,55.4z"/>
			<path fill="none" d="M159.5,72.7C159.5,72.7,159.5,72.7,159.5,72.7C159.5,72.7,159.5,72.7,159.5,72.7z"/>
			<path fill="none" d="M159.8,73c0,0,0.1,0.1,0.2,0.2C159.9,73.1,159.9,73,159.8,73z"/>
			<path fill="none" d="M159.7,72.8c0,0,0.1,0.1,0.1,0.1C159.7,72.9,159.7,72.8,159.7,72.8z"/>
			<path fill="none" d="M159.5,72.7C159.6,72.7,159.6,72.8,159.5,72.7C159.6,72.8,159.6,72.7,159.5,72.7z"/>
			<path fill="none" d="M167.8,55.7c-0.1-0.1-0.2-0.1-0.2-0.2C167.7,55.6,167.7,55.6,167.8,55.7z"/>
			<path fill="none" d="M172.8,58.4c-0.2-0.1-0.4-0.1-0.6-0.2C172.4,58.3,172.6,58.4,172.8,58.4z"/>
			<path fill="none" d="M173.6,58.7c-0.2-0.1-0.4-0.1-0.6-0.2C173.2,58.5,173.4,58.6,173.6,58.7z"/>
			<path fill="none" d="M160,73.1c0.1,0.1,0.1,0.1,0.2,0.2C160.2,73.3,160.1,73.2,160,73.1z"/>
			<path fill="none" d="M175.7,59.1c-0.2,0-0.3-0.1-0.5-0.1C175.3,59,175.5,59.1,175.7,59.1z"/>
			<path fill="none" d="M168.2,56.1c-0.1-0.1-0.2-0.2-0.3-0.2C168,55.9,168.1,56,168.2,56.1z"/>
			<path fill="none" d="M172.1,58.2c-0.2-0.1-0.4-0.1-0.5-0.2C171.8,58.1,171.9,58.1,172.1,58.2z"/>
			<path fill="none" d="M168.7,56.4c-0.1-0.1-0.2-0.2-0.4-0.3C168.5,56.2,168.6,56.3,168.7,56.4z"/>
			<path fill="none" d="M170.9,57.7c-0.8-0.4-1.5-0.8-2.1-1.2C169.4,56.9,170.1,57.3,170.9,57.7z"/>
			<path fill="none" d="M171.5,57.9c-0.2-0.1-0.4-0.2-0.5-0.2C171.1,57.8,171.3,57.9,171.5,57.9z"/>
			<path fill="none" d="M183.2,59.5c-0.2,0-0.3,0-0.5,0C182.8,59.5,183,59.5,183.2,59.5z"/>
			<path fill="none" d="M181.3,59.5c0.3,0,0.5,0,0.8,0c-0.2,0-0.3,0-0.5,0C181.5,59.5,181.4,59.5,181.3,59.5z"/>
			<path fill="none" d="M179.1,59.5c0.4,0,0.7,0,1.1,0c-0.3,0-0.6,0-1,0C179.2,59.5,179.1,59.5,179.1,59.5z"/>
			<path fill="none" d="M180.2,59.5c0.3,0,0.6,0,0.9,0c-0.2,0-0.3,0-0.5,0C180.5,59.5,180.3,59.5,180.2,59.5z"/>
			<path fill="none" d="M183.7,59.4c0.2,0,0.4,0,0.6,0c0,0-0.1,0-0.1,0C184.1,59.4,183.9,59.4,183.7,59.4z"/>
			<path fill="none" d="M187.3,59.1c-0.1,0-0.3,0-0.4,0.1c0.7-0.1,1.4-0.2,2.1-0.3c-0.4,0.1-0.8,0.1-1.3,0.2
				C187.6,59.1,187.5,59.1,187.3,59.1z"/>
			<path fill="none" d="M185.4,59.3c-0.2,0-0.3,0-0.5,0c0.5,0,1.1-0.1,1.7-0.2c-0.2,0-0.3,0-0.5,0C185.8,59.3,185.6,59.3,185.4,59.3
				z"/>
			<path fill="none" d="M162.3,76c0.1,0.2,0.2,0.4,0.3,0.6C162.5,76.4,162.4,76.2,162.3,76z"/>
			<path fill="none" d="M160.3,73.4c0.4,0.4,1,1.1,1.6,2C161.3,74.5,160.7,73.8,160.3,73.4z"/>
			<path fill="none" d="M161.9,75.4c0.1,0.2,0.2,0.3,0.3,0.5C162.1,75.8,162,75.6,161.9,75.4z"/>
			<path fill="none" d="M162.6,76.6c0.1,0.2,0.2,0.4,0.3,0.6C162.8,77.1,162.7,76.8,162.6,76.6z"/>
			<path fill="none" d="M178,59.4c-0.2,0-0.3,0-0.5,0c-0.1,0-0.2,0-0.3,0c-0.2,0-0.3,0-0.5-0.1c0,0-0.1,0-0.1,0
				c0.7,0.1,1.5,0.2,2.3,0.2c-0.2,0-0.4,0-0.5,0C178.2,59.4,178.1,59.4,178,59.4z"/>
			<path fill="none" d="M175.8,59.1c0.2,0,0.4,0.1,0.6,0.1c-0.2,0-0.3,0-0.5-0.1C175.9,59.1,175.8,59.1,175.8,59.1z"/>
			<path fill="none" d="M173.7,58.7c0.4,0.1,0.9,0.2,1.3,0.3c-0.2,0-0.4-0.1-0.5-0.1C174.2,58.8,173.9,58.7,173.7,58.7z"/>
			<path fill="none" d="M162.9,77.3c0.3,0.7,0.6,1.5,0.9,2.4C163.6,78.8,163.3,78,162.9,77.3z"/>
			<path fill="#E65100" d="M191.4,114.4h0.2c-1.4-5.5-2.8-11.2-3.9-16.7c-4.4,1.6-9.6,2.5-13,2.6c0.2,0,0.3,0,0.5,0H175h-0.9
				c0.2,0,0.3,0,0.5,0c-5.2-0.1-9.8-2.3-13.1-5.6c-1.4,2.8-3.5,6-6.3,9.4h33.7C189.7,107.5,190.6,111,191.4,114.4z"/>
			<path fill="#2A56C6" d="M189,93.8l0-0.1c0,0,0,0,0,0C189,93.7,189,93.7,189,93.8z"/>
			<path fill="#FFE0B2" d="M174.1,100.3h0.9h0.2c-0.2,0-0.3,0-0.5,0C174.4,100.3,174.3,100.3,174.1,100.3z"/>
			<path fill="#00838F" d="M155.4,102.2c0.1-0.1,0.1-0.2,0.2-0.2C155.5,102,155.4,102.1,155.4,102.2
				C155.4,102.2,155.4,102.2,155.4,102.2z"/>
			<path fill="#EE8100" d="M191.6,114.4c-0.9-3.4-1.7-6.8-2.5-10.3h-33.9l0,0c-0.5,0.6-1.2,1.3-1.8,1.9c-0.1,0.1-0.2,0.2-0.3,0.3
				c-2.3,2.7-4.3,5.3-6,8H191.6z"/>
			<path fill="#FFE0B2" d="M174.6,100.3c3.4-0.1,8.6-1,13-2.6c-0.2-0.8-0.3-1.6-0.5-2.4c-1.1-5.4-1.8-10.5-1.9-14.5
				c-0.3-11.4,3.8-11.7,3.8-11.7l1.2,0c0-2.4-0.3-5.1-0.5-7.2c-0.1-1.1-0.4-2.1-0.7-3.1c-0.7,0.1-1.4,0.2-2.1,0.3
				c-0.1,0-0.2,0-0.4,0l0,0c-0.6,0.1-1.1,0.1-1.7,0.2l0,0c-0.2,0-0.4,0-0.5,0c-0.2,0-0.4,0-0.6,0l0,0c-0.2,0-0.4,0-0.6,0
				c0,0,0,0,0,0c-0.2,0-0.3,0-0.5,0l0,0c-0.2,0-0.4,0-0.6,0l0,0c-0.3,0-0.6,0-0.8,0c-0.1,0-0.1,0-0.2,0h0c-0.3,0-0.6,0-0.9,0
				c0,0,0,0,0,0l0,0c-0.4,0-0.8,0-1.1,0c-0.1,0-0.1,0-0.2,0l0,0c-0.8,0-1.6-0.1-2.3-0.2c0,0-0.1,0-0.1,0l0,0c-0.2,0-0.4-0.1-0.6-0.1
				c0,0-0.1,0-0.1,0l0,0c-0.2,0-0.3-0.1-0.5-0.1l0,0c-0.1,0-0.1,0-0.2,0l0,0c-0.5-0.1-0.9-0.2-1.3-0.3c0,0-0.1,0-0.1,0
				c-0.2-0.1-0.4-0.1-0.6-0.2c0,0-0.1,0-0.1,0c-0.2-0.1-0.4-0.1-0.6-0.2c0,0-0.1,0-0.1,0c-0.2-0.1-0.4-0.1-0.5-0.2c0,0-0.1,0-0.1,0
				c-0.2-0.1-0.4-0.2-0.5-0.2c0,0,0,0-0.1,0c-0.8-0.4-1.5-0.8-2.1-1.2c0,0,0,0-0.1-0.1c-0.1-0.1-0.2-0.2-0.4-0.3
				c0,0-0.1-0.1-0.1-0.1c-0.1-0.1-0.2-0.2-0.3-0.2c0,0-0.1-0.1-0.1-0.1c-0.1-0.1-0.2-0.1-0.2-0.2c0,0-0.1-0.1-0.1-0.1
				c-0.1-0.1-0.1-0.1-0.2-0.2c0,0-0.1-0.1-0.1-0.1c-0.1-0.1-0.1-0.1-0.2-0.2c0,0-0.1-0.1-0.1-0.1c-0.1-0.1-0.1-0.2-0.2-0.2
				c0,0-0.1-0.1-0.1-0.1c-0.1-0.1-0.2-0.2-0.3-0.3l-4.6,14.5l-6.2-8.3c-2.4,0.4-4,2.7-3.7,5.3c0.2,1.2,0.7,2.2,1.5,2.9c0,0,0,0,0,0
				c0.1,0.1,0.9,0.4,2,1c0.4,0.3,0.9,0.6,1.4,0.9c0.9,0.6,1.9,1.4,2.8,2.4c0,0,0,0,0,0c0,0,0,0,0,0c0,0,0,0,0.1,0.1c0,0,0,0,0,0
				c0,0,0.1,0.1,0.1,0.1c0,0,0,0,0,0c0.1,0,0.1,0.1,0.2,0.2c0,0,0,0,0,0c0.1,0.1,0.1,0.1,0.2,0.2c0,0,0,0,0,0c0.4,0.4,1,1.1,1.6,2
				c0,0,0,0,0,0c0.1,0.2,0.2,0.3,0.3,0.5c0,0,0,0,0,0.1c0.1,0.2,0.2,0.4,0.3,0.6c0,0,0,0,0,0.1c0.1,0.2,0.2,0.4,0.3,0.6c0,0,0,0,0,0
				c0.3,0.7,0.6,1.5,0.9,2.4l0,0l0,0c1,3.6,0.9,8.6-2.3,15C164.9,98.1,169.5,100.2,174.6,100.3z M181.4,64.8c0.5,0,0.9,0.4,0.9,0.9
				c0,0.5-0.4,0.9-0.9,0.9c-0.5,0-0.9-0.4-0.9-0.9C180.6,65.2,181,64.8,181.4,64.8z"/>
			<circle fill="#444444" cx="181.6" cy="65.8" r="1"/>
			<path fill="#5D4037" d="M163.8,79.7c-0.2-0.9-0.5-1.7-0.9-2.4c0,0,0,0,0,0c-0.1-0.2-0.2-0.4-0.3-0.6c0,0,0,0,0-0.1
				c-0.1-0.2-0.2-0.4-0.3-0.6c0,0,0,0,0-0.1c-0.1-0.2-0.2-0.4-0.3-0.5c0,0,0,0,0,0c-0.6-0.9-1.2-1.6-1.6-2c0,0,0,0,0,0
				c-0.1-0.1-0.1-0.1-0.2-0.2c0,0,0,0,0,0c-0.1-0.1-0.1-0.1-0.2-0.2c0,0,0,0,0,0c0,0-0.1-0.1-0.1-0.1c0,0,0,0,0,0c0,0-0.1,0-0.1-0.1
				c0,0,0,0,0,0c0,0,0,0,0,0c-0.9-1-1.9-1.8-2.8-2.4c-0.5-0.4-1-0.7-1.4-0.9c-1.1-0.6-1.8-0.9-2-1c0,0,0,0,0,0
				c-0.8-0.7-1.3-1.7-1.5-2.9c-0.3-2.5,1.3-4.9,3.7-5.3l6.2,8.3l4.6-14.5c0.1,0.1,0.2,0.2,0.3,0.3c0,0,0.1,0.1,0.1,0.1
				c0.1,0.1,0.1,0.2,0.2,0.2c0,0,0.1,0.1,0.1,0.1c0.1,0.1,0.1,0.1,0.2,0.2c0,0,0.1,0.1,0.1,0.1c0.1,0.1,0.1,0.1,0.2,0.2
				c0,0,0.1,0.1,0.1,0.1c0.1,0.1,0.2,0.2,0.2,0.2c0,0,0.1,0.1,0.1,0.1c0.1,0.1,0.2,0.2,0.3,0.2c0,0,0.1,0.1,0.1,0.1
				c0.1,0.1,0.2,0.2,0.4,0.3c0,0,0,0,0.1,0.1c0.6,0.4,1.3,0.8,2.1,1.2c0,0,0,0,0.1,0c0.2,0.1,0.4,0.2,0.5,0.2c0,0,0.1,0,0.1,0
				c0.2,0.1,0.4,0.1,0.5,0.2c0,0,0.1,0,0.1,0c0.2,0.1,0.4,0.1,0.6,0.2c0,0,0.1,0,0.1,0c0.2,0.1,0.4,0.1,0.6,0.2c0,0,0.1,0,0.1,0
				c0.3,0.1,0.5,0.1,0.8,0.2c0.2,0,0.4,0.1,0.5,0.1l0,0c0.1,0,0.1,0,0.2,0l0,0c0.2,0,0.3,0.1,0.5,0.1l0,0c0,0,0.1,0,0.1,0
				c0,0,0.1,0,0.1,0c0.2,0,0.3,0.1,0.5,0.1l0,0c0,0,0.1,0,0.1,0c0,0,0.1,0,0.1,0c0.2,0,0.3,0,0.5,0.1c0.1,0,0.2,0,0.3,0
				c0.2,0,0.3,0,0.5,0c0.1,0,0.2,0,0.3,0c0.2,0,0.4,0,0.5,0l0,0c0.1,0,0.1,0,0.2,0c0.1,0,0.1,0,0.2,0c0.3,0,0.6,0,1,0l0,0
				c0,0,0,0,0,0c0.2,0,0.3,0,0.5,0c0.2,0,0.3,0,0.5,0h0c0.1,0,0.1,0,0.2,0c0.1,0,0.2,0,0.3,0c0.2,0,0.3,0,0.5,0l0,0
				c0.2,0,0.4,0,0.6,0l0,0c0.2,0,0.3,0,0.5,0c0,0,0,0,0,0c0.2,0,0.4,0,0.6,0l0,0c0.2,0,0.3,0,0.5,0c0,0,0.1,0,0.1,0
				c0.2,0,0.4,0,0.5,0l0,0c0.2,0,0.3,0,0.5,0c0.2,0,0.5,0,0.7-0.1c0.2,0,0.3,0,0.5,0l0,0c0.1,0,0.2,0,0.4,0c0.1,0,0.3,0,0.4-0.1
				c0.1,0,0.3,0,0.4-0.1c0.4-0.1,0.8-0.1,1.3-0.2c-2.2-7.2-8.3-12.2-15.3-12.4l0,0c0,0-29.4-4.7-24.6,32.7L163.8,79.7L163.8,79.7
				L163.8,79.7z"/>
		</g>
	</g>
	<g>
		<defs>
			<circle id="SVGID_5_" cx="86.2" cy="160.8" r="37.1"/>
		</defs>
		<clipPath id="SVGID_6_">
			<use xlink:href="#SVGID_5_"  overflow="visible"/>
		</clipPath>
		<rect x="49.1" y="123.6" clip-path="url(#SVGID_6_)" fill="#B9F6CA" width="74.2" height="74.2"/>
		<g clip-path="url(#SVGID_6_)">
			<path fill="#444444" d="M77.2,167c-0.9-0.9-1.9-1.7-2.7-2.3c-0.5-0.4-1-0.7-1.4-0.9c-1-0.6-1.8-0.9-1.9-1c0,0,0,0,0,0l0,0
				c-0.8-0.7-1.3-1.7-1.4-2.8c-0.3-2.5,1.3-4.7,3.5-5.1c0.6-0.1,1.1,0,1.7,0.1c0,0,0-0.1,0,0c5.5-1,8-4.6,8.9-6.1
				c2.3,3.3,8.2,7.5,22.2,5.4c1.7-2.7,2.6-5.9,2.6-9.3c0-9.9-8-17.9-17.9-17.9c-3.9,0-7.5,1.2-10.4,3.3L65.3,141h0
				c-6.7,3.2-11.4,10.1-11.4,18.1c0,11.1,9,20.1,20.1,20.1c2.7,0,5.2-0.5,7.5-1.5C81.6,172.9,79.5,169.4,77.2,167z"/>
			<path fill="#444444" d="M74.9,155L74.9,155C74.9,155,74.9,155.1,74.9,155z"/>
			<path fill="#8D6E63" d="M91.9,194.4c3.5,0.3,7.8-0.2,12.8-2c-0.1-0.4-0.2-0.8-0.3-1.2c0,0,0,0,0,0c-0.2-0.8-2.2-12.4-2.3-16.3
				c-0.1-4.2,0.4-6.9,1.1-8.6h5.1l-1.4-5.9c-0.1-1.4-0.2-2.7-0.4-3.8c-0.1-1-0.2-1.3-0.4-2.3c0,0,0,0,0,0
				c-13.9,2.1-19.8-2.1-22.2-5.4c-0.8,1.5-3.3,5.1-8.9,6.1c0,0.1,0,0,0,0c-0.5-0.2-1.1-0.2-1.7-0.1c-2.3,0.3-3.9,2.6-3.5,5.1
				c0.1,1.1,0.7,2.1,1.4,2.8l0,0c0,0,0,0,0,0c0.1,0.1,0.9,0.4,1.9,1c0.4,0.2,0.9,0.6,1.4,0.9c0.9,0.6,1.8,1.4,2.7,2.3
				c2.3,2.4,4.4,5.9,4.3,10.8c-0.1,2.9-0.9,6.2-3,10C78.5,187.7,82.7,193.6,91.9,194.4z M97.5,159.3c0.5,0,0.9,0.4,0.9,0.9
				c0,0.5-0.4,0.9-0.9,0.9c-0.5,0-0.9-0.4-0.9-0.9C96.6,159.8,97,159.3,97.5,159.3z"/>
			<path fill="#8D6E63" d="M74.9,155L74.9,155C74.9,154.9,74.9,155,74.9,155z"/>
			<path fill="#FFCC80" d="M73.2,195.5C73.2,195.5,73.2,195.5,73.2,195.5c0,0,0.1-0.1,0.1-0.2C73.3,195.4,73.3,195.4,73.2,195.5z"/>
			<circle fill="#444444" cx="97.6" cy="160.3" r="1"/>
			<path fill="#0097A7" d="M91.9,194.4c-9.2-0.8-13.4-6.7-13.4-6.7c-1.2,2.3-2.9,4.9-5.2,7.6c-0.1,0.1-0.1,0.2-0.2,0.2
				c-0.3,0.4-0.6,0.8-1,1.1c-0.3,0.3-0.6,0.7-0.9,1.2h34.6c-0.4-1.8-0.9-3.7-1.2-5.5C99.7,194.2,95.4,194.7,91.9,194.4z"/>
		</g>
	</g>
	<g>
		<defs>
			<circle id="SVGID_7_" cx="169.8" cy="160.8" r="37.1"/>
		</defs>
		<clipPath id="SVGID_8_">
			<use xlink:href="#SVGID_7_"  overflow="visible"/>
		</clipPath>
		<rect x="132.6" y="123.6" clip-path="url(#SVGID_8_)" fill="#FF80AB" width="74.2" height="74.2"/>
		<g clip-path="url(#SVGID_8_)">
			<path fill="none" d="M164.8,189.1c-0.5,0-1.2-0.1-1.8-0.1C163.6,189,164.3,189.1,164.8,189.1z"/>
			<path fill="none" d="M173.7,143.7c-0.3-0.3-0.5-0.7-0.6-0.9C173.3,143,173.5,143.4,173.7,143.7
				C173.8,143.7,173.7,143.7,173.7,143.7z"/>
			<path fill="#5D4037" d="M182.3,149.1L182.3,149.1C182.3,149.2,182.3,149.1,182.3,149.1z"/>
			<path fill="#5D4037" d="M183.2,130.4c-4.4,0-8.2,2.8-9.5,6.8c-1.6-0.9-3.4-1.5-5.3-1.8c-8.1-1.2-15.6,4.1-18,12.2
				c2.9,0.4,5.5,0.6,7.7,0.6c0.8-0.3,1.7-0.5,2.7-0.5c0.7,0,1.3,0.1,1.9,0.3c5.8-0.8,8.8-3,10.4-5.2c0.1,0.3,0.3,0.6,0.6,0.9
				c0,0,0,0,0,0.1c1.2,1.8,3.8,4.5,8.5,5.3c0-0.1,0,0,0,0c0.5-0.2,1.1-0.2,1.7-0.1c0.9,0.1,1.6,0.5,2.2,1.1c4.1-1.3,7.1-5.1,7.1-9.6
				C193.3,134.9,188.8,130.4,183.2,130.4z"/>
			<path fill="#FFCC80" d="M160.9,160.6c3.2,0,5.9-2.6,5.9-5.9c0-3.2-2.6-5.9-5.9-5.9c-3.2,0-5.9,2.6-5.9,5.9
				C155,158,157.6,160.6,160.9,160.6z M159.9,154.5c0,0.5-0.4,0.9-0.9,0.9c-0.5,0-0.9-0.4-0.9-0.9c0-0.5,0.4-0.9,0.9-0.9
				C159.4,153.6,159.9,154,159.9,154.5z"/>
			<path fill="#FFCC80" d="M153.9,154.2c0.2-2.7,1.9-4.9,4.3-5.9c-2.3,0-4.8-0.2-7.7-0.6c-0.3,1-0.5,2-0.7,3.1
				c-0.2,1.2-0.3,2.6-0.4,4l0-0.5H153.9z"/>
			<path fill="#FFCC80" d="M182.3,149.1L182.3,149.1C182.3,149.1,182.3,149,182.3,149.1z"/>
			<path fill="#FFCC80" d="M182.3,149.1C182.3,149.1,182.3,149.2,182.3,149.1c-4.7-0.9-7.3-3.6-8.5-5.3c-0.3-0.4-0.5-0.7-0.6-1
				c-1.6,2.2-4.6,4.5-10.4,5.2c2.9,0.8,5.1,3.5,5.1,6.7c0,3.9-3.1,7-7,7c-3.7,0-6.7-2.8-7-6.4l-4.7,0l0.2-0.6l-1.5,6.1h5.2
				c0.7,1.7,1.2,4.5,1.1,8.9c-0.1,4-2.3,16-2.4,16.8c0,0,0,0,0,0c-0.1,0.4-0.2,0.8-0.3,1.2c1.5,0.5,2.9,1,4.3,1.3l0,0
				c0.5,0.1,1,0.2,1.5,0.3c2.8,0.5,5.2,0.6,7.4,0.5c9.5-0.8,13.8-6.9,13.8-6.9c-5.7-10.6-2.5-17.5,1.4-21.4c0.9-1,1.9-1.8,2.8-2.4
				c0.5-0.4,1-0.7,1.4-0.9c1.1-0.6,1.8-0.9,2-1c0,0,0,0,0,0l0,0c0.8-0.7,1.3-1.7,1.5-2.9c0.2-1.6-0.4-3.2-1.4-4.1
				c-0.6-0.6-1.4-1-2.2-1.1C183.4,148.9,182.8,148.9,182.3,149.1z M163,189c0.6,0.1,1.2,0.1,1.8,0.1C164.3,189.1,163.6,189,163,189z
				"/>
			<path fill="#FFCC80" d="M184,190.9c0-0.1-0.1-0.1-0.2-0.2C183.9,190.8,184,190.9,184,190.9C184.1,191,184,190.9,184,190.9z"/>
			<circle fill="#444444" cx="159" cy="154.6" r="1"/>
			<path fill="#FFEE58" d="M164.7,189.8c-2.2,0.2-4.7,0.1-7.4-0.5h0c0.8,0.4,1.3,1.3,1.3,2.2c0,1.4-1.1,2.6-2.6,2.6
				c-1.4,0-2.6-1.1-2.6-2.6c0-1.3,1-2.4,2.3-2.5c-1.4-0.3-2.8-0.8-4.3-1.3c-0.7,3.3-1.5,6.7-2.4,10.1h40c-0.8-1.2-1.5-2.2-2.1-3.1
				c-0.6-0.9-1.2-1.6-1.6-2.2c0.1,0.2,0.3,0.3,0.4,0.5c-0.5,0.6-1.2,1-2,1c-1.4,0-2.6-1.1-2.6-2.6c0-1,0.6-1.9,1.5-2.3l0,0
				c-1.7-2.3-3.1-4.4-4.2-6.4C178.5,182.9,174.2,189,164.7,189.8z M169.9,194.1c-1.4,0-2.6-1.1-2.6-2.6c0-1.4,1.1-2.6,2.6-2.6
				c1.4,0,2.6,1.1,2.6,2.6C172.5,193,171.3,194.1,169.9,194.1z"/>
			<path fill="#FFEE58" d="M183.2,189.9c0.2,0.3,0.4,0.5,0.7,0.8C183.7,190.5,183.4,190.2,183.2,189.9z"/>
			<path fill="#F9A825" d="M153.5,191.6c0,1.4,1.1,2.6,2.6,2.6c1.4,0,2.6-1.1,2.6-2.6c0-1-0.5-1.8-1.3-2.2h0c-0.5-0.1-1-0.2-1.5-0.3
				l0,0C154.5,189.2,153.5,190.2,153.5,191.6z"/>
			<circle fill="#F9A825" cx="169.9" cy="191.6" r="2.6"/>
			<path fill="#F9A825" d="M181.2,191.6c0,1.4,1.1,2.6,2.6,2.6c0.8,0,1.5-0.4,2-1c-0.1-0.2-0.3-0.3-0.4-0.5
				c-0.1-0.2-0.2-0.3-0.4-0.4c-0.3-0.4-0.7-0.8-1-1.2c-0.1-0.1-0.1-0.2-0.2-0.2c-0.2-0.3-0.4-0.5-0.7-0.8c-0.2-0.2-0.4-0.5-0.5-0.7
				l0,0C181.8,189.7,181.2,190.5,181.2,191.6z"/>
			<path fill="#DB4437" d="M153.9,155.3c0.3,3.6,3.3,6.4,7,6.4c3.9,0,7-3.1,7-7c0-3.2-2.2-5.9-5.1-6.7c-0.6-0.2-1.2-0.3-1.9-0.3
				c-0.9,0-1.8,0.2-2.7,0.5c-2.4,1-4.1,3.2-4.3,5.9h-4.5l0,0.5l-0.2,0.6L153.9,155.3z M160.9,148.9c3.2,0,5.9,2.6,5.9,5.9
				c0,3.2-2.6,5.9-5.9,5.9c-3.2,0-5.9-2.6-5.9-5.9C155,151.5,157.6,148.9,160.9,148.9z"/>
		</g>
	</g>
</g>
</svg>
