<?xml version="1.0" encoding="utf-8"?>
<!-- Generator: Adobe Illustrator 17.1.0, SVG Export Plug-In . SVG Version: 6.00 Build 0)  -->
<!DOCTYPE svg PUBLIC "-//W3C//DTD SVG 1.1//EN" "http://www.w3.org/Graphics/SVG/1.1/DTD/svg11.dtd">
<svg version="1.1" id="Layer_1" xmlns="http://www.w3.org/2000/svg" xmlns:xlink="http://www.w3.org/1999/xlink" x="0px" y="0px"
	 viewBox="0 0 256 256" enable-background="new 0 0 256 256" xml:space="preserve">
<g>
	<path opacity="0.1" fill="#444444" d="M170.5,189c-4.9,0-9.5,0.3-13.4,0.7c5-2,7.9-4.2,7.9-6.7c0-7.1-24.3-12.9-54.3-12.9
		c-30,0-54.3,5.8-54.3,12.9c0,7.1,24.3,12.9,54.3,12.9c12.5,0,24-1,33.2-2.7c-0.4,0.3-0.6,0.7-0.6,1.1c0,2.9,12.2,5.3,27.2,5.3
		c15,0,27.2-2.4,27.2-5.3C197.7,191.4,185.5,189,170.5,189z"/>
	<g>
		<path fill="#F5F5F5" d="M123.1,113.4V64.9H95.7v48.5h-0.3l-35,57.1c-4.8,11.1,4.5,15.2,12.9,15.2h72c8.4,0,19.5-4.4,12.9-15.2
			L123.1,113.4L123.1,113.4z"/>
		<path fill="#7CB342" d="M140.3,141.4H78.2l-17.9,29.1c-4.8,11.1,4.5,15.2,12.9,15.2h72c8.4,0,19.5-4.4,12.9-15.2L140.3,141.4z"/>
		<path fill="#558B2F" d="M140.3,141.4h-29.7v44.2h34.6c8.4,0,19.5-4.4,12.9-15.2L140.3,141.4z"/>
		<circle opacity="0.2" fill="#FFFFFF" cx="119" cy="175.9" r="4.1"/>
		<circle opacity="0.2" fill="#FFFFFF" cx="120.8" cy="150.9" r="3.5"/>
		<circle opacity="0.2" fill="#FFFFFF" cx="141.3" cy="175.9" r="4.3"/>
		<circle opacity="0.2" fill="#FFFFFF" cx="126.2" cy="166.1" r="2.5"/>
		<path opacity="0.2" fill="#FFFFFF" d="M140.5,152.6c0,1.5-1.2,2.8-2.8,2.8c-1.5,0-2.8-1.2-2.8-2.8c0-1.5,1.2-2.8,2.8-2.8
			C139.3,149.8,140.5,151.1,140.5,152.6z"/>
		<path opacity="0.2" fill="#FFFFFF" d="M97.2,150.8c0-2.7,2.2-4.8,4.8-4.8c2.7,0,4.8,2.2,4.8,4.8c0,2.7-2.2,4.8-4.8,4.8
			C99.3,155.7,97.2,153.5,97.2,150.8z"/>
		<circle opacity="0.2" fill="#FFFFFF" cx="102" cy="175.9" r="3.5"/>
		<circle opacity="0.2" fill="#FFFFFF" cx="79.7" cy="157.5" r="4.3"/>
		<circle opacity="0.2" fill="#FFFFFF" cx="91.6" cy="164.7" r="2.5"/>
		<path opacity="0.2" fill="#FFFFFF" d="M76.9,175.9c0-1.6,1.3-2.9,2.9-2.9c1.6,0,2.9,1.3,2.9,2.9c0,1.6-1.3,2.9-2.9,2.9
			C78.1,178.7,76.9,177.4,76.9,175.9z"/>
		<g>
			<path fill="#F5F5F5" d="M151.2,88.8v88.4c0,12.7,8.6,19.7,19.3,19.7l0,0c10.7,0,19.3-7,19.3-19.7V88.8H151.2z"/>
			<path fill="#E0E0E0" d="M170.4,196.9C170.4,196.9,170.4,196.9,170.4,196.9c10.7,0,19.4-7,19.4-19.7V88.8h-19.4V196.9z"/>
			<path fill="#AFB42B" d="M189.8,123.7v53.5c0,12.7-8.6,19.7-19.3,19.7c-10.7,0-19.3-7-19.3-19.7v-53.5H189.8z"/>
			<rect x="151.3" y="89.5" opacity="0.2" fill="#424242" width="38.5" height="3.2"/>
			<g>
				<path fill="#E1E1E1" d="M149.3,89.5h42.4c2,0,3.6-1.9,3.6-4.2c0-2.4-1.6-4.3-3.6-4.3h-42.4c-2,0-3.6,1.9-3.6,4.3
					C145.7,87.6,147.3,89.5,149.3,89.5z"/>
			</g>
			<path fill="#9E9D24" d="M170.4,196.9C170.4,196.9,170.4,196.9,170.4,196.9c10.7,0,19.4-7,19.4-19.7v-53.5h-19.4V196.9z"/>
			<g>
				<g>
					<rect x="179.5" y="135.1" fill="#646464" width="10.2" height="2.6"/>
				</g>
				<g>
					<rect x="179.5" y="152.1" fill="#646464" width="10.2" height="2.5"/>
				</g>
				<g>
					<rect x="179.5" y="169.1" fill="#646464" width="10.2" height="2.5"/>
				</g>
				<g>
					<rect x="179.5" y="101.1" fill="#646464" width="10.2" height="2.6"/>
				</g>
				<g>
					<rect x="179.5" y="118.1" fill="#646464" width="10.2" height="2.6"/>
				</g>
			</g>
		</g>
		<rect x="95.6" y="64.9" opacity="0.2" fill="#424242" width="27.5" height="3.2"/>
		<g>
			<path fill="#E1E1E1" d="M93.6,64.9H125c2,0,3.6-1.9,3.6-4.2c0-2.4-1.6-4.3-3.6-4.3H93.6c-2,0-3.6,1.9-3.6,4.3
				C90,63,91.6,64.9,93.6,64.9z"/>
		</g>
	</g>
</g>
</svg>
