<svg xmlns="http://www.w3.org/2000/svg" xmlns:xlink="http://www.w3.org/1999/xlink" viewBox="0 0 512 512" enable-background="new 0 0 512 512"><ellipse opacity=".1" fill="#444" enable-background="new" cx="129.9" cy="338.7" rx="40" ry="3.9"/><path fill="#FACB43" d="M169 257.9c0-5.8-4.6-10.4-10.4-10.4-.7 0-1.3.1-1.9.2-6.4-7.8-16-12.8-26.8-12.8-9.1 0-17.4 3.6-23.6 9.4-.9-.3-2-.4-3-.4-5.8 0-10.4 4.6-10.4 10.4 0 3 1.3 5.8 3.4 7.6-.5 2.4-.9 4.9-.9 7.5 0 19 15.5 34.5 34.5 34.5s34.5-15.5 34.5-34.5l-.1-2.7c2.8-2 4.7-5.1 4.7-8.8z"/><path fill="#fff" d="M176.2 252h-92.7c-1.8 0-3.3 1.5-3.3 3.3s1.5 3.3 3.3 3.3h4.8l8.9 80.9h65.3l9-80.9h4.6c1.8 0 3.3-1.5 3.3-3.3s-1.4-3.3-3.2-3.3z"/><path fill="#DB4437" d="M124.3 258.5v80.8h11.1v-80.8zM149.9 258.5l-8.8 80.9h11.3l8.6-80.9zM98.6 258.5l8.7 80.9h11.3l-8.8-80.9z"/><path opacity=".1" fill="#212121" enable-background="new" d="M171 262.3h-82.4l-.3-3.8h83.1zM80.2 255.4c0 1.8 1.5 3.3 3.3 3.3h4.8l4.2 37.5 78.5-33.7.7-3.8h4.5c1.8 0 3.3-1.5 3.3-3.3h-99.3z"/><ellipse opacity=".1" fill="#212121" enable-background="new" cx="253.3" cy="337.2" rx="77.8" ry="10.7"/><ellipse opacity=".1" fill="#212121" enable-background="new" cx="394.7" cy="334.4" rx="31.9" ry="6.3"/><ellipse opacity=".1" fill="#212121" enable-background="new" cx="338.9" cy="352.9" rx="39.4" ry="6.3"/><ellipse opacity=".1" fill="#212121" enable-background="new" cx="171.1" cy="365.3" rx="48.9" ry="6.3"/><defs><circle id="a" cx="383.7" cy="296.3" r="40.8"/></defs><clipPath id="b"><use xlink:href="#a" overflow="visible"/></clipPath><circle clip-path="url(#b)" fill="#fff" cx="383.7" cy="296.3" r="40.8"/><defs><circle id="c" cx="383.7" cy="296.3" r="40.8"/></defs><clipPath id="d"><use xlink:href="#c" overflow="visible"/></clipPath><path clip-path="url(#d)" fill="#424242" d="M392.2 285.5l5.3 16.3-13.9 10.1-13.9-10.1 5.3-16.3z"/><defs><circle id="e" cx="383.7" cy="296.3" r="40.8"/></defs><clipPath id="f"><use xlink:href="#e" overflow="visible"/></clipPath><path clip-path="url(#f)" fill="#424242" d="M391.9 340.2l5.3-10.1-13.9-6.2-13.9 6.2 5.3 10.1z"/><defs><circle id="g" cx="383.7" cy="296.3" r="40.8"/></defs><clipPath id="h"><use xlink:href="#g" overflow="visible"/></clipPath><path clip-path="url(#h)" fill="#424242" d="M343.3 316l11 2.8 2.8-14.9-9.3-12-8.5 7.5z"/><defs><circle id="i" cx="383.7" cy="296.3" r="40.8"/></defs><clipPath id="j"><use xlink:href="#i" overflow="visible"/></clipPath><path clip-path="url(#j)" fill="#424242" d="M423.2 315.6l-11.1 2.8-2.8-14.9 9.3-12 8.5 7.5z"/><defs><circle id="k" cx="383.7" cy="296.3" r="40.8"/></defs><clipPath id="l"><use xlink:href="#k" overflow="visible"/></clipPath><path clip-path="url(#l)" fill="#424242" d="M416.1 268.2l-1.8 11.2-14.8-3.3-7.3-13.3 10.2-4.9z"/><defs><circle id="m" cx="383.7" cy="296.3" r="40.8"/></defs><clipPath id="n"><use xlink:href="#m" overflow="visible"/></clipPath><path clip-path="url(#n)" fill="#424242" d="M350 267.8l1.8 11.2 14.8-3.3 7.4-13.3-10.3-4.9z"/><path fill="#F4B400" d="M250.3 390.7c-1.4.1-2.4 1.4-2.3 2.7l1.3 15.1c.1 1.4 1.4 2.4 2.7 2.3l51.7-4.5c1.4-.1 2.4-1.4 2.3-2.7l-1.3-15.1c-.1-1.4-1.4-2.4-2.7-2.3l-51.7 4.5z"/><path fill="#E57368" d="M300.3 386.4c-1.4.1-2.4 1.4-2.3 2.7l1.3 15.1c.1 1.4 1.4 2.4 2.7 2.3l6.1-.5c1.4-.1 2.4-1.4 2.3-2.7l-1.3-15.1c-.1-1.4-1.4-2.4-2.7-2.3l-6.1.5zM304.474 406.451l-4.981.43-1.746-20.225 4.981-.43z"/><path fill="#F0F0F0" d="M299.87 406.851l-4.683.404-1.744-20.225 4.683-.404z"/><path fill="#FBD199" d="M247.7 390.9l-11.3 11.2 13.1 9z"/><path fill="#4D4D4D" d="M240.6 397.9l-4.2 4.2 4.9 3.4z"/><g fill="#FBD199"><path d="M248 393.5l-.3-2.6 3.8-.3zM252.4 400.7l-3.8.3-.2-2.5zM248.4 398.5l-.2-2.5 3.8-.3zM248 393.5l.2 2.5 3.8-.3zM248.8 403.6l-.2-2.6 3.8-.3zM253.3 410.8l-3.8.3-.2-2.5zM249.3 408.6l-.3-2.5 3.9-.3zM248.8 403.6l.2 2.5 3.9-.3z"/></g><path opacity=".1" fill="#212121" d="M236.4 402.1l73.3-6.3.7 7.6c.1 1.4-.9 2.6-2.3 2.7l-58.6 5-13.1-9z"/><path fill="#00BCD4" d="M238.5 103.2c-19.4-4.4-38.7 7.7-43.1 27.1-4.4 19.4 7.7 38.7 27.1 43.1 8.7 2 17.3.6 24.6-3.2l7.7 8.9-1.8-12.7c6.1-4.9 10.7-11.8 12.6-20.1 4.4-19.4-7.7-38.7-27.1-43.1z"/><path fill="#303F9F" d="M191.7 271.5l-19.5 33.8 19.5 33.8 19.5-33.8z"/><path fill="#3F51B5" d="M308.8 203.9l-19.5 33.8 19.5 33.8 19.5-33.8z"/><path fill="#FF4080" d="M269.8 203.9l-78.1 135.2h39l78.1-135.2z"/><path fill="#536DFE" d="M191.7 203.9l-39 67.6 19.5 33.8 58.5-101.4z"/><path fill="#fff" fill-opacity=".2" d="M269.8 203.9l19.5 33.8 19.5-33.8z"/><path fill="#fff" fill-opacity=".1" d="M250.2 237.7l19.6-33.8 19.5 33.8z"/><path fill="none" d="M250.2 237.7l19.6 33.8 19.5-33.8z"/><path fill-opacity=".1" d="M230.7 271.5l19.5-33.8 19.6 33.8z"/><path fill-opacity=".2" d="M230.7 271.5l19.5 33.8 19.6-33.8z"/><path fill-opacity=".3" d="M211.2 305.3l19.5-33.8 19.5 33.8z"/><path fill-opacity=".4" d="M211.2 305.3l19.5 33.8 19.5-33.8z"/><path fill-opacity=".5" d="M191.7 339.1l19.5-33.8 19.5 33.8z"/><path fill="#fff" fill-opacity=".2" d="M191.7 203.9l19.5 33.8 19.5-33.8z"/><path fill="#fff" fill-opacity=".1" d="M172.2 237.7l19.5-33.8 19.5 33.8z"/><path fill="none" d="M172.2 237.7l19.5 33.8 19.5-33.8z"/><path fill-opacity=".1" d="M152.7 271.5l19.5-33.8 19.5 33.8z"/><path fill-opacity=".2" d="M152.7 271.5l19.5 33.8 19.5-33.8z"/><path fill="none" d="M211.2 305.3l-19.5-33.8-19.5 33.8z"/><path fill-opacity=".2" d="M211.2 305.3l-19.5 33.8-19.5-33.8zM328.3 237.7l-19.5-33.8-19.5 33.8z"/><path fill="none" d="M328.3 237.7l-19.5 33.8-19.5-33.8z"/><path fill="#D4D1C5" d="M206.2 331.6c.9.3 2.8-2.7 3-3.3 1.2-3-.4-6.3.5-9.5.3-.8.7-1.7 1.4-2.1 4.2-2.4 7.7 12.3 6.7 15.1-1.5 4.2-5.2 2.1-11.6-.2z"/><path fill="#E0DED7" d="M189 329.8c-7.2-.8-11-9.4-18.2-10.7-4.5-.9-8.6.1-12.7 1-1.1.4-2.3.5-3.4.6 6.5-5.2 19.5-5.3 22.1-3.4 2.7 1.9 8.2 7.2 19.7 11.8 1.4.6 2.7 1 3.9 1.3-3.7.5-7.8-.1-11.4-.6z"/><path fill="#D4D1C5" d="M154.8 364.3c.4.2-1.1-2.8-.6-2.6-.5-.2 1 2.8.6 2.6zM149.6 362.5c.3.1.7.2 1.1.3-.5-.1-.8-.2-1.1-.3zM221.5 348.4c0-.1.1-.1.2-.2-.1 0-.1.1-.2.2zM221.4 348.6l.1-.2c-.1.1-.1.1-.1.2-.1.3-.6.1-1.4-.2.7.4 1.2.5 1.4.2zM124.3 344.7c-.3.5-.6 1.1-.7 1.7 0-.6.3-1.2.7-1.7z"/><path fill="#C7C4B8" d="M218.8 348c-3.2-1.4-9.1-4-15.6-2.5-.9.2-1.7.5-2.6.8.8-.3 1.7-.6 2.6-.8 6.5-1.5 12.4 1.1 15.6 2.5zM221.7 348.1zM221.5 348.4zM199 347c.5-.3 1.1-.5 1.6-.7-.5.2-1.1.4-1.6.7zM123 348.7c14.6 18.5 27.6 18.3 33.2 17.8 4.2-.3 8.7-.4 12.9-1.1 4.1-.7 8.1-3.2 11.9-4.8l.9-.4c-.3.2-.6.3-.9.4 4.1-1.7 7.9-6.2 12.4-9.8 1-.9 2.1-1.7 3.2-2.4.7-.5 1.5-.9 2.3-1.3.5-.3 1.1-.5 1.6-.7.8-.3 1.7-.6 2.6-.8 3.1-.7 6.2-.5 9.3.2 2.6.6 4.8 2 7.4 2.7.3.1.7.2 1.1.1.7-.1 1.8-2 2.2-1.9-.7-.3-1.3-2.7-2.1-3.3-17.4-12.6-27.8 4.2-43.3 1.5-11.2-1.6-25.5-19.1-36.6-6.2-6.5 5.3-7.1 5.2-14.7 3.6-.4-.1-1.5 1.5-2 2.3-.2.3-.3.4-.3.5-.7 1.1-1.8 2.6-1.1 3.6zm65.6 6.4l1.9-1.8c-.7.6-1.3 1.2-1.9 1.8zm-5.6 4.5c.9-.6 1.9-1.3 2.8-2-1 .7-1.9 1.4-2.8 2z"/><path fill="#D4D1C5" d="M223.2 346.7c-.7-.3-1.3-.7-2.1-1.3-17.4-12.6-27.8 4.2-43.3 1.5-11.2-1.6-25.5-19.1-36.6-6.2-6.5 5.3-7.1 3.2-14.7 1.6 2-2 4.7-3.9 6.1-4.2 2.8-.6 3.5-1.7 5.1-3.1 1.4-1.2 4.2-7.8 9.8-13.6l-2.7 3.5c-9.6-1.7-19.5-20.3-16.5-19.4 3.6 1 6.7 3.8 10.7 5.5 4 1.8 9.6 3.3 15.4 2.4 3.4-.5 7-.5 10.5-.4 4 .1 8.3.2 11.8 2.3l5.5 4.1 4.3 2.8c3.9 2.3 7.9 4.3 12.1 6 13.3 5.3 18.7-.3 21.3 1.7 4.4 3.4.5 6.4 1.7 8.2 1.2 1.8 5.3 2.9 4.4 5.2-.8 2-3.2 3.7-4.2 4.9.3-.5.8-1 1.4-1.5z"/><path fill="#6C695D" d="M209.9 335.4c2.1 1 4.6-.2 5.4-.9-.5-.4-1.2-.8-1.9-1.2-1.4-.8-3.1-1.4-3.9-1.1-.5.2-.9 1.2-.7 2.3.2.3.6.7 1.1.9z"/><path fill="#D4D1C5" d="M112.9 317.5c-2.7 1.6 14 23.4 23.5 22s7.7-13.5 12.3-14.9c4.5-1.4 6.2-1.3 5.4-4-.8-2.6-4.4-1.3-9.7 1.3-5.3 2.7-9.7 2.5-14 2.1-4.1-.5-14.9-8-17.5-6.5z"/><path fill="#939084" d="M165.6 329.8c-4.8.1-8.8 3-9.7 6.9-.1-.5-.2-1-.2-1.6 0-4.6 4.4-8.4 9.8-8.5 5.5-.1 10 3.6 10 8.3 0 .5-.1 1.1-.2 1.6-.8-3.9-4.8-6.8-9.7-6.7z"/><path fill="#6C695D" d="M165.8 343.4c-4.8.1-8.9-2.8-9.8-6.7.8-3.9 4.8-6.8 9.7-6.9 4.8-.1 8.9 2.8 9.8 6.7-.9 3.8-4.9 6.8-9.7 6.9z"/><path fill="#C7C4B8" d="M195.3 356.8c1.2.6 2.7 1.9 4.2 1.7 1.9-.2 2.4-2.1 3.8-3.1.9-.6 2.1-.9 3-.3.6.3 1 .9 1.5 1.4s1.1.9 1.8.8c.9-.2 1.3-1.1 1.7-1.9.9-1.5 2.4-2.6 4-2.9 1.7-.3 3.5.1 4.9 1.1.8.6-4 8.3-4.8 9.1-3.1 3.1-7.6 4.9-11.8 5.6-8.7 1.5-16.6.5-23.8-4.5-.9-.6-1.9-1.3-2.2-2.4-.3-.8-.2-1.7-.3-2.5-.3-1.7-1.5-3.1-1.7-4.7-.3-2.8 2.5-5.3 5.3-5.4 2.8-.2 5.5 1.3 7.7 3.1 2.1 1.6 4.1 3.7 6.7 4.9z"/><path fill="#F1F8E9" d="M226.8 143.1c0-2.1.2-3.7.6-4.9.4-1.2 1.3-2.4 2.5-3.5 1-1 1.8-1.9 2.3-2.7s.7-1.7.7-2.8c0-1.3-.3-2.4-.9-3.1-.6-.7-1.5-1.1-2.6-1.1-1 0-1.9.3-2.6 1-.7.6-1 1.6-1.1 2.9h-6.5c0-3 1-5.2 2.8-6.7s4.3-2.3 7.3-2.3c3.2 0 5.7.8 7.4 2.3s2.6 3.8 2.6 6.7c0 1.8-.4 3.3-1.2 4.5-.8 1.3-2 2.6-3.5 4.2-.8.8-1.4 1.6-1.7 2.4-.3.8-.5 1.8-.5 3.1h-5.6zm-.9 6.5c0-1 .3-1.8 1-2.4.7-.6 1.5-1 2.6-1s2 .3 2.6 1c.7.6 1 1.4 1 2.4s-.3 1.8-1 2.4c-.7.6-1.5.9-2.6.9s-2-.3-2.6-.9c-.7-.7-1-1.5-1-2.4z"/><path fill="#F48159" d="M356.4 213.7h-3.7v-29.2l3.7 1.5zM375.3 205.1h-3.7v-23.5l3.7-3.4z"/><circle fill="#4D4D4D" cx="370.3" cy="204.8" r="5"/><circle fill="#4D4D4D" cx="351.4" cy="213.7" r="5"/><path opacity=".3" fill="#212121" enable-background="new" d="M356.4 202.2l-3.7-6v-1.7l3.7-1.1zM375.3 194.9l-3.7-6v-1.6l3.7.4z"/><path fill="#F9B256" d="M375.3 187.7l-22.6 6.8v-10l22.6-6.8z"/><g><path fill="#E0E0E0" d="M314.6 145.4l7.8-7.3c.2-.2.1-.6-.2-.6l-19.8-2.9c-.3 0-.5 0-.7.2l-2.4 2.2c-.1.1-.2.3-.2.4l.1.3.1.1 14.6 8.1.7-.5z" opacity=".8"/><path fill="#E0E0E0" d="M332.2 166.7l-1.8-23.5c0-.1 0-.2.1-.3l9.3-8.7c1-.9 1.6-2.1 1.7-3.4.2-3.9-4.3-3.5-6.1-1.8l-9.6 9-13.1 12.2-5.9 5.5c-.1.1-.2.1-.3.1l-6.3-.8c-.2 0-.5 0-.6.2l-.8.8c-.1.1-.2.2-.1.4 0 .1.1.2.1.2l.1.1 7.4 4c.1 0 .1.1.2.2l3.5 7.7s0 .1.1.1c.1.1.1.1.2.1s.3 0 .4-.1l.8-.8c.2-.2.3-.4.3-.6l-.4-6.3c0-.1 0-.2.1-.3l8.9-8.3c.2-.2.5-.1.6.1l7.8 16.9c0 .1.1.1.1.1l.3.2c.2 0 .3 0 .4-.1l2.4-2.2c.1-.2.2-.5.2-.7z"/></g><ellipse fill="#F6BF26" cx="145.6" cy="369.9" rx="4.6" ry="4.6"/><ellipse fill="#F6BF26" cx="144.5" cy="365.8" rx="3.2" ry="3.2"/><ellipse fill="#F6BF26" cx="141.3" cy="370.6" rx="3.2" ry="3.2"/><ellipse fill="#F6BF26" cx="68.9" cy="344.7" rx="4.6" ry="4.6"/><ellipse fill="#F6BF26" cx="66.8" cy="348.3" rx="3.2" ry="3.2"/><ellipse fill="#F6BF26" cx="72.4" cy="347.2" rx="3.2" ry="3.2"/><path opacity=".1" fill="#212121" enable-background="new" d="M249.5 411.1l2.5 1.7 61.3-1.7-4.5-5.3"/><path fill="#7986CB" d="M328.3 237.7l-58.5 101.4h39l39-67.6z"/><g fill="#fff"><path fill-opacity=".2" d="M308.8 271.5l19.5-33.8 19.5 33.8z"/><path fill-opacity=".1" d="M308.8 271.5l19.5 33.8 19.5-33.8z"/></g><path fill="none" d="M289.3 305.3l19.5-33.8 19.5 33.8z"/><path fill-opacity=".1" d="M289.3 305.3l19.5 33.8 19.5-33.8z"/><path fill-opacity=".2" d="M269.8 339.1l19.5-33.8 19.5 33.8z"/><path fill="#F5F5F5" d="M348 299.8v-35.7h-20.1v35.7h-.2l-25.7 42c-3.5 8.2 3.3 11.2 9.5 11.2h52.9c6.2 0 14.3-3.2 9.5-11.2l-25.9-42z"/><path fill="#7CB342" d="M360.6 320.4h-45.6l-13.2 21.4c-3.5 8.2 3.3 11.2 9.5 11.2h52.9c6.2 0 14.3-3.2 9.5-11.2l-13.1-21.4z"/><path fill="#558B2F" d="M360.6 320.4h-21.8v32.5h25.4c6.2 0 14.3-3.2 9.5-11.2l-13.1-21.3z"/><circle opacity=".2" fill="#fff" enable-background="new" cx="345" cy="345.8" r="3"/><circle opacity=".2" fill="#fff" enable-background="new" cx="346.3" cy="327.4" r="2.6"/><circle opacity=".2" fill="#fff" enable-background="new" cx="361.4" cy="345.8" r="3.2"/><circle opacity=".2" fill="#fff" enable-background="new" cx="350.3" cy="338.6" r="1.8"/><path opacity=".2" fill="#fff" enable-background="new" d="M360.8 328.7c0 1.1-.9 2.1-2.1 2.1-1.1 0-2.1-.9-2.1-2.1 0-1.1.9-2.1 2.1-2.1s2.1 1 2.1 2.1zM328.9 327.3c0-2 1.6-3.5 3.5-3.5 2 0 3.5 1.6 3.5 3.5 0 2-1.6 3.5-3.5 3.5-1.9.1-3.5-1.5-3.5-3.5z"/><circle opacity=".2" fill="#fff" enable-background="new" cx="332.5" cy="345.8" r="2.6"/><circle opacity=".2" fill="#fff" enable-background="new" cx="316.1" cy="332.3" r="3.2"/><circle opacity=".2" fill="#fff" enable-background="new" cx="324.8" cy="337.6" r="1.8"/><path opacity=".2" fill="#fff" enable-background="new" d="M314 345.8c0-1.2 1-2.1 2.1-2.1s2.1 1 2.1 2.1c0 1.2-1 2.1-2.1 2.1-1.2 0-2.1-1-2.1-2.1z"/><path opacity=".2" fill="#424242" enable-background="new" d="M327.8 264.2h20.2v2.4h-20.2z"/><path fill="#E1E1E1" d="M326.3 264.2h23.1c1.5 0 2.6-1.4 2.6-3.1 0-1.8-1.2-3.2-2.6-3.2h-23.1c-1.5 0-2.6 1.4-2.6 3.2-.1 1.7 1.1 3.1 2.6 3.1z"/><path fill="none" d="M0 0h512v512h-512z"/></svg>