<?xml version="1.0" encoding="utf-8"?>
<!-- Generator: Adobe Illustrator 17.1.0, SVG Export Plug-In . SVG Version: 6.00 Build 0)  -->
<!DOCTYPE svg PUBLIC "-//W3C//DTD SVG 1.1//EN" "http://www.w3.org/Graphics/SVG/1.1/DTD/svg11.dtd">
<svg version="1.1" id="Layer_1" xmlns="http://www.w3.org/2000/svg" xmlns:xlink="http://www.w3.org/1999/xlink" x="0px" y="0px"
	 viewBox="0 0 512 640" enable-background="new 0 0 512 640" xml:space="preserve">
<g>
	<path fill="#E1E1E1" d="M254.3,385.7v-75.5h-6.3v75.5c0,19-13.9,26.8-32.8,26.8h71.9C268.2,412.5,254.3,404.6,254.3,385.7z"/>
	<linearGradient id="SVGID_1_" gradientUnits="userSpaceOnUse" x1="215.2601" y1="361.3459" x2="287.1635" y2="361.3459">
		<stop  offset="0" style="stop-color:#FFFFFF"/>
		<stop  offset="1" style="stop-color:#000000"/>
	</linearGradient>
	<path opacity="0.2" fill="url(#SVGID_1_)" d="M254.3,385.7v-75.5h-6.3v75.5c0,19-13.9,26.8-32.8,26.8h71.9
		C268.2,412.5,254.3,404.6,254.3,385.7z"/>
</g>
<rect x="215.3" y="412.4" fill="#E1E1E1" width="71.9" height="5.5"/>
<path fill="#FEF6E0" d="M186.3,273.8v45v8.5v6.5c20.7,0,20.7,6,41.5,6c20.7,0,20.7-6,41.5-6c20.7,0,20.7,6,41.5,6v-12.5v-8.5v-45
	H186.3z"/>
<polyline opacity="0.2" fill="#C2C2C2" points="214.6,273.8 252.3,312.9 290.3,273.8 212.2,273.8 "/>
<path fill="#A1887F" d="M411.7,320.4c0,1.4-1.1,2.5-2.5,2.5h-72.2c-1.4,0-2.5-1.1-2.5-2.5l0,0c0-1.4,1.1-2.5,2.5-2.5h72.2
	C410.6,317.9,411.7,319,411.7,320.4L411.7,320.4z"/>
<rect x="334.6" y="313.5" fill="#A1887F" width="77.1" height="6.9"/>
<polygon fill="#A1887F" points="337.1,322.9 341,418 346,418 347.5,322.9 "/>
<polygon fill="#A1887F" points="407.6,322.9 424,418 419.1,418 397.1,322.9 "/>
<path fill="none" stroke="#A1887F" stroke-width="5" stroke-miterlimit="10" d="M402.2,314.7c-5-40.9,10-51.7,16.7-80.3"/>
<path fill="#A1887F" d="M93.1,320.4c0,1.4,1.1,2.5,2.5,2.5h72.2c1.4,0,2.5-1.1,2.5-2.5l0,0c0-1.4-1.1-2.5-2.5-2.5H95.6
	C94.2,317.9,93.1,319,93.1,320.4L93.1,320.4z"/>
<rect x="93.1" y="313.5" fill="#A1887F" width="77.1" height="6.9"/>
<polygon fill="#A1887F" points="167.7,322.9 163.8,418 158.8,418 157.3,322.9 "/>
<polygon fill="#A1887F" points="97.2,322.9 80.8,418 85.7,418 107.7,322.9 "/>
<path fill="none" stroke="#A1887F" stroke-width="5" stroke-miterlimit="10" d="M102.7,314.7c5-40.9-8.2-51.7-14.9-80.3"/>
<path fill="#00796B" d="M247.7,212.7L247.7,212.7c-3.6-4.7-4.8-9.1-5.1-12.2v-10.6h-9.8v12.3c-0.4,3.2-1.7,7.1-5.1,10.5
	c-0.3,0.3-0.6,0.6-1,0.9c-0.1,0-0.1,0.1-0.1,0.1l0,0c-2.5,2.7-4.1,6.3-4.1,10.3v49.7h30.3v-49.7
	C252.9,219.6,250.9,215.5,247.7,212.7z"/>
<rect x="229.6" y="221.6" fill="#F8BBD0" width="23.3" height="38.5"/>
<rect x="229.6" y="221.6" fill="#F06292" width="23.3" height="4.9"/>
<rect x="229.6" y="231.2" fill="#F06292" width="23.3" height="4.9"/>
<rect x="229.6" y="240.8" fill="#F06292" width="23.3" height="4.9"/>
<rect x="229.6" y="250.4" fill="#F06292" width="23.3" height="4.9"/>
<rect x="229.6" y="260" fill="#F06292" width="23.3" height="4.9"/>
<path opacity="0.5" fill="none" stroke="#F2F2F2" stroke-miterlimit="10" d="M238.6,193.9c0,0-0.1,4.6,0,8.3
	c0.1,3.8,2,10.6,6.3,14.4c5.5,4.8,3.7,19.2,3.7,19.2"/>
<rect x="232.9" y="174.8" fill="#FCEE21" width="9.8" height="15.1"/>
<circle fill="#F2F2F2" cx="255.9" cy="240.8" r="1.3"/>
<linearGradient id="SVGID_2_" gradientUnits="userSpaceOnUse" x1="236.9158" y1="231.8707" x2="252.8725" y2="231.8707">
	<stop  offset="0" style="stop-color:#FFFFFF"/>
	<stop  offset="1" style="stop-color:#000000"/>
</linearGradient>
<path opacity="0.2" fill="url(#SVGID_2_)" d="M242.6,189.9v10.6c0.3,3.1,1.5,7.5,5.1,12.2l0,0c3.2,2.8,5.2,6.8,5.2,11.4v49.7h-16
	v-83.9H242.6z"/>
<path fill="#1DE9B6" d="M258.8,259.1V244h-5.7v15.1c-3.8,2-6.6,7.9-6.6,14.9h18.9C265.4,267,262.6,261.1,258.8,259.1z"/>
<linearGradient id="SVGID_3_" gradientUnits="userSpaceOnUse" x1="185.0658" y1="338.5887" x2="149.6238" y2="321.0509">
	<stop  offset="0.4098" style="stop-color:#FFFFFF"/>
	<stop  offset="1" style="stop-color:#000000"/>
</linearGradient>
<polygon opacity="0.2" fill="url(#SVGID_3_)" points="157.3,322.9 167.7,322.9 167.5,337 "/>
<linearGradient id="SVGID_4_" gradientUnits="userSpaceOnUse" x1="119.4237" y1="336.5685" x2="91.8729" y2="322.9355">
	<stop  offset="0.4098" style="stop-color:#FFFFFF"/>
	<stop  offset="1" style="stop-color:#000000"/>
</linearGradient>
<polygon opacity="0.2" fill="url(#SVGID_4_)" points="98.5,322.9 107.7,322.9 104.8,337.2 "/>
<linearGradient id="SVGID_5_" gradientUnits="userSpaceOnUse" x1="425.0919" y1="338.5883" x2="389.6509" y2="321.0511">
	<stop  offset="0.4098" style="stop-color:#FFFFFF"/>
	<stop  offset="1" style="stop-color:#000000"/>
</linearGradient>
<polygon opacity="0.2" fill="url(#SVGID_5_)" points="397.3,322.9 407.8,322.9 407.5,337 "/>
<linearGradient id="SVGID_6_" gradientUnits="userSpaceOnUse" x1="359.4507" y1="336.5687" x2="331.8986" y2="322.9352">
	<stop  offset="0.4098" style="stop-color:#FFFFFF"/>
	<stop  offset="1" style="stop-color:#000000"/>
</linearGradient>
<polygon opacity="0.2" fill="url(#SVGID_6_)" points="338.6,322.9 347.7,322.9 344.9,337.2 "/>
<g>
	<defs>
		<path id="SVGID_7_" d="M258.8,259.1V244h-5.7v15.1c-3.8,2-6.6,7.9-6.6,14.9h18.9C265.4,267,262.6,261.1,258.8,259.1z"/>
	</defs>
	<clipPath id="SVGID_8_">
		<use xlink:href="#SVGID_7_"  overflow="visible"/>
	</clipPath>
	<g clip-path="url(#SVGID_8_)">
		<circle fill="#1DE9B6" cx="256.4" cy="249.5" r="0.4"/>
		<circle fill="#1DE9B6" cx="269.9" cy="249.5" r="0.4"/>
		<circle fill="#1DE9B6" cx="268.2" cy="249.5" r="0.4"/>
		<circle fill="#1DE9B6" cx="266.5" cy="249.5" r="0.4"/>
		<circle fill="#1DE9B6" cx="264.8" cy="249.5" r="0.4"/>
		<circle fill="#1DE9B6" cx="263.1" cy="249.5" r="0.4"/>
		<circle fill="#1DE9B6" cx="261.5" cy="249.5" r="0.4"/>
		<circle fill="#1DE9B6" cx="259.8" cy="249.5" r="0.4"/>
		<circle fill="#1DE9B6" cx="258.1" cy="249.5" r="0.4"/>
		<circle fill="#1DE9B6" cx="268.6" cy="247.9" r="0.4"/>
		<path fill="#1DE9B6" d="M267.4,247.9c0,0.2-0.2,0.4-0.4,0.4c-0.2,0-0.4-0.2-0.4-0.4c0-0.2,0.2-0.4,0.4-0.4
			C267.2,247.5,267.4,247.7,267.4,247.9z"/>
		<circle fill="#1DE9B6" cx="265.2" cy="247.9" r="0.4"/>
		<circle fill="#1DE9B6" cx="263.5" cy="247.9" r="0.4"/>
		<circle fill="#1DE9B6" cx="261.9" cy="247.9" r="0.4"/>
		<circle fill="#1DE9B6" cx="260.2" cy="247.9" r="0.4"/>
		<circle fill="#1DE9B6" cx="258.5" cy="247.9" r="0.4"/>
		<circle fill="#1DE9B6" cx="256.8" cy="247.9" r="0.4"/>
		<path fill="#1DE9B6" d="M256.8,252.6c0,0.2-0.2,0.4-0.4,0.4c-0.2,0-0.4-0.2-0.4-0.4c0-0.2,0.2-0.4,0.4-0.4
			C256.6,252.2,256.8,252.4,256.8,252.6z"/>
		<path fill="#1DE9B6" d="M270.3,252.6c0,0.2-0.2,0.4-0.4,0.4c-0.2,0-0.4-0.2-0.4-0.4c0-0.2,0.2-0.4,0.4-0.4
			C270.1,252.2,270.3,252.4,270.3,252.6z"/>
		<path fill="#1DE9B6" d="M268.6,252.6c0,0.2-0.2,0.4-0.4,0.4c-0.2,0-0.4-0.2-0.4-0.4c0-0.2,0.2-0.4,0.4-0.4
			C268.4,252.2,268.6,252.4,268.6,252.6z"/>
		<path fill="#1DE9B6" d="M267,252.6c0,0.2-0.2,0.4-0.4,0.4c-0.2,0-0.4-0.2-0.4-0.4c0-0.2,0.2-0.4,0.4-0.4
			C266.8,252.2,267,252.4,267,252.6z"/>
		<path fill="#1DE9B6" d="M265.3,252.6c0,0.2-0.2,0.4-0.4,0.4c-0.2,0-0.4-0.2-0.4-0.4c0-0.2,0.2-0.4,0.4-0.4
			C265.1,252.2,265.3,252.4,265.3,252.6z"/>
		<path fill="#1DE9B6" d="M263.6,252.6c0,0.2-0.2,0.4-0.4,0.4s-0.4-0.2-0.4-0.4c0-0.2,0.2-0.4,0.4-0.4S263.6,252.4,263.6,252.6z"/>
		<path fill="#1DE9B6" d="M261.9,252.6c0,0.2-0.2,0.4-0.4,0.4c-0.2,0-0.4-0.2-0.4-0.4c0-0.2,0.2-0.4,0.4-0.4
			C261.7,252.2,261.9,252.4,261.9,252.6z"/>
		<path fill="#1DE9B6" d="M260.2,252.6c0,0.2-0.2,0.4-0.4,0.4c-0.2,0-0.4-0.2-0.4-0.4c0-0.2,0.2-0.4,0.4-0.4
			C260,252.2,260.2,252.4,260.2,252.6z"/>
		<path fill="#1DE9B6" d="M258.5,252.6c0,0.2-0.2,0.4-0.4,0.4c-0.2,0-0.4-0.2-0.4-0.4c0-0.2,0.2-0.4,0.4-0.4
			C258.3,252.2,258.5,252.4,258.5,252.6z"/>
		<path fill="#1DE9B6" d="M269,251.1c0,0.2-0.2,0.4-0.4,0.4c-0.2,0-0.4-0.2-0.4-0.4c0-0.2,0.2-0.4,0.4-0.4
			C268.8,250.6,269,250.8,269,251.1z"/>
		<path fill="#1DE9B6" d="M267.4,251.1c0,0.2-0.2,0.4-0.4,0.4c-0.2,0-0.4-0.2-0.4-0.4c0-0.2,0.2-0.4,0.4-0.4
			C267.2,250.6,267.4,250.8,267.4,251.1z"/>
		<path fill="#1DE9B6" d="M265.7,251.1c0,0.2-0.2,0.4-0.4,0.4c-0.2,0-0.4-0.2-0.4-0.4c0-0.2,0.2-0.4,0.4-0.4
			C265.5,250.6,265.7,250.8,265.7,251.1z"/>
		<path fill="#1DE9B6" d="M264,251.1c0,0.2-0.2,0.4-0.4,0.4c-0.2,0-0.4-0.2-0.4-0.4c0-0.2,0.2-0.4,0.4-0.4
			C263.8,250.6,264,250.8,264,251.1z"/>
		<path fill="#1DE9B6" d="M262.3,251.1c0,0.2-0.2,0.4-0.4,0.4c-0.2,0-0.4-0.2-0.4-0.4c0-0.2,0.2-0.4,0.4-0.4
			C262.1,250.6,262.3,250.8,262.3,251.1z"/>
		<path fill="#1DE9B6" d="M260.6,251.1c0,0.2-0.2,0.4-0.4,0.4c-0.2,0-0.4-0.2-0.4-0.4c0-0.2,0.2-0.4,0.4-0.4
			C260.4,250.6,260.6,250.8,260.6,251.1z"/>
		<path fill="#1DE9B6" d="M258.9,251.1c0,0.2-0.2,0.4-0.4,0.4c-0.2,0-0.4-0.2-0.4-0.4c0-0.2,0.2-0.4,0.4-0.4
			C258.7,250.6,258.9,250.8,258.9,251.1z"/>
		<path fill="#1DE9B6" d="M257.3,251.1c0,0.2-0.2,0.4-0.4,0.4c-0.2,0-0.4-0.2-0.4-0.4c0-0.2,0.2-0.4,0.4-0.4
			C257.1,250.6,257.3,250.8,257.3,251.1z"/>
		<circle fill="#1DE9B6" cx="256.4" cy="255.8" r="0.4"/>
		<circle fill="#1DE9B6" cx="269.9" cy="255.8" r="0.4"/>
		<circle fill="#1DE9B6" cx="268.2" cy="255.8" r="0.4"/>
		<circle fill="#1DE9B6" cx="266.5" cy="255.8" r="0.4"/>
		<circle fill="#1DE9B6" cx="264.8" cy="255.8" r="0.4"/>
		<circle fill="#1DE9B6" cx="263.1" cy="255.8" r="0.4"/>
		<circle fill="#1DE9B6" cx="261.5" cy="255.8" r="0.4"/>
		<circle fill="#1DE9B6" cx="259.8" cy="255.8" r="0.4"/>
		<circle fill="#1DE9B6" cx="258.1" cy="255.8" r="0.4"/>
		<circle fill="#1DE9B6" cx="268.6" cy="254.2" r="0.4"/>
		<path fill="#1DE9B6" d="M267.4,254.2c0,0.2-0.2,0.4-0.4,0.4c-0.2,0-0.4-0.2-0.4-0.4c0-0.2,0.2-0.4,0.4-0.4
			C267.2,253.7,267.4,253.9,267.4,254.2z"/>
		<circle fill="#1DE9B6" cx="265.2" cy="254.2" r="0.4"/>
		<circle fill="#1DE9B6" cx="263.5" cy="254.2" r="0.4"/>
		<circle fill="#1DE9B6" cx="261.9" cy="254.2" r="0.4"/>
		<circle fill="#1DE9B6" cx="260.2" cy="254.2" r="0.4"/>
		<circle fill="#1DE9B6" cx="258.5" cy="254.2" r="0.4"/>
		<circle fill="#1DE9B6" cx="256.8" cy="254.2" r="0.4"/>
		<path fill="#1DE9B6" d="M256.8,258.9c0,0.2-0.2,0.4-0.4,0.4c-0.2,0-0.4-0.2-0.4-0.4c0-0.2,0.2-0.4,0.4-0.4
			C256.6,258.4,256.8,258.6,256.8,258.9z"/>
		<path fill="#1DE9B6" d="M270.3,258.9c0,0.2-0.2,0.4-0.4,0.4c-0.2,0-0.4-0.2-0.4-0.4c0-0.2,0.2-0.4,0.4-0.4
			C270.1,258.4,270.3,258.6,270.3,258.9z"/>
		<path fill="#1DE9B6" d="M268.6,258.9c0,0.2-0.2,0.4-0.4,0.4c-0.2,0-0.4-0.2-0.4-0.4c0-0.2,0.2-0.4,0.4-0.4
			C268.4,258.4,268.6,258.6,268.6,258.9z"/>
		<path fill="#1DE9B6" d="M267,258.9c0,0.2-0.2,0.4-0.4,0.4c-0.2,0-0.4-0.2-0.4-0.4c0-0.2,0.2-0.4,0.4-0.4
			C266.8,258.4,267,258.6,267,258.9z"/>
		<path fill="#1DE9B6" d="M265.3,258.9c0,0.2-0.2,0.4-0.4,0.4c-0.2,0-0.4-0.2-0.4-0.4c0-0.2,0.2-0.4,0.4-0.4
			C265.1,258.4,265.3,258.6,265.3,258.9z"/>
		<path fill="#1DE9B6" d="M263.6,258.9c0,0.2-0.2,0.4-0.4,0.4s-0.4-0.2-0.4-0.4c0-0.2,0.2-0.4,0.4-0.4S263.6,258.6,263.6,258.9z"/>
		<path fill="#1DE9B6" d="M261.9,258.9c0,0.2-0.2,0.4-0.4,0.4c-0.2,0-0.4-0.2-0.4-0.4c0-0.2,0.2-0.4,0.4-0.4
			C261.7,258.4,261.9,258.6,261.9,258.9z"/>
		<path fill="#1DE9B6" d="M260.2,258.9c0,0.2-0.2,0.4-0.4,0.4c-0.2,0-0.4-0.2-0.4-0.4c0-0.2,0.2-0.4,0.4-0.4
			C260,258.4,260.2,258.6,260.2,258.9z"/>
		<path fill="#1DE9B6" d="M258.5,258.9c0,0.2-0.2,0.4-0.4,0.4c-0.2,0-0.4-0.2-0.4-0.4c0-0.2,0.2-0.4,0.4-0.4
			C258.3,258.4,258.5,258.6,258.5,258.9z"/>
		<circle fill="#1DE9B6" cx="268.6" cy="257.3" r="0.4"/>
		<path fill="#1DE9B6" d="M267.4,257.3c0,0.2-0.2,0.4-0.4,0.4c-0.2,0-0.4-0.2-0.4-0.4c0-0.2,0.2-0.4,0.4-0.4
			C267.2,256.8,267.4,257,267.4,257.3z"/>
		<circle fill="#1DE9B6" cx="265.2" cy="257.3" r="0.4"/>
		<circle fill="#1DE9B6" cx="263.5" cy="257.3" r="0.4"/>
		<circle fill="#1DE9B6" cx="261.9" cy="257.3" r="0.4"/>
		<circle fill="#1DE9B6" cx="260.2" cy="257.3" r="0.4"/>
		<circle fill="#1DE9B6" cx="258.5" cy="257.3" r="0.4"/>
		<circle fill="#1DE9B6" cx="256.8" cy="257.3" r="0.4"/>
		<circle fill="#1DE9B6" cx="269.9" cy="262" r="0.4"/>
		<circle fill="#1DE9B6" cx="268.2" cy="262" r="0.4"/>
		<circle fill="#1DE9B6" cx="266.5" cy="262" r="0.4"/>
		<circle fill="#1DE9B6" cx="264.8" cy="262" r="0.4"/>
		<circle fill="#1DE9B6" cx="263.1" cy="262" r="0.4"/>
		<circle fill="#1DE9B6" cx="261.5" cy="262" r="0.4"/>
		<circle fill="#1DE9B6" cx="259.8" cy="262" r="0.4"/>
		<circle fill="#1DE9B6" cx="258.1" cy="262" r="0.4"/>
		<circle fill="#1DE9B6" cx="268.6" cy="260.4" r="0.4"/>
		<path fill="#1DE9B6" d="M267.4,260.4c0,0.2-0.2,0.4-0.4,0.4c-0.2,0-0.4-0.2-0.4-0.4c0-0.2,0.2-0.4,0.4-0.4
			C267.2,260,267.4,260.2,267.4,260.4z"/>
		<circle fill="#1DE9B6" cx="265.2" cy="260.4" r="0.4"/>
		<circle fill="#1DE9B6" cx="263.5" cy="260.4" r="0.4"/>
		<circle fill="#1DE9B6" cx="261.9" cy="260.4" r="0.4"/>
		<circle fill="#1DE9B6" cx="260.2" cy="260.4" r="0.4"/>
		<circle fill="#1DE9B6" cx="258.5" cy="260.4" r="0.4"/>
		<path fill="#1DE9B6" d="M270.3,265.3c0,0.2-0.2,0.4-0.4,0.4c-0.2,0-0.4-0.2-0.4-0.4c0-0.2,0.2-0.4,0.4-0.4
			C270.1,264.9,270.3,265.1,270.3,265.3z"/>
		<path fill="#1DE9B6" d="M268.6,265.3c0,0.2-0.2,0.4-0.4,0.4c-0.2,0-0.4-0.2-0.4-0.4c0-0.2,0.2-0.4,0.4-0.4
			C268.4,264.9,268.6,265.1,268.6,265.3z"/>
		<path fill="#1DE9B6" d="M267,265.3c0,0.2-0.2,0.4-0.4,0.4c-0.2,0-0.4-0.2-0.4-0.4c0-0.2,0.2-0.4,0.4-0.4
			C266.8,264.9,267,265.1,267,265.3z"/>
		<path fill="#1DE9B6" d="M265.3,265.3c0,0.2-0.2,0.4-0.4,0.4c-0.2,0-0.4-0.2-0.4-0.4c0-0.2,0.2-0.4,0.4-0.4
			C265.1,264.9,265.3,265.1,265.3,265.3z"/>
		<path fill="#1DE9B6" d="M263.6,265.3c0,0.2-0.2,0.4-0.4,0.4s-0.4-0.2-0.4-0.4c0-0.2,0.2-0.4,0.4-0.4S263.6,265.1,263.6,265.3z"/>
		<path fill="#1DE9B6" d="M261.9,265.3c0,0.2-0.2,0.4-0.4,0.4c-0.2,0-0.4-0.2-0.4-0.4c0-0.2,0.2-0.4,0.4-0.4
			C261.7,264.9,261.9,265.1,261.9,265.3z"/>
		<path fill="#1DE9B6" d="M260.2,265.3c0,0.2-0.2,0.4-0.4,0.4c-0.2,0-0.4-0.2-0.4-0.4c0-0.2,0.2-0.4,0.4-0.4
			C260,264.9,260.2,265.1,260.2,265.3z"/>
		<circle fill="#1DE9B6" cx="268.6" cy="263.8" r="0.4"/>
		<path fill="#1DE9B6" d="M267.4,263.8c0,0.2-0.2,0.4-0.4,0.4c-0.2,0-0.4-0.2-0.4-0.4c0-0.2,0.2-0.4,0.4-0.4
			C267.2,263.3,267.4,263.5,267.4,263.8z"/>
		<circle fill="#1DE9B6" cx="265.2" cy="263.8" r="0.4"/>
		<circle fill="#1DE9B6" cx="263.5" cy="263.8" r="0.4"/>
		<circle fill="#1DE9B6" cx="261.9" cy="263.8" r="0.4"/>
		<circle fill="#1DE9B6" cx="260.2" cy="263.8" r="0.4"/>
		<circle fill="#1DE9B6" cx="258.5" cy="263.8" r="0.4"/>
		<circle fill="#1DE9B6" cx="269.9" cy="268.5" r="0.4"/>
		<circle fill="#1DE9B6" cx="268.2" cy="268.5" r="0.4"/>
		<circle fill="#1DE9B6" cx="266.5" cy="268.5" r="0.4"/>
		<circle fill="#1DE9B6" cx="264.8" cy="268.5" r="0.4"/>
		<circle fill="#1DE9B6" cx="263.1" cy="268.5" r="0.4"/>
		<circle fill="#1DE9B6" cx="261.5" cy="268.5" r="0.4"/>
		<circle fill="#1DE9B6" cx="259.8" cy="268.5" r="0.4"/>
		<circle fill="#1DE9B6" cx="268.6" cy="266.9" r="0.4"/>
		<path fill="#1DE9B6" d="M267.4,266.9c0,0.2-0.2,0.4-0.4,0.4c-0.2,0-0.4-0.2-0.4-0.4c0-0.2,0.2-0.4,0.4-0.4
			C267.2,266.4,267.4,266.6,267.4,266.9z"/>
		<circle fill="#1DE9B6" cx="265.2" cy="266.9" r="0.4"/>
		<circle fill="#1DE9B6" cx="263.5" cy="266.9" r="0.4"/>
		<circle fill="#1DE9B6" cx="261.9" cy="266.9" r="0.4"/>
		<circle fill="#1DE9B6" cx="260.2" cy="266.9" r="0.4"/>
		<circle fill="#1DE9B6" cx="258.5" cy="266.9" r="0.4"/>
		<path fill="#1DE9B6" d="M270.3,271.6c0,0.2-0.2,0.4-0.4,0.4c-0.2,0-0.4-0.2-0.4-0.4c0-0.2,0.2-0.4,0.4-0.4
			C270.1,271.1,270.3,271.3,270.3,271.6z"/>
		<path fill="#1DE9B6" d="M268.6,271.6c0,0.2-0.2,0.4-0.4,0.4c-0.2,0-0.4-0.2-0.4-0.4c0-0.2,0.2-0.4,0.4-0.4
			C268.4,271.1,268.6,271.3,268.6,271.6z"/>
		<path fill="#1DE9B6" d="M267,271.6c0,0.2-0.2,0.4-0.4,0.4c-0.2,0-0.4-0.2-0.4-0.4c0-0.2,0.2-0.4,0.4-0.4
			C266.8,271.1,267,271.3,267,271.6z"/>
		<path fill="#1DE9B6" d="M265.3,271.6c0,0.2-0.2,0.4-0.4,0.4c-0.2,0-0.4-0.2-0.4-0.4c0-0.2,0.2-0.4,0.4-0.4
			C265.1,271.1,265.3,271.3,265.3,271.6z"/>
		<path fill="#1DE9B6" d="M263.6,271.6c0,0.2-0.2,0.4-0.4,0.4s-0.4-0.2-0.4-0.4c0-0.2,0.2-0.4,0.4-0.4S263.6,271.3,263.6,271.6z"/>
		<path fill="#1DE9B6" d="M261.9,271.6c0,0.2-0.2,0.4-0.4,0.4c-0.2,0-0.4-0.2-0.4-0.4c0-0.2,0.2-0.4,0.4-0.4
			C261.7,271.1,261.9,271.3,261.9,271.6z"/>
		<path fill="#1DE9B6" d="M260.2,271.6c0,0.2-0.2,0.4-0.4,0.4c-0.2,0-0.4-0.2-0.4-0.4c0-0.2,0.2-0.4,0.4-0.4
			C260,271.1,260.2,271.3,260.2,271.6z"/>
		<circle fill="#1DE9B6" cx="268.6" cy="270" r="0.4"/>
		<path fill="#1DE9B6" d="M267.4,270c0,0.2-0.2,0.4-0.4,0.4c-0.2,0-0.4-0.2-0.4-0.4c0-0.2,0.2-0.4,0.4-0.4
			C267.2,269.5,267.4,269.7,267.4,270z"/>
		<circle fill="#1DE9B6" cx="265.2" cy="270" r="0.4"/>
		<circle fill="#1DE9B6" cx="263.5" cy="270" r="0.4"/>
		<circle fill="#1DE9B6" cx="261.9" cy="270" r="0.4"/>
		<circle fill="#1DE9B6" cx="260.2" cy="270" r="0.4"/>
		<circle fill="#1DE9B6" cx="258.5" cy="270" r="0.4"/>
		<path fill="#1DE9B6" d="M256.8,274.7c0,0.2-0.2,0.4-0.4,0.4c-0.2,0-0.4-0.2-0.4-0.4c0-0.2,0.2-0.4,0.4-0.4
			C256.6,274.2,256.8,274.4,256.8,274.7z"/>
		<path fill="#1DE9B6" d="M270.3,274.7c0,0.2-0.2,0.4-0.4,0.4c-0.2,0-0.4-0.2-0.4-0.4c0-0.2,0.2-0.4,0.4-0.4
			C270.1,274.2,270.3,274.4,270.3,274.7z"/>
		<path fill="#1DE9B6" d="M268.6,274.7c0,0.2-0.2,0.4-0.4,0.4c-0.2,0-0.4-0.2-0.4-0.4c0-0.2,0.2-0.4,0.4-0.4
			C268.4,274.2,268.6,274.4,268.6,274.7z"/>
		<path fill="#1DE9B6" d="M267,274.7c0,0.2-0.2,0.4-0.4,0.4c-0.2,0-0.4-0.2-0.4-0.4c0-0.2,0.2-0.4,0.4-0.4
			C266.8,274.2,267,274.4,267,274.7z"/>
		<path fill="#1DE9B6" d="M265.3,274.7c0,0.2-0.2,0.4-0.4,0.4c-0.2,0-0.4-0.2-0.4-0.4c0-0.2,0.2-0.4,0.4-0.4
			C265.1,274.2,265.3,274.4,265.3,274.7z"/>
		<path fill="#1DE9B6" d="M263.6,274.7c0,0.2-0.2,0.4-0.4,0.4s-0.4-0.2-0.4-0.4c0-0.2,0.2-0.4,0.4-0.4S263.6,274.4,263.6,274.7z"/>
		<path fill="#1DE9B6" d="M261.9,274.7c0,0.2-0.2,0.4-0.4,0.4c-0.2,0-0.4-0.2-0.4-0.4c0-0.2,0.2-0.4,0.4-0.4
			C261.7,274.2,261.9,274.4,261.9,274.7z"/>
		<path fill="#1DE9B6" d="M260.2,274.7c0,0.2-0.2,0.4-0.4,0.4c-0.2,0-0.4-0.2-0.4-0.4c0-0.2,0.2-0.4,0.4-0.4
			C260,274.2,260.2,274.4,260.2,274.7z"/>
		<path fill="#1DE9B6" d="M258.5,274.7c0,0.2-0.2,0.4-0.4,0.4c-0.2,0-0.4-0.2-0.4-0.4c0-0.2,0.2-0.4,0.4-0.4
			C258.3,274.2,258.5,274.4,258.5,274.7z"/>
		<circle fill="#1DE9B6" cx="268.6" cy="273.1" r="0.4"/>
		<path fill="#1DE9B6" d="M267.4,273.1c0,0.2-0.2,0.4-0.4,0.4c-0.2,0-0.4-0.2-0.4-0.4c0-0.2,0.2-0.4,0.4-0.4
			C267.2,272.7,267.4,272.9,267.4,273.1z"/>
		<circle fill="#1DE9B6" cx="265.2" cy="273.1" r="0.4"/>
		<circle fill="#1DE9B6" cx="263.5" cy="273.1" r="0.4"/>
		<circle fill="#1DE9B6" cx="261.9" cy="273.1" r="0.4"/>
		<circle fill="#1DE9B6" cx="260.2" cy="273.1" r="0.4"/>
		<circle fill="#1DE9B6" cx="258.5" cy="273.1" r="0.4"/>
	</g>
</g>
<path fill="#33691E" d="M276.3,239c-3.5-2.7-8.2-3.5-12.6-1.7c-4.4,1.8-7.2,5.7-7.8,10.1c3.5,2.7,8.3,3.5,12.6,1.7
	C272.9,247.3,275.7,243.4,276.3,239z"/>
<path fill="#FF9E80" d="M267.5,236.7c4.5,3.4,3.1,6.5-2.3,5.6c0.9,5.4-2.2,6.8-5.6,2.3c-3.4,4.5-6.5,3.1-5.6-2.3
	c-5.4,0.9-6.8-2.2-2.3-5.6c-4.5-3.4-3.1-6.5,2.3-5.6c-0.9-5.4,2.2-6.8,5.6-2.3c3.4-4.5,6.5-3.1,5.6,2.3
	C270.6,230.2,272,233.3,267.5,236.7z"/>
<linearGradient id="SVGID_9_" gradientUnits="userSpaceOnUse" x1="248.8833" y1="236.7131" x2="270.1472" y2="236.7131">
	<stop  offset="0" style="stop-color:#FFFFFF"/>
	<stop  offset="1" style="stop-color:#000000"/>
</linearGradient>
<path opacity="0.2" fill="url(#SVGID_9_)" d="M267.5,236.7c4.5,3.4,3.1,6.5-2.3,5.6c0.9,5.4-2.2,6.8-5.6,2.3
	c-3.4,4.5-6.5,3.1-5.6-2.3c-5.4,0.9-6.8-2.2-2.3-5.6c-4.5-3.4-3.1-6.5,2.3-5.6c-0.9-5.4,2.2-6.8,5.6-2.3c3.4-4.5,6.5-3.1,5.6,2.3
	C270.6,230.2,272,233.3,267.5,236.7z"/>
<path fill="#FF6D00" d="M256.4,246.8c3.5,4.2,0.1,7.7-4.1,4.1c-4.2,3.5-7.7,0.1-4.1-4.1c-3.5-4.2-0.1-7.7,4.1-4.1
	C256.5,239.1,259.9,242.5,256.4,246.8z"/>
<circle fill="#F2F2F2" cx="260.2" cy="235.3" r="1.1"/>
<circle fill="#F2F2F2" cx="257.2" cy="238.4" r="0.7"/>
<path fill="#F2F2F2" d="M261.3,239.1c0,0.3-0.3,0.6-0.6,0.6c-0.3,0-0.6-0.2-0.6-0.6c0-0.3,0.3-0.6,0.6-0.6
	C261.1,238.6,261.3,238.8,261.3,239.1z"/>
<path fill="#00E5FF" d="M304.2,274l-11.9-6.9h0.7v-12.6c5.4-0.5,9.6-5,9.6-10.5l-2.6-15.8h-7.9l0,21.9h0l0-21.9h-7.9l-2.6,15.8
	c0,5.5,4.2,10,9.6,10.5v12.6h0.7l-12.2,6.9H304.2z"/>
<path fill="#00E5FF" d="M215.3,274l-11.9-6.9h0.7v-12.6c5.4-0.5,9.6-5,9.6-10.5l-2.6-15.8h-7.9l0,21.9h0l0-21.9h-7.9l-2.6,15.8
	c0,5.5,4.2,10,9.6,10.5v12.6h0.7l-12.2,6.9H215.3z"/>
<g>
	<rect x="241.3" y="296" fill="none" width="5.5" height="5.5"/>
	<rect x="235.8" y="290.5" fill="none" width="5.5" height="5.5"/>
	<rect x="241.3" y="285" fill="none" width="5.5" height="5.5"/>
	<rect x="230.3" y="285" fill="none" width="5.5" height="5.5"/>
	<rect x="246.8" y="290.5" fill="none" width="5.5" height="5.5"/>
	<rect x="252.3" y="285" fill="none" width="5.5" height="5.5"/>
	<rect x="263.3" y="285" fill="none" width="5.5" height="5.5"/>
	<rect x="235.8" y="279.5" fill="none" width="5.5" height="5.5"/>
	<rect x="246.8" y="279.5" fill="none" width="5.5" height="5.5"/>
	<rect x="224.8" y="279.5" fill="none" width="5.5" height="5.5"/>
	<rect x="268.8" y="279.5" fill="none" width="5.5" height="5.5"/>
	<rect x="257.8" y="279.5" fill="none" width="5.5" height="5.5"/>
	<rect x="257.8" y="290.5" fill="none" width="5.5" height="5.5"/>
	<rect x="246.8" y="301.4" fill="none" width="5.5" height="5.5"/>
	<rect x="252.3" y="296" fill="none" width="5.5" height="5.5"/>
	<polygon fill="#4DD0E1" points="219.3,279.5 219.3,274 213.8,274 213.8,275.9 217.3,279.5 	"/>
	<rect x="224.8" y="274" fill="#4DD0E1" width="5.5" height="5.5"/>
	<rect x="235.8" y="274" fill="#4DD0E1" width="5.5" height="5.5"/>
	<rect x="246.8" y="274" fill="#4DD0E1" width="5.5" height="5.5"/>
	<rect x="257.8" y="274" fill="#4DD0E1" width="5.5" height="5.5"/>
	<rect x="268.8" y="274" fill="#4DD0E1" width="5.5" height="5.5"/>
	<polygon fill="#4DD0E1" points="285.2,276.2 285.2,274 279.7,274 279.7,279.5 282,279.5 	"/>
	<polygon fill="#4DD0E1" points="222.6,285 224.8,285 224.8,279.5 219.3,279.5 219.3,281.6 	"/>
	<rect x="230.3" y="279.5" fill="#4DD0E1" width="5.5" height="5.5"/>
	<rect x="241.3" y="279.5" fill="#4DD0E1" width="5.5" height="5.5"/>
	<rect x="252.3" y="279.5" fill="#4DD0E1" width="5.5" height="5.5"/>
	<rect x="263.3" y="279.5" fill="#4DD0E1" width="5.5" height="5.5"/>
	<polygon fill="#4DD0E1" points="276.7,285 279.7,281.8 279.7,279.5 274.3,279.5 274.3,285 	"/>
	<polygon fill="#4DD0E1" points="224.8,285 224.8,287.3 227.9,290.5 230.3,290.5 230.3,285 	"/>
	<rect x="235.8" y="285" fill="#4DD0E1" width="5.5" height="5.5"/>
	<rect x="246.8" y="285" fill="#4DD0E1" width="5.5" height="5.5"/>
	<rect x="257.8" y="285" fill="#4DD0E1" width="5.5" height="5.5"/>
	<polygon fill="#4DD0E1" points="268.8,290.5 271.3,290.5 274.3,287.5 274.3,285 268.8,285 	"/>
	<polygon fill="#4DD0E1" points="230.3,290.5 230.3,293 233.2,296 235.8,296 235.8,290.5 	"/>
	<rect x="241.3" y="290.5" fill="#4DD0E1" width="5.5" height="5.5"/>
	<rect x="252.3" y="290.5" fill="#4DD0E1" width="5.5" height="5.5"/>
	<polygon fill="#4DD0E1" points="263.3,296 266,296 268.8,293.1 268.8,290.5 263.3,290.5 	"/>
	<polygon fill="#4DD0E1" points="235.8,296 235.8,298.6 238.5,301.4 241.3,301.4 241.3,296 	"/>
	<rect x="246.8" y="296" fill="#4DD0E1" width="5.5" height="5.5"/>
	<polygon fill="#4DD0E1" points="257.8,301.4 260.7,301.4 263.3,298.8 263.3,296 257.8,296 	"/>
	<polygon fill="#4DD0E1" points="241.3,301.4 241.3,304.3 243.8,306.9 246.8,306.9 246.8,301.4 	"/>
	<polygon fill="#4DD0E1" points="252.3,306.9 255.3,306.9 257.8,304.4 257.8,301.4 252.3,301.4 	"/>
	<polygon fill="#4DD0E1" points="246.8,310 249.1,312.4 250,312.4 252.3,310.1 252.3,306.9 246.8,306.9 	"/>
</g>
<linearGradient id="SVGID_10_" gradientUnits="userSpaceOnUse" x1="178.8827" y1="325.2085" x2="191.6446" y2="325.2085" gradientTransform="matrix(-1 0 0 1 401.4688 0)">
	<stop  offset="0" style="stop-color:#FFFFFF"/>
	<stop  offset="1" style="stop-color:#000000"/>
</linearGradient>
<path opacity="0.2" fill="url(#SVGID_10_)" d="M222.6,338.8l-9.8-28.6l-3,26.8C209.8,337,211.7,342.8,222.6,338.8z"/>
<linearGradient id="SVGID_11_" gradientUnits="userSpaceOnUse" x1="182.7481" y1="315.8611" x2="195.2859" y2="315.8611" gradientTransform="matrix(-1 0 0 1 470.5693 0)">
	<stop  offset="0" style="stop-color:#FFFFFF"/>
	<stop  offset="1" style="stop-color:#000000"/>
</linearGradient>
<path opacity="0.2" fill="url(#SVGID_11_)" d="M287.8,333.2l-10-37.3l-2.6,39.3C275.3,335.3,276.9,337.2,287.8,333.2z"/>
<linearGradient id="SVGID_12_" gradientUnits="userSpaceOnUse" x1="190.6745" y1="251.0788" x2="215.2601" y2="251.0788">
	<stop  offset="0" style="stop-color:#FFFFFF"/>
	<stop  offset="1" style="stop-color:#000000"/>
</linearGradient>
<path opacity="0.1" fill="url(#SVGID_12_)" d="M215.3,274l-11.9-6.9h0.7v-12.6c5.4-0.5,9.6-5,9.6-10.5l-2.6-15.8h-7.9l0,21.9h0
	l0-21.9h-7.9l-2.6,15.8c0,5.5,4.2,10,9.6,10.5v12.6h0.7l-12.2,6.9H215.3z"/>
<linearGradient id="SVGID_13_" gradientUnits="userSpaceOnUse" x1="279.659" y1="251.0788" x2="304.2445" y2="251.0788">
	<stop  offset="0" style="stop-color:#FFFFFF"/>
	<stop  offset="1" style="stop-color:#000000"/>
</linearGradient>
<path opacity="0.1" fill="url(#SVGID_13_)" d="M304.2,274l-11.9-6.9h0.7v-12.6c5.4-0.5,9.6-5,9.6-10.5l-2.6-15.8h-7.9l0,21.9h0
	l0-21.9h-7.9l-2.6,15.8c0,5.5,4.2,10,9.6,10.5v12.6h0.7l-12.2,6.9H304.2z"/>
<linearGradient id="SVGID_14_" gradientUnits="userSpaceOnUse" x1="195.8722" y1="214.6826" x2="205.5233" y2="252.3219">
	<stop  offset="0" style="stop-color:#FFFFFF"/>
	<stop  offset="1" style="stop-color:#FFFFFF;stop-opacity:0"/>
</linearGradient>
<polygon fill="url(#SVGID_14_)" points="207.4,243.2 202.5,243.2 195.1,228.2 200,228.2 "/>
<linearGradient id="SVGID_15_" gradientUnits="userSpaceOnUse" x1="286.5649" y1="214.6826" x2="296.216" y2="252.3219">
	<stop  offset="0" style="stop-color:#FFFFFF"/>
	<stop  offset="1" style="stop-color:#FFFFFF;stop-opacity:0"/>
</linearGradient>
<polygon fill="url(#SVGID_15_)" points="298.1,243.2 293.2,243.2 285.8,228.2 290.7,228.2 "/>
</svg>
