<?xml version="1.0" encoding="utf-8"?>
<!-- Generator: Adobe Illustrator 17.1.0, SVG Export Plug-In . SVG Version: 6.00 Build 0)  -->
<!DOCTYPE svg PUBLIC "-//W3C//DTD SVG 1.1//EN" "http://www.w3.org/Graphics/SVG/1.1/DTD/svg11.dtd">
<svg version="1.1" id="Layer_1" xmlns="http://www.w3.org/2000/svg" xmlns:xlink="http://www.w3.org/1999/xlink" x="0px" y="0px"
	 viewBox="0 0 512 640" enable-background="new 0 0 512 640" xml:space="preserve">
<ellipse opacity="0.1" fill="#424242" cx="253" cy="496" rx="93" ry="19"/>
<g>
	<g>
		<line fill="none" stroke="#5D4037" stroke-width="2" stroke-miterlimit="10" x1="212.8" y1="417.3" x2="202.5" y2="444"/>
		<path fill="#FAFAFA" d="M203.9,444.3c-0.3,0.7-1.1,1.1-1.8,0.8c-0.7-0.3-1.1-1.1-0.8-1.8"/>
		<line fill="none" stroke="#5D4037" stroke-width="2" stroke-miterlimit="10" x1="288.7" y1="216.4" x2="298.3" y2="190.9"/>
		<path fill="#FAFAFA" d="M296.9,190.7c0.3-0.7,1.1-1.1,1.8-0.8c0.7,0.3,1.1,1.1,0.8,1.8"/>
		<path fill="#FAFAFA" d="M252.4,436.2c65.2,0,118-52.8,118-118c0-55.5-38.3-102.1-90-114.6l2.5-6.7c54.5,13.4,95,62.7,95,121.4
			c0,69-56,125-125,125c-20.1,0-39-4.7-55.8-13.1l2.4-6.3C215.4,431.7,233.4,436.2,252.4,436.2z"/>
		<circle fill="#18FFFF" cx="252.4" cy="318" r="107.5"/>
		<g>
			<defs>
				<circle id="SVGID_1_" cx="252.4" cy="318" r="107.5"/>
			</defs>
			<clipPath id="SVGID_2_">
				<use xlink:href="#SVGID_1_"  overflow="visible"/>
			</clipPath>
			<path clip-path="url(#SVGID_2_)" fill="#00C853" d="M266.5,211.8l26.4-14.5l41.2,8.2c0,0,18.6,28.8,18.6,32.1
				c0,3.4-3.4,15.2-3.4,15.2l-9.6,3.4h-30.6c-3.9,0-7.1,3.2-7.1,7.1c0,2.7,1.5,5,3.7,6.2l0.3,0.2c5.7,3,9.6,8.9,9.6,15.7
				c0,9.8-7.9,17.7-17.7,17.7c-2.2,0-4.3-0.4-6.3-1.1l-0.6-0.2l-12.9-4.8l-0.2-0.1c-0.8-0.4-1.8-0.5-2.8-0.5c-4,0-7.2,3.2-7.2,7.2
				c0,2.2,0.9,4.1,2.4,5.4l9.2,8l0.5,0.4c1.2,1.2,1.9,2.8,1.9,4.7c0,1.1-0.3,2.2-0.8,3.1l-0.1,0.1c-0.4,0.9-0.6,1.9-0.6,2.9
				c0,2.5,1.2,4.7,3.1,6.1l0.3,0.2l23.4,16.7l0.1,0.1c5,3.7,8.3,9.7,8.3,16.4c0,3.9-1.1,7.6-3,10.7l-0.2,0.2c-1,1.7-1.6,3.7-1.6,5.8
				c0,3.7,1.8,6.9,4.5,8.9l0.1,0.1c1.8,1.3,4,2,6.4,2c3.3,0,6.3-1.5,8.4-3.8l15.3,15l-8.1,19.7l-100.9,16.9l-19.4-7l5.5-10.1
				l1.6-4.3l31.7-21.8l0.6-0.4c3.3-2.1,5.4-5.8,5.4-10c0-3.7-1.7-7-4.4-9.2l-0.1-0.1c-1.9-2.1-3.1-4.9-3.1-8c0-3.8,1.7-7.1,4.5-9.3
				l0.8-0.6l17.1-10.1c2.8-1.7,3.8-5.4,2.1-8.2l-28.8-43.9l-3.8-5.8l-8-11.9c-4.7-7-3-16.3,3.6-21.3l0.3-0.2
				c6-4.4,7.6-12.7,3.5-18.9l-0.1-0.1c-4-6.4-2.3-14.8,4-19L266.5,211.8"/>
		</g>
		<g>
			<defs>
				<path id="SVGID_3_" d="M353.6,353.5c-19.5,56.1-80.7,85.7-136.8,66.2c-56.1-19.5-85.7-80.7-66.2-136.8
					c19.5-56.1,80.7-85.7,136.8-66.3C343.5,236.2,373.1,297.5,353.6,353.5z"/>
			</defs>
			<clipPath id="SVGID_4_">
				<use xlink:href="#SVGID_3_"  overflow="visible"/>
			</clipPath>
			<path clip-path="url(#SVGID_4_)" fill="#00C853" d="M132.1,319.5c-0.3,2.2-0.5,3.7-0.6,4.2c-0.3,2.4,14.2,27.3,14.2,27.3
				c2.9,3.4,6.7,6,11.2,7.6c13.6,4.7,28.4-2.5,33.1-16c3.3-9.5,0.8-19.6-5.7-26.5l-0.1-0.1c-3.8-4.9-3.2-12,1.5-16.3
				c0.1-0.1,1.9-1.7,1.9-1.7c0.1-0.1,0.3-0.2,0.4-0.3c4.9-4.5,5.3-12.1,0.9-17l-14-14.4l-21.9-5.1c0,0-15.8,25.4-16,25.9
				C137,287.4,133.5,309.8,132.1,319.5"/>
			<rect x="141.2" y="351.5" clip-path="url(#SVGID_4_)" fill="#00C853" width="25" height="8.5"/>
		</g>
		<path fill="#E1E1E1" d="M257.6,467.9v-10.8c0-2.1,1-4,2.5-5.3l0.1-0.1c2.6-2.1,4.3-5.3,4.3-9c0-6.3-5.1-11.5-11.5-11.5
			c-6.3,0-11.5,5.1-11.5,11.5c0,3.6,1.6,6.8,4.2,8.9l0.4,0.3c1.4,1.2,2.4,3.1,2.4,5.1v10.4"/>
		<path fill="#FAFAFA" d="M257.6,463.2c3.7,1.7,6.3,5.5,6.3,9.9v12.4c0,6-4.9,10.9-10.9,10.9l0,0c-6,0-10.9-4.9-10.9-10.9v-12.4
			c0-4.4,2.6-8.2,6.3-9.9L257.6,463.2"/>
		<path fill="#E1E1E1" d="M199.7,499.4L199.7,499.4c0-8.9,7.2-16.2,16.2-16.2h74.7c8.9,0,16.2,7.2,16.2,16.2"/>
		<g id="plane_5_">
			<g id="wing_3_" opacity="0.8">
				<path fill="#FFFFFF" d="M191.6,143.2l7.8-7.3c0.2-0.2,0.1-0.6-0.2-0.6l-19.8-2.9c-0.3,0-0.5,0-0.7,0.2l-2.4,2.2
					c-0.1,0.1-0.2,0.3-0.2,0.4c0,0.1,0.1,0.2,0.1,0.3c0,0,0.1,0.1,0.1,0.1l14.6,8.1L191.6,143.2z"/>
			</g>
			<g id="plane_6_">
				<path fill="#FFFFFF" d="M209.3,164.5l-1.8-23.5c0-0.1,0-0.2,0.1-0.3l9.3-8.7c1-0.9,1.6-2.1,1.7-3.4c0.2-3.9-4.3-3.5-6.1-1.8
					l-9.6,9L189.7,148l-5.9,5.5c-0.1,0.1-0.2,0.1-0.3,0.1l-6.3-0.8c-0.2,0-0.5,0-0.6,0.2l-0.8,0.8c-0.1,0.1-0.2,0.2-0.1,0.4
					c0,0.1,0.1,0.2,0.1,0.2c0,0,0.1,0.1,0.1,0.1l7.4,4c0.1,0,0.1,0.1,0.2,0.2l3.5,7.7c0,0,0,0.1,0.1,0.1c0.1,0.1,0.1,0.1,0.2,0.1
					c0.1,0,0.3,0,0.4-0.1l0.8-0.8c0.2-0.2,0.3-0.4,0.3-0.6l-0.4-6.3c0-0.1,0-0.2,0.1-0.3l8.9-8.3c0.2-0.2,0.5-0.1,0.6,0.1l7.8,16.9
					c0,0.1,0.1,0.1,0.1,0.1c0.1,0.1,0.2,0.1,0.3,0.2c0.2,0,0.3,0,0.4-0.1l2.4-2.2C209.2,165,209.3,164.7,209.3,164.5z"/>
			</g>
		</g>
		<path fill="none" stroke="#FFFFFF" stroke-width="1.5" stroke-miterlimit="10" stroke-dasharray="0,0,5,0,0,6" d="M171.6,170
			c-17.9,16.7-37,41.6-21.7,59.4c20.2,23.5,60.8-2.4,82-11.7c17.2-7.5,36-13.7,54.6-10.7c1,0.2,2.1,0.4,2.8,1.1
			c1.3,1.3,0.8,3.6-0.5,4.8c-1.3,1.2-3.2,1.7-4.9,2.1"/>
		<path fill="none" stroke="#FFFFFF" stroke-width="1.5" stroke-miterlimit="10" stroke-dasharray="0,0,5,0,0,6" d="M157.5,263.9
			c-8.8,3.5-17.2,8.2-24.8,13.9c-3.6,2.7-7.3,6.5-6.5,10.9c0.7,3.5,4.3,5.9,7.9,6.3c3.6,0.4,7.1-0.8,10.5-2.1
			c31-11.6,59.2-29.4,89-43.6s62.6-25.1,95.5-21.5c1.9,0.2,3.8,0.5,5.3,1.7c1.5,1.2,2.2,3.5,1.1,5c-0.6,0.7-1.5,1.1-2.4,1.5
			c-2.8,1.2-5.7,2.3-8.5,3.5"/>
		<path fill="none" stroke="#FFFFFF" stroke-width="1.5" stroke-miterlimit="10" stroke-dasharray="0,0,5,0,0,6" d="M151,279.3
			c16.6-5,33.9-7.3,51.1-9.6c29.4-3.9,58.8-7.8,88.3-10.2c26.5-2.2,69,22.3,63.7,21.6"/>
		<path fill="none" stroke="#FFFFFF" stroke-width="1.5" stroke-miterlimit="10" stroke-dasharray="0,0,5,0,0,6" d="M143.5,305.6
			c-4.9,2.3-9.5,5.2-13.7,8.7c-1,0.9-2.1,1.8-2.6,3.1c-1.3,3.1,1.4,6.7,4.6,7.7c3.2,1,6.7,0.1,9.9-0.7
			c65.5-17,133.5-24.4,201.2-21.7c8.3,0.3,16.6,0.8,24.7,2.4c6.7,1.4,18.5,3.9,18.4,11.6c-0.1,9-17.4,5.1-26.2,4"/>
		<path fill="none" stroke="#FFFFFF" stroke-width="1.5" stroke-miterlimit="10" stroke-dasharray="0,0,5,0,0,6" d="M145.2,332
			c-2.9,0.2-3.1,5.3-2.9,7.3c0.3,4.9,5.7,5.5,9.7,5.3c9.7-0.6,19.1-3.4,28.2-6.8c9.2-3.4,18.3-6.7,27.5-10
			c19.5-6.9,39-13.9,58.5-20.8c0.4-0.1,0.8-0.3,1.2-0.4c27.6-9.8,55.7-19.7,84.9-20.9c4.2-0.2,8.6-0.1,12.2,2
			c0.7,0.4,1.3,0.9,1.6,1.6c0.6,1.4-0.6,2.9-1.7,3.8c-2.7,2.2-6.2,3.7-9.7,4"/>
		<path fill="none" stroke="#FFFFFF" stroke-width="1.5" stroke-miterlimit="10" stroke-dasharray="0,0,5,0,0,6" d="M149.4,353.8
			c-1.5-0.5-2.5,2.1-1.3,3.3s2.9,1.1,4.5,1c23.7-2,46.8-8.5,70.3-12.1c19-2.8,38.2-3.8,57.3-4.2c23.8-0.5,48.2-0.2,70.3,8.5
			c1.7,0.7,3.5,1.6,4,3.3c0.5,1.7-1.9,3.8-3.1,2.4"/>
		<path fill="none" stroke="#FFFFFF" stroke-width="1.5" stroke-miterlimit="10" stroke-dasharray="0,0,5,0,0,6" d="M162.4,378.3
			c-1.1-0.6-1.1-2.2-0.4-3.3c0.7-1,1.9-1.6,3-2.1c34.8-16.1,139.8-47.8,155.8-49.2c8-0.7,38.4,0.1,44.9,2.9c2.6,1.1,3.7,5.5,0.7,7.5
			c-2.7,1.7-5,0.7-8.1,1.5"/>
		<path fill="none" stroke="#FFFFFF" stroke-width="1.5" stroke-miterlimit="10" stroke-dasharray="0,0,5,0,0,6" d="M167.6,251.8
			c-4.8-1.2-9.5,3.3-10.2,8.2c-0.7,4.9,1.6,9.7,4.2,13.8c7.7,12.4,18.8,22.3,30,31.7c38.3,32.1,79.9,60.1,122.9,85.5
			c5.4,3.2,10.9,6.4,17,7.8c1.3,0.3,2.6,0.5,3.8-0.1c2-1,2.5-3.9,1.5-5.9c-1-2-3-3.4-4.8-4.6"/>
		<path fill="none" stroke="#FFFFFF" stroke-width="1.5" stroke-miterlimit="10" stroke-dasharray="0,0,5,0,0,6" d="M173,390.9
			c-3.7,0-7.3,2.4-8.6,5.9c2.8,2.2,6.8,1.9,10.3,1.5c28.2-3.2,56.3-6.9,84.4-11c26.5-3.8,53.4-8,79.9-4.5c1.5,0.2,3.5,1.2,2.9,2.6
			c-2.4,0.6-4.8,0.9-7.3,1"/>
		<path fill="none" stroke="#FFFFFF" stroke-width="1.5" stroke-miterlimit="10" stroke-dasharray="0,0,5,0,0,6" d="M332.5,246.9
			c3.3-0.9,5.5-0.1,8.9,0c1.5,0.1,3,0.3,4.3,1.1c3.5,2.2,3.1,7.5,1.6,11.4c-3,7.7-8.3,14.3-13.7,20.6
			c-42.3,49.1-96.4,88-156.6,112.2c-1.7,0.7-12.3-10-12.6-11.8"/>
		<path fill="none" stroke="#FFFFFF" stroke-width="1.5" stroke-miterlimit="10" stroke-dasharray="0,0,5,0,0,6" d="M189,405.5
			c-4.2-0.3-8.6,2-10.7,5.7c11.7,1.8,23.6,1.6,35.4,1.4c27.3-0.4,54.6-0.7,82-1.1c8.2-0.1,16.4-0.2,24.5-1.6
			c1.7-0.3,5.1-4.6,3.9-5.8"/>
		<path fill="none" stroke="#FFFFFF" stroke-width="1.5" stroke-miterlimit="10" stroke-dasharray="0,0,5,0,0,6" d="M351.3,359.3
			c-13.3,2.6-26.7,5.2-40,7.8c-40,7.9-83.1,20.5-118.8,40.3"/>
	</g>
</g>
</svg>
