<?xml version="1.0" encoding="utf-8"?>
<!-- Generator: Adobe Illustrator 17.1.0, SVG Export Plug-In . SVG Version: 6.00 Build 0)  -->
<!DOCTYPE svg PUBLIC "-//W3C//DTD SVG 1.1//EN" "http://www.w3.org/Graphics/SVG/1.1/DTD/svg11.dtd">
<svg version="1.1" id="Layer_1" xmlns="http://www.w3.org/2000/svg" xmlns:xlink="http://www.w3.org/1999/xlink" x="0px" y="0px"
	 viewBox="0 0 512 640" enable-background="new 0 0 512 640" xml:space="preserve">
<linearGradient id="SVGID_1_" gradientUnits="userSpaceOnUse" x1="193.7622" y1="283.8236" x2="402.1016" y2="283.8236">
	<stop  offset="0" style="stop-color:#FFFFFF"/>
	<stop  offset="1" style="stop-color:#000000"/>
</linearGradient>
<polygon opacity="0.2" fill="url(#SVGID_1_)" points="402.1,342 193.8,342 193.8,225.6 298.9,246.6 402.1,225.6 "/>
<polygon fill="#1DE9B6" points="398.4,338.3 190,338.3 190,221.9 295.2,242.8 398.4,221.9 "/>
<rect x="197.3" y="308.6" fill="#00897B" width="195.9" height="23"/>
<path fill="#4DB6AC" d="M295.2,331.7c49,0,49-23,98.1-23v-99.2c-49,0-49,23-98.1,23V331.7z"/>
<path fill="#4DB6AC" d="M295.2,331.7c49,0,49-23,98.1-23v-99.2c-49,0-49,23-98.1,23V331.7z"/>
<path fill="#80CBC4" d="M295.4,331.7c-49,0-49-23-98.1-23v-99.2c49,0,49,23,98.1,23V331.7z"/>
<path fill="none" stroke="#80CBC4" stroke-width="1.4441" stroke-miterlimit="10" d="M215.8,229c26.5,3,35.8,14,57.2,19.4"/>
<path fill="none" stroke="#80CBC4" stroke-width="1.4441" stroke-miterlimit="10" d="M215.8,241.4c26.5,3,35.8,14,57.2,19.4"/>
<path fill="none" stroke="#80CBC4" stroke-width="1.4441" stroke-miterlimit="10" d="M215.8,253.7c26.5,3,35.8,14,57.2,19.4"/>
<path fill="none" stroke="#80CBC4" stroke-width="1.4441" stroke-miterlimit="10" d="M215.8,266c26.5,3,35.8,14,57.2,19.4"/>
<path fill="none" stroke="#80CBC4" stroke-width="1.4441" stroke-miterlimit="10" d="M215.8,278.3c26.5,3,35.8,14,57.2,19.4"/>
<path fill="none" stroke="#80CBC4" stroke-width="1.4441" stroke-miterlimit="10" d="M215.8,290.7c26.5,3,35.8,14,57.2,19.4"/>
<path fill="none" stroke="#80CBC4" stroke-width="1.4441" stroke-miterlimit="10" d="M370.7,278.3c-26.5,3-35.8,14-57.2,19.4"/>
<path fill="none" stroke="#80CBC4" stroke-width="1.4441" stroke-miterlimit="10" d="M370.7,290.7c-26.5,3-35.8,14-57.2,19.4"/>
<path fill="#80CBC4" d="M313.5,278.9c21.4-5.3,30.7-16.4,57.2-19.4v-31c-26.5,3-35.8,14-57.2,19.4V278.9z"/>
<g>
	<linearGradient id="SVGID_2_" gradientUnits="userSpaceOnUse" x1="61.2119" y1="415.5644" x2="175.6768" y2="415.5644">
		<stop  offset="0" style="stop-color:#FFFFFF"/>
		<stop  offset="1" style="stop-color:#000000"/>
	</linearGradient>
	<circle opacity="0.2" fill="url(#SVGID_2_)" cx="118.4" cy="415.6" r="57.2"/>
	<circle fill="#E1E1E1" cx="112.8" cy="411.8" r="57.2"/>
	<circle opacity="0.3" fill="#424242" cx="119.5" cy="411.7" r="37.7"/>
	<linearGradient id="SVGID_3_" gradientUnits="userSpaceOnUse" x1="76.23" y1="409.8235" x2="151.5916" y2="409.8235">
		<stop  offset="0" style="stop-color:#FFFFFF"/>
		<stop  offset="1" style="stop-color:#000000"/>
	</linearGradient>
	<circle opacity="0.2" fill="url(#SVGID_3_)" cx="113.9" cy="409.8" r="37.7"/>
	<circle fill="#FAFAFA" cx="113.9" cy="409.8" r="37.7"/>
	<path opacity="0.8" fill="#4E342E" d="M113.9,381.8c-1.6,0-3.2,0.2-4.7,0.4c13.3,2.2,23.4,13.7,23.4,27.6s-10.1,25.4-23.4,27.6
		c1.5,0.3,3.1,0.4,4.7,0.4c15.5,0,28-12.6,28-28S129.4,381.8,113.9,381.8z"/>
	<path fill="#3E2723" d="M132.6,409.8c0-13.9-10.1-25.4-23.4-27.6c-13.3,2.2-23.4,13.7-23.4,27.6s10.1,25.4,23.4,27.6
		C122.5,435.2,132.6,423.7,132.6,409.8z"/>
	
		<line fill="none" stroke="#FAFAFA" stroke-width="4.3324" stroke-linecap="round" stroke-miterlimit="10" x1="76.2" y1="409.8" x2="63.7" y2="409.8"/>
</g>
<g>
	<path fill="#3BC2DB" d="M305.2,406.9h-19.5c0.2,1.1-0.4,2.2-0.4,3.3c0,1.2,0.1,2.3-0.1,3.5h19.7"/>
	<path fill="#3BC2DB" d="M264.2,433.4c-11.6,0-21.2-8.5-22.9-19.7h-0.1C243,424.9,252.6,433.4,264.2,433.4
		c11.6,0,21.3-8.5,22.9-19.7h0C285.5,424.8,275.9,433.4,264.2,433.4z"/>
	<path fill="#3BC2DB" d="M264.2,387.1c11.7,0,21.3,8.6,22.9,19.9h0C285.6,395.7,275.9,387,264.2,387.1c-11.7-0.1-21.4,8.6-23,19.9
		h0.1C242.9,395.7,252.6,387.1,264.2,387.1z"/>
	<polygon fill="#3BC2DB" points="293.9,413.7 287.2,413.7 287.2,406.9 	"/>
	<path fill="#3BC2DB" d="M287.2,406.9L287.2,406.9c-1.7-11.2-11.3-19.9-23-19.9c-11.7,0-21.3,8.6-22.9,19.9h-0.1h-8.3l13.1-40.3
		c0.6-1.8-0.4-3.7-2.2-4.3c-1.8-0.6-3.7,0.4-4.3,2.2L225,409.3c-0.6,1.8,0.4,3.7,2.2,4.3c0.3,0.1,0.6,0.1,0.9,0.2v0h13.2h0.1
		c1.7,11.1,11.3,19.7,22.9,19.7c11.6,0,21.2-8.5,22.9-19.7h0c0.2-1.1,0.3-2.3,0.3-3.5C287.4,409.1,287.4,408,287.2,406.9z
		 M264.2,427c-9.2,0-16.7-7.5-16.7-16.7c0-9.2,7.5-16.7,16.7-16.7c9.2,0,16.7,7.5,16.7,16.7C280.9,419.5,273.5,427,264.2,427z"/>
	<path fill="#3BC2DB" d="M300.9,410.2c0,1.2,0.1,2.3,0.3,3.5h0c1.7,11.1,11.3,19.7,22.9,19.7c11.6,0,21.2-8.5,22.9-19.7h0.1h13.2v0
		c0.3,0,0.6-0.1,0.9-0.2c1.8-0.6,2.8-2.5,2.2-4.3l-14.6-44.8c-0.6-1.8-2.5-2.8-4.3-2.2c-1.8,0.6-2.8,2.5-2.2,4.3l13.1,40.3h-8.3
		h-0.1c-1.6-11.2-11.3-19.9-22.9-19.9c-11.7,0-21.3,8.6-22.9,19.9h0C301,408,300.9,409.1,300.9,410.2z M307.4,410.3
		c0-9.2,7.5-16.7,16.7-16.7c9.2,0,16.7,7.5,16.7,16.7c0,9.2-7.5,16.7-16.7,16.7C314.9,427,307.4,419.5,307.4,410.3z"/>
	<polygon fill="#3BC2DB" points="353.8,413.7 347,413.7 347,406.9 	"/>
	<g>
		<path fill="none" d="M324.1,393.6C324.1,393.6,324.1,393.6,324.1,393.6c9.2,0,16.7,7.5,16.7,16.7c0,9.2-7.5,16.7-16.7,16.7
			c0,0,0,0,0,0c9.2,0,16.7-7.5,16.7-16.7C340.9,401.1,333.4,393.6,324.1,393.6z"/>
		<path fill="#3BC2DB" d="M347.1,406.9c-1.6-11.3-11.3-19.9-23-19.9c-11.7,0-21.4,8.7-23,19.9h0l0,6.8h0c1.7,11.2,11.3,19.7,23,19.7
			c11.6,0,21.3-8.6,23-19.7c0.2-1.1,0.3-2.3,0.3-3.5C347.4,409.1,347.3,408,347.1,406.9z M324.1,427C324.1,427,324.1,427,324.1,427
			C324.1,427,324.1,427,324.1,427c-9.2,0-16.7-7.5-16.7-16.7c0-9.2,7.5-16.7,16.7-16.7c0,0,0,0,0,0c0,0,0,0,0,0
			c9.2,0,16.7,7.5,16.7,16.7C340.9,419.5,333.4,427,324.1,427z"/>
		<path fill="#3BC2DB" d="M307.4,410.3c0-9.2,7.5-16.7,16.7-16.7c0,0,0,0,0,0C314.9,393.6,307.4,401.1,307.4,410.3
			c0,9.2,7.5,16.7,16.7,16.7c0,0,0,0,0,0C314.9,427,307.4,419.5,307.4,410.3z"/>
	</g>
</g>
<g>
	<path fill="#3BC2DB" d="M260.1,170.4c0,3,2.4,5.3,5.3,5.3h8V198l24-22.3h32.9c3,0,5.3-2.4,5.3-5.3v-51.6c0-3-2.4-5.3-5.3-5.3h-65
		c-2.9,0-5.3,2.4-5.3,5.3V170.4z"/>
</g>
<g>
	<path fill="#757575" d="M415.3,403.6H434c4.6,0,8.3-3.7,8.3-8.3s-3.7-8.3-8.3-8.3h-16.6v2h16.9c3.5,0,6.2,2.8,6.2,6.4
		c0,3.5-2.7,6.4-6.2,6.4h-18.9c-2.4,0-4.4-1.9-4.4-4.3s2-4.3,4.4-4.3h14.8c1.2,0,2,1,2,2.2c0,1.2-0.8,2.2-2,2.2h-12.7v2h12.5
		c2.3,0,4-1.9,4-4.2c0-2.3-1.7-4.2-4-4.2h-14.6c-3.4,0-6.2,2.8-6.2,6.2C409.1,400.8,411.9,403.6,415.3,403.6z"/>
</g>
<g>
	<path fill="#757575" d="M405.9,385.5l3-18.5c0.7-4.5-2.3-8.8-6.9-9.6c-4.5-0.7-8.8,2.3-9.6,6.9l-2.7,16.4l1.9,0.3l2.7-16.6
		c0.6-3.5,3.8-5.7,7.3-5.1c3.5,0.6,5.8,3.7,5.3,7.2l-3,18.7c-0.4,2.3-2.6,4-4.9,3.6c-2.3-0.4-3.9-2.7-3.5-5l2.4-14.6
		c0.2-1.2,1.3-1.8,2.5-1.6c1.2,0.2,2,1.1,1.8,2.3l-2,12.5l1.9,0.3l2-12.3c0.4-2.3-1.2-4.2-3.5-4.6c-2.3-0.4-4.4,1-4.7,3.2l-2.3,14.4
		c-0.6,3.4,1.8,6.6,5.2,7.2C402.2,391.2,405.4,388.9,405.9,385.5z"/>
</g>
<path fill="#FFEE58" d="M295.7,149c0,7.4-6,13.4-13.4,13.4v-5.6c4.3,0,7.8-3.5,7.8-7.8h-10c-1.2,0-2.2-1-2.2-2.2v-13.4
	c0-1.2,1-2.2,2.2-2.2h13.4c1.2,0,2.2,1,2.2,2.2V149z"/>
<path fill="#FFEE58" d="M318,149c0,7.4-6,13.4-13.4,13.4v-5.6c4.3,0,7.8-3.5,7.8-7.8h-10c-1.2,0-2.2-1-2.2-2.2v-13.4
	c0-1.2,1-2.2,2.2-2.2h13.4c1.2,0,2.2,1,2.2,2.2V149z"/>
<path opacity="0.2" fill="#A1887F" d="M70.2,183.6c-0.2,0-0.4,0-0.6,0.1h-8.3v8.8v11.1v14.8v19.9v14.8V273v24.8l0,0
	c0.2,4.7,4.1,8.4,8.8,8.4h7v16.9H79l-1.3,1.2h15.3l-1.3-1.2h1.3v-16.9h55.8v-17.7h0V273h0v-19.5v-0.5v-14.8v-19.9v-14.8v-19.9v-0.1
	H70.2z"/>
<rect x="105.8" y="253" fill="#FFF3E0" width="37.1" height="33.6"/>
<path fill="#FF6E40" d="M64.5,181.7c-4.9,0-8.9,4-8.9,8.9v105.3l52.4-9.3c13.1,0,35-15.6,35-35v-69.9H64.5z"/>
<path fill="#C2C2C2" d="M64.5,286.6c-4.9,0-8.9,4-8.9,8.9c0,4.9,4,8.9,8.9,8.9H143v-17.7H64.5z"/>
<polygon fill="#BA68C8" points="71.4,296.1 71.4,321.2 73.2,321.2 79.5,315.5 85.8,321.2 87.2,321.2 87.2,296.1 "/>
<g>
	<defs>
		<path id="SVGID_4_" d="M64.5,181.7c-4.9,0-8.9,4-8.9,8.9v105.3l52.4-9.3c13.1,0,35-15.6,35-35v-69.9H64.5z"/>
	</defs>
	<clipPath id="SVGID_5_">
		<use xlink:href="#SVGID_4_"  overflow="visible"/>
	</clipPath>
</g>
<g>
	<path fill="#EF6C00" d="M117.2,260.7c9.7,0.5,20-1.8,25.7-7.7c0.1,15.6-20.3,33.5-33.1,33.6C114.9,281.5,117.7,271,117.2,260.7z"/>
</g>
<g>
	<rect x="106.9" y="180.7" fill="#26C6DA" width="6.1" height="124.9"/>
</g>
<rect x="106.9" y="286.8" fill="#00ACC1" width="6.1" height="18.8"/>
<g>
	<g>
		<path fill="#F4B400" d="M428.3,334.4c0,1.9,1.6,3.5,3.5,3.5l21.1,0c1.9,0,3.5-1.6,3.5-3.5l0-71.9c0-1.9-1.6-3.5-3.5-3.5l-21.1,0
			c-1.9,0-3.5,1.6-3.5,3.5L428.3,334.4z"/>
	</g>
	<g>
		<path fill="#E57368" d="M428.3,340.4c0,1.9,1.6,3.5,3.5,3.5l21.1,0c1.9,0,3.5-1.6,3.5-3.5l0-8.4c0-1.9-1.6-3.5-3.5-3.5l-21.1,0
			c-1.9,0-3.5,1.6-3.5,3.5V340.4z"/>
	</g>
	<rect x="428.3" y="328.5" fill="#E57368" width="28.1" height="7"/>
	<rect x="428.3" y="322.5" fill="#F0F0F0" width="28.1" height="6.5"/>
	<polygon fill="#FBD199" points="428.3,259 442.4,242 456.4,259 	"/>
	<polygon fill="#4D4D4D" points="437.1,248.4 442.4,242 447.6,248.4 	"/>
	<g>
		<polygon fill="#FBD199" points="431.8,259 428.3,259 428.3,264.3 		"/>
		<polygon fill="#FBD199" points="442.4,264.3 442.4,259 438.9,259 		"/>
		<polygon fill="#FBD199" points="438.9,259 435.3,259 435.3,264.3 		"/>
		<polygon fill="#FBD199" points="431.8,259 435.3,259 435.3,264.3 		"/>
		<polygon fill="#FBD199" points="445.9,259 442.4,259 442.4,264.3 		"/>
		<polygon fill="#FBD199" points="456.4,264.3 456.4,259 452.9,259 		"/>
		<polygon fill="#FBD199" points="452.9,259 449.4,259 449.4,264.3 		"/>
		<polygon fill="#FBD199" points="445.9,259 449.4,259 449.4,264.3 		"/>
	</g>
	<path fill="#E0E0E0" d="M442.4,242l0,102h10.5c1.9,0,3.5-1.6,3.5-3.5l0-81.4L442.4,242z"/>
</g>
</svg>
