<?xml version="1.0" encoding="utf-8"?>
<!-- Generator: Adobe Illustrator 17.1.0, SVG Export Plug-In . SVG Version: 6.00 Build 0)  -->
<!DOCTYPE svg PUBLIC "-//W3C//DTD SVG 1.1//EN" "http://www.w3.org/Graphics/SVG/1.1/DTD/svg11.dtd">
<svg version="1.1" id="Layer_1" xmlns="http://www.w3.org/2000/svg" xmlns:xlink="http://www.w3.org/1999/xlink" x="0px" y="0px"
	 viewBox="0 0 512 640" enable-background="new 0 0 512 640" xml:space="preserve">
<g>
	<g>
		<rect x="273.6" y="223.3" fill="#F48159" width="28.9" height="59.3"/>
		<path fill="#F05722" d="M257.3,182.9V206c0,11.7,9.5,20.8,21.2,20.8h22c11.7,0,21.2-9,21.2-20.8v-24.1"/>
		<path fill="#E6E6E6" d="M257.3,182.9V206c0,11.7,9.5,20.8,21.2,20.8h22c11.7,0,21.2-9,21.2-20.8v-24.1"/>
		<path fill="#F05722" d="M307,183.6c0,3.9,3.2,7.1,7.1,7.1h0.5c3.9,0,7.1-3.2,7.1-7.1v-39.1c0-3.9-3.2-7.1-7.1-7.1h-0.5
			c-3.9,0-7.1,3.2-7.1,7.1V183.6z"/>
		<path fill="#F05722" d="M271.9,182.9V147c0-3.9-2.9-7.1-6.8-7.1h-0.8c-3.9,0-7,3.1-7,7.1v35.9"/>
		<path fill="#F05722" d="M290.4,185.5c0,3.9,3.2,7.1,7.1,7.1h0.5c3.9,0,7.1-3.2,7.1-7.1v-20c0-3.9-3.2-7.1-7.1-7.1h-0.5
			c-3.9,0-7.1,3.2-7.1,7.1V185.5z"/>
		<path fill="#F05722" d="M273.9,192.6c0,3.9,3,5.9,7,5.9h0.8c3.9,0,6.9-1.9,6.9-5.9v-26c0-3.9-3-7.2-6.9-7.2h-0.8
			c-3.9,0-7,3.3-7,7.2V192.6z"/>
		<path fill="#F48159" d="M272.6,188.7c0,5.2,1.9,9.8,7.1,9.8h25.5c5.2,0,9.4-4.5,9.4-9.8l0,0c0-5.2-4.2-9.8-9.4-9.8h-25.5
			C274.5,179,272.6,183.5,272.6,188.7L272.6,188.7z"/>
		<path fill="#F48159" d="M300.2,179h10.5c6.1,0,11,5.2,11,11.3v18.9c0,6.1-6.4,17.9-21.3,17.9L300.2,179z"/>
		<g opacity="0.5">
			<path fill="#FFFFFF" d="M280.7,192.6h2.6c2.3,0,4.3-1.8,4.3-4.1v-1.2c0-2.3-1.9-4.4-4.3-4.4h-2.6"/>
			<path fill="#FFFFFF" d="M280.7,182.9h-3.5c-0.3,0-0.4,0.5-0.4,0.8v8.4c0,0.3,0.1,0.5,0.4,0.5h3.5"/>
		</g>
		<path opacity="0.4" fill="#FFFFFF" d="M277.8,182.9h-0.5c-0.3,0-0.4,0.5-0.4,0.8v8.4c0,0.3,0.1,0.5,0.4,0.5h0.5"/>
		<path fill="none" d="M278.7,198.4"/>
		<path fill="#333333" d="M307.5,235.1c0,1.5-1.2,2.7-2.7,2.7h-32.5c-1.5,0-2.7-1.2-2.7-2.7v-7.8c0-1.5,1.2-2.7,2.7-2.7h32.5
			c1.5,0,2.7,1.2,2.7,2.7V235.1z"/>
		<polygon fill="#B3B3B3" points="279.2,228.4 275.9,234.1 272.6,228.4 		"/>
		<polygon fill="#B3B3B3" points="269.5,234.5 263.8,231.2 269.5,227.9 		"/>
		<polygon fill="#B3B3B3" points="307.5,227.9 313.2,231.2 307.5,234.5 		"/>
		<polygon fill="#B3B3B3" points="281.5,234.1 284.8,228.4 288,234.1 		"/>
		<polygon fill="#B3B3B3" points="296.9,228.4 293.6,234.1 290.3,228.4 		"/>
		<polygon fill="#B3B3B3" points="299.2,234.1 302.5,228.4 305.8,234.1 		"/>
		<polygon fill="#B3B3B3" points="300.2,237.9 296.9,243.5 293.6,237.9 		"/>
		<polygon fill="#B3B3B3" points="284.8,237.9 281.5,243.5 278.2,237.9 		"/>
		<polygon fill="#B3B3B3" points="278.2,224.6 281.5,218.9 284.8,224.6 		"/>
		<polygon fill="#B3B3B3" points="293.6,224.6 296.9,218.9 300.2,224.6 		"/>
		<rect x="273.6" y="262.9" fill="#333333" width="28.9" height="23.5"/>
	</g>
	<g>
		<path fill="#E49308" d="M75.3,394.8c-0.4,0.5-1.2,0.6-1.7,0.2l-13.9-11c-0.5-0.4-0.6-1.2-0.2-1.7l2.7-3.3c0.4-0.5,1.2-0.6,1.7-0.2
			l13.9,11c0.5,0.4,0.6,1.2,0.2,1.7L75.3,394.8z"/>
		<g>
			
				<rect x="81.8" y="293.2" transform="matrix(0.6226 -0.7825 0.7825 0.6226 -201.776 179.3319)" fill="#F9B256" width="6.5" height="11.4"/>
			<polygon fill="#E49307" points="203.3,233.4 147.3,247.8 148.7,190 			"/>
			
				<rect x="94.1" y="277.7" transform="matrix(0.6226 -0.7825 0.7825 0.6226 -184.9864 183.134)" fill="#F9B256" width="6.5" height="11.4"/>
			
				<rect x="106.4" y="262.2" transform="matrix(0.6226 -0.7825 0.7825 0.6226 -168.3004 186.9126)" fill="#F9B256" width="6.5" height="11.4"/>
			<g>
				<path fill="#FBCB43" d="M162.9,328.2l-32.1,40.3c-11.6,14.6-32.7,17.1-47.4,5.5c-14.7-11.7-16.9-32.8-5.3-47.4l68.8-86.5
					l7.9,6.3L86,332.9c-8.2,10.3-6.8,25.1,3.6,33.4c10.4,8.3,25.1,6.3,33.3-4l32.1-40.3L162.9,328.2z"/>
			</g>
			<path fill="#F48159" d="M154.7,346.3c2.7,2.1,3.1,6,1,8.7c-2.1,2.7-6,3.1-8.7,1"/>
			<path fill="#F48159" d="M167,330.8c2.7,2.1,3.1,6,1,8.7c-2.1,2.7-6,3.1-8.7,1"/>
			<path fill="#F48159" d="M179.3,315.4c2.7,2.1,3.1,6,1,8.7c-2.1,2.7-6,3.1-8.7,1"/>
			<g>
				<defs>
					<path id="SVGID_1_" d="M162.9,328.2l-32.1,40.3c-11.6,14.6-32.7,17.1-47.4,5.5c-14.7-11.7-16.9-32.8-5.3-47.4l94-118.1l7.9,6.3
						L86,332.9c-8.2,10.3-6.8,25.1,3.6,33.4c10.4,8.3,25.1,6.3,33.3-4l32.1-40.3L162.9,328.2z"/>
				</defs>
				<clipPath id="SVGID_2_">
					<use xlink:href="#SVGID_1_"  overflow="visible"/>
				</clipPath>
				<polygon clip-path="url(#SVGID_2_)" fill="#CCCCCC" points="95.6,358.2 96.8,367.9 83.6,384.5 82,375.8 				"/>
			</g>
			<path fill="#FBCB43" d="M191.7,257.2c9.3,7.4,11,21,3.7,30.2l-55.6,69.9l-7.9-6.3l55.6-69.9c3.9-4.8,3-12.2-2-16.2"/>
			
				<rect x="111.8" y="283" transform="matrix(0.6226 -0.7825 0.7825 0.6226 -209.8036 214.9438)" fill="#F48159" width="12.4" height="84"/>
			
				<rect x="124.1" y="267.5" transform="matrix(0.6226 -0.7825 0.7825 0.6226 -193.049 218.7379)" fill="#F48159" width="12.4" height="84"/>
			
				<rect x="136.4" y="252" transform="matrix(0.6226 -0.7825 0.7825 0.6226 -176.2938 222.5322)" fill="#F48159" width="12.4" height="84"/>
			<path fill="#FBCB43" d="M185.4,264.8c-5-4-12.5-3.3-16.4,1.6l-95.5,120l-6.6-5.2l95.5-120c7.3-9.2,20.3-11,29.7-3.6"/>
			
				<rect x="117.3" y="325.9" transform="matrix(0.6226 -0.7825 0.7825 0.6226 -211.1552 220.7495)" fill="#CCCCCC" width="11.9" height="6.7"/>
			
				<rect x="129.5" y="310.4" transform="matrix(0.6226 -0.7825 0.7825 0.6226 -194.3485 224.5554)" fill="#CCCCCC" width="12.3" height="6.7"/>
			
				<rect x="141.8" y="295" transform="matrix(0.6226 -0.7825 0.7825 0.6226 -177.6479 228.3373)" fill="#CCCCCC" width="12.3" height="6.7"/>
			<path fill="#E49308" d="M83.4,289.6c0.6,0.5,0.7,1.4,0.2,2l-6,7.5c-0.5,0.6-1.4,0.7-2,0.2l0,0c-0.6-0.5-0.7-1.4-0.2-2l6-7.5
				C81.9,289.2,82.8,289.1,83.4,289.6L83.4,289.6z"/>
			<path fill="#E49308" d="M95.7,274.1c0.6,0.5,0.7,1.4,0.2,2l-6,7.5c-0.5,0.6-1.4,0.7-2,0.2l0,0c-0.6-0.5-0.7-1.4-0.2-2l6-7.5
				C94.2,273.7,95.1,273.6,95.7,274.1L95.7,274.1z"/>
			<path fill="#E49308" d="M107.9,258.7c0.6,0.5,0.7,1.4,0.2,2l-6,7.5c-0.5,0.6-1.4,0.7-2,0.2l0,0c-0.6-0.5-0.7-1.4-0.2-2l6-7.5
				C106.4,258.3,107.3,258.2,107.9,258.7L107.9,258.7z"/>
		</g>
	</g>
	<g>
		<g>
			<circle fill="#262626" cx="360.4" cy="324" r="61.7"/>
			<circle fill="#FDD835" cx="360.4" cy="324" r="20.2"/>
			<circle fill="#263238" cx="360.4" cy="324" r="3.4"/>
			<path fill="#424242" d="M360.4,273.5c-27.9,0-50.4,22.6-50.4,50.4c0,27.9,22.6,50.4,50.4,50.4s50.4-22.6,50.4-50.4
				C410.8,296.1,388.3,273.5,360.4,273.5z M360.4,373.3c-27.2,0-49.3-22.1-49.3-49.3s22.1-49.3,49.3-49.3
				c27.2,0,49.3,22.1,49.3,49.3S387.6,373.3,360.4,373.3z"/>
			<path fill="#424242" d="M360.4,284.7c-21.7,0-39.2,17.6-39.2,39.2c0,21.7,17.6,39.2,39.2,39.2c21.7,0,39.2-17.6,39.2-39.2
				C399.6,302.3,382.1,284.7,360.4,284.7z M360.4,362.1c-21,0-38.1-17.1-38.1-38.1c0-21,17.1-38.1,38.1-38.1s38.1,17.1,38.1,38.1
				C398.5,345,381.4,362.1,360.4,362.1z"/>
		</g>
		<g>
			<rect x="230.4" y="258.9" fill="#00ACC1" width="130" height="130"/>
			<rect x="258.6" y="275.8" fill="#FDD835" width="31.2" height="8.3"/>
			<circle fill="#00BCD4" cx="282.4" cy="335" r="23.8"/>
			<polygon fill="#FF4081" points="283.1,334.2 308.4,290.4 333.7,334.2 			"/>
			<g>
				<path fill="#FDD835" d="M328.7,358.8c-0.3,0-0.6-0.3-0.6-0.6c0-1.5-0.9-2.2-2-3c-1.2-0.9-2.5-1.9-2.5-3.9c0-2,1.3-3,2.5-3.9
					c1.1-0.8,2-1.6,2-3c0-1.5-0.9-2.2-2-3c-1.2-0.9-2.5-1.9-2.5-3.9c0-2,1.3-3,2.5-3.9c1.1-0.8,2-1.6,2-3c0-1.5-0.9-2.2-2-3
					c-1.2-0.9-2.5-1.9-2.5-3.9c0-2,1.3-3,2.5-3.9c1.1-0.8,2-1.6,2-3c0-0.3,0.3-0.6,0.6-0.6s0.6,0.2,0.6,0.6c0,2-1.3,3-2.5,3.9
					c-1.1,0.8-2,1.6-2,3s0.9,2.2,2,3c1.2,0.9,2.5,1.9,2.5,3.9c0,2-1.3,3-2.5,3.9c-1.1,0.8-2,1.6-2,3c0,1.5,0.9,2.2,2,3
					c1.2,0.9,2.5,1.9,2.5,3.9c0,2-1.3,3-2.5,3.9c-1.1,0.8-2,1.6-2,3c0,1.5,0.9,2.2,2,3c1.2,0.9,2.5,1.9,2.5,3.9
					C329.2,358.6,329,358.8,328.7,358.8z"/>
				<path fill="#FDD835" d="M312.8,358.8c-0.3,0-0.6-0.3-0.6-0.6c0-1.5-0.9-2.2-2-3c-1.2-0.9-2.5-1.9-2.5-3.9c0-2,1.3-3,2.5-3.9
					c1.1-0.8,2-1.6,2-3c0-1.5-0.9-2.2-2-3c-1.2-0.9-2.5-1.9-2.5-3.9c0-2,1.3-3,2.5-3.9c1.1-0.8,2-1.6,2-3c0-1.5-0.9-2.2-2-3
					c-1.2-0.9-2.5-1.9-2.5-3.9c0-2,1.3-3,2.5-3.9c1.1-0.8,2-1.6,2-3c0-0.3,0.3-0.6,0.6-0.6c0.3,0,0.6,0.2,0.6,0.6c0,2-1.3,3-2.5,3.9
					c-1.1,0.8-2,1.6-2,3s0.9,2.2,2,3c1.2,0.9,2.5,1.9,2.5,3.9c0,2-1.3,3-2.5,3.9c-1.1,0.8-2,1.6-2,3c0,1.5,0.9,2.2,2,3
					c1.2,0.9,2.5,1.9,2.5,3.9c0,2-1.3,3-2.5,3.9c-1.1,0.8-2,1.6-2,3c0,1.5,0.9,2.2,2,3c1.2,0.9,2.5,1.9,2.5,3.9
					C313.4,358.6,313.1,358.8,312.8,358.8z"/>
				<path fill="#FDD835" d="M320.8,358.8c-0.3,0-0.6-0.3-0.6-0.6c0-1.5-0.9-2.2-2-3c-1.2-0.9-2.5-1.9-2.5-3.9c0-2,1.3-3,2.5-3.9
					c1.1-0.8,2-1.6,2-3c0-1.5-0.9-2.2-2-3c-1.2-0.9-2.5-1.9-2.5-3.9c0-2,1.3-3,2.5-3.9c1.1-0.8,2-1.6,2-3c0-1.5-0.9-2.2-2-3
					c-1.2-0.9-2.5-1.9-2.5-3.9c0-2,1.3-3,2.5-3.9c1.1-0.8,2-1.6,2-3c0-0.3,0.3-0.6,0.6-0.6s0.6,0.2,0.6,0.6c0,2-1.3,3-2.5,3.9
					c-1.1,0.8-2,1.6-2,3s0.9,2.2,2,3c1.2,0.9,2.5,1.9,2.5,3.9c0,2-1.3,3-2.5,3.9c-1.1,0.8-2,1.6-2,3c0,1.5,0.9,2.2,2,3
					c1.2,0.9,2.5,1.9,2.5,3.9c0,2-1.3,3-2.5,3.9c-1.1,0.8-2,1.6-2,3c0,1.5,0.9,2.2,2,3c1.2,0.9,2.5,1.9,2.5,3.9
					C321.4,358.6,321.1,358.8,320.8,358.8z"/>
			</g>
		</g>
		<linearGradient id="SVGID_3_" gradientUnits="userSpaceOnUse" x1="392.3379" y1="323.308" x2="365.4343" y2="323.308">
			<stop  offset="0" style="stop-color:#FFFFFF"/>
			<stop  offset="1" style="stop-color:#000000"/>
		</linearGradient>
		<rect x="360.4" y="261" opacity="0.2" fill="url(#SVGID_3_)" width="3.4" height="124.6"/>
	</g>
	<g>
		<path fill="#757575" d="M188.2,309.7h-10.4v-11.6c0-9.2,7.4-16.6,16.6-16.6h43c9.2,0,16.6,7.4,16.6,16.6v10.5h-10.4v-10.5
			c0-3.4-2.8-6.2-6.2-6.2h-43c-3.4,0-6.2,2.8-6.2,6.2V309.7z"/>
		<rect x="123.4" y="307.6" fill="#E0E0E0" width="182.6" height="96"/>
		<circle fill="#1A1A1A" cx="156.8" cy="363" r="24"/>
		<circle fill="#00ACC1" cx="156.8" cy="363" r="10.4"/>
		<circle fill="#1A1A1A" cx="272.7" cy="363" r="24"/>
		<circle fill="#00ACC1" cx="272.7" cy="363" r="10.4"/>
		<rect x="187.1" y="338.9" fill="#757575" width="54.3" height="37.6"/>
		<rect x="193.4" y="349.4" fill="#00ACC1" width="41.7" height="13.6"/>
		<rect x="202.8" y="353.6" fill="#00ACC1" width="23" height="6.3"/>
		<circle fill="#333333" cx="198" cy="356.6" r="2.7"/>
		<path fill="#333333" d="M233.2,356.6c0,1.5-1.2,2.7-2.7,2.7c-1.5,0-2.7-1.2-2.7-2.7c0-1.5,1.2-2.7,2.7-2.7
			C232,353.9,233.2,355.1,233.2,356.6z"/>
		<rect x="177.7" y="301.4" fill="#CCCCCC" width="10.4" height="6.3"/>
		<rect x="243.5" y="301.4" fill="#CCCCCC" width="10.4" height="6.3"/>
		<rect x="187.1" y="380.7" fill="#CCCCCC" width="9.2" height="9.4"/>
		<rect x="198.4" y="380.7" fill="#CCCCCC" width="9.2" height="9.4"/>
		<rect x="209.6" y="380.7" fill="#CCCCCC" width="9.2" height="9.4"/>
		<rect x="220.9" y="380.7" fill="#CCCCCC" width="9.2" height="9.4"/>
		<rect x="232.2" y="380.7" fill="#CCCCCC" width="9.2" height="9.4"/>
		<rect x="156.8" y="319.1" fill="#CCCCCC" width="125.2" height="9.4"/>
		<circle fill="#757575" cx="141.2" cy="323.3" r="8.3"/>
		<path fill="#CCCCCC" d="M147.1,317.4c3.3,3.3,3.3,8.6,0,11.8c-3.3,3.3-8.5,3.3-11.8,0"/>
		<circle fill="#757575" cx="292" cy="317.6" r="4.7"/>
		<path fill="#CCCCCC" d="M295.3,314.2c1.8,1.8,1.8,4.8,0,6.6c-1.8,1.8-4.8,1.8-6.6,0"/>
		<circle fill="#757575" cx="292" cy="330.1" r="4.7"/>
		<path fill="#CCCCCC" d="M295.3,326.8c1.8,1.8,1.8,4.8,0,6.6c-1.8,1.8-4.8,1.8-6.6,0"/>
		<path fill="#CCCCCC" d="M164.2,355.6c4.1,4.1,4.1,10.7,0,14.8c-4.1,4.1-10.7,4.1-14.8,0"/>
		<path fill="#CCCCCC" d="M280.1,355.6c4.1,4.1,4.1,10.7,0,14.8c-4.1,4.1-10.7,4.1-14.8,0"/>
		<rect x="156.8" y="319.1" fill="#757575" width="125.2" height="4.2"/>
		<rect x="190.2" y="281.5" fill="#BDBDBD" width="49.1" height="10.4"/>
		<rect x="187.1" y="394.3" fill="#757575" width="54.3" height="9.4"/>
		<rect x="132.8" y="394.3" fill="#757575" width="48" height="9.4"/>
		<rect x="248.7" y="394.3" fill="#757575" width="48" height="9.4"/>
		<path fill="#00ACC1" d="M235.1,370.8c0,0.8-0.7,1.5-1.5,1.5h-38.7c-0.8,0-1.5-0.7-1.5-1.5v-0.1c0-0.8,0.7-1.5,1.5-1.5h38.7
			c0.8,0,1.5,0.7,1.5,1.5V370.8z"/>
	</g>
	<polygon fill="#F48159" points="192.1,172.3 187.7,172.3 187.7,137 192.1,138.9 	"/>
	<polygon fill="#F48159" points="215,161.9 210.6,161.9 210.6,133.5 215,129.4 	"/>
	<circle fill="#4D4D4D" cx="209" cy="161.6" r="6"/>
	<circle fill="#4D4D4D" cx="186.1" cy="172.3" r="6"/>
	<polygon fill="#CCCCCC" points="192.1,158.5 187.7,151.2 187.7,149.1 192.1,147.8 	"/>
	<polygon fill="#CCCCCC" points="215,149.5 210.6,142.3 210.6,140.4 215,140.9 	"/>
	<polygon fill="#F9B256" points="215,140.9 187.7,149.1 187.7,137 215,128.8 	"/>
	<polygon opacity="0.3" fill="#262626" points="336.8,385.1 306.1,385.1 306.1,314.2 313.4,314.2 	"/>
	<g>
		<rect x="293.9" y="380.9" fill="#FACB43" width="92.7" height="2.4"/>
		<rect x="289.5" y="380.9" fill="#4D4D4D" width="4.4" height="10.8"/>
		<rect x="386.6" y="380.9" fill="#4D4D4D" width="4.4" height="10.8"/>
		<path fill="#4D4D4D" d="M349,383.3h-5.4h-6.7h-10.6h-32.3v19.2c0,7.7,6.3,14,14,14h15c7.7,0,14-6.3,14-14v-2.6
			c0.3-1.5,1.7-2.7,3.3-2.7c1.9,0,3.4,1.5,3.4,3.4v1.9c0,7.7,6.3,14,14,14h15c7.7,0,14-6.3,14-14v-19.2H349z"/>
		<g>
			<path fill="#CCCCCC" d="M337.8,398.3c-0.4,0.5-0.8,1-0.9,1.7v2.6c0,7.7-6.3,14-14,14H318c7.7,0,14-6.3,14-14c0,0,0-1.4,0-2.6
				c0-4.7,7-5.7,10.3-1.9C342.3,398.1,339.8,396.2,337.8,398.3z"/>
			<path fill="#CCCCCC" d="M386.6,380.9h-0.4v10.8h-4.4v10.9c0,7.7-6.3,14-14,14h4.8c7.7,0,14-6.3,14-14v-10.9h4.4v-10.8H386.6z"/>
		</g>
		<polyline opacity="0.2" fill="#F0F0F0" points="298.2,385.6 307.2,385.6 298.2,400.8 		"/>
		<polygon opacity="0.2" fill="#F0F0F0" points="300.2,411.1 298.7,405.7 311.5,385.6 316.3,385.6 		"/>
	</g>
	<polygon fill="#FACB43" points="405.7,230.6 389.6,230.6 396.5,218.6 412.5,218.6 	"/>
	<polygon fill="#FACB43" points="417.5,226 388.5,252.9 402,226 	"/>
	<polygon fill="#FACB43" points="420.3,169.2 410.6,169.2 414.8,162 424.4,162 	"/>
	<polygon fill="#FACB43" points="427.4,166.4 410,182.6 418.1,166.4 	"/>
	<polygon fill="#FACB43" points="445.6,211.2 436,211.2 440.1,203.9 449.8,203.9 	"/>
	<polygon fill="#FACB43" points="452.7,208.4 435.3,224.6 443.4,208.4 	"/>
</g>
</svg>
