<?xml version="1.0" encoding="utf-8"?>
<!-- Generator: Adobe Illustrator 17.1.0, SVG Export Plug-In . SVG Version: 6.00 Build 0)  -->
<!DOCTYPE svg PUBLIC "-//W3C//DTD SVG 1.1//EN" "http://www.w3.org/Graphics/SVG/1.1/DTD/svg11.dtd">
<svg version="1.1" id="Layer_1" xmlns="http://www.w3.org/2000/svg" xmlns:xlink="http://www.w3.org/1999/xlink" x="0px" y="0px"
	 viewBox="0 0 512 640" enable-background="new 0 0 512 640" xml:space="preserve">
<polygon fill="#FFF59D" points="198.7,329.5 208.1,354.4 245.7,326.3 "/>
<rect x="302" y="384" fill="#37474F" width="74" height="32"/>
<g>
	<path fill="#37474F" d="M369.7,424.7c-4.7,0-9.4-1.5-13.5-4.6c-9.5-7.4-11.2-21.2-3.8-30.7c0.7-0.9,1.5-1.8,2.4-2.9
		c29.6-34.7,19.9-51.3,6.5-62.9c-9.1-7.9-10.1-21.7-2.2-30.9c7.9-9.1,21.7-10.1,30.9-2.2c24.9,21.5,33.6,49.8,24.6,79.4
		c-6.6,21.6-20.5,37.9-26.5,44.9c-0.5,0.6-0.9,1.1-1.2,1.5C382.6,421.8,376.2,424.7,369.7,424.7z"/>
</g>
<path fill="#263238" d="M390,290.4c-5.9-5.1-13.8-6.5-20.7-4.4c2.8,0.9,7,2.4,9.5,4.3c73.7,55.4-8.7,130-4.7,125.9
	c3.3-3.3-6.7,6.2-10.8,7.5c2.1,0.6,4.2,1,6.4,1c6.5,0,12.9-2.9,17.3-8.4c0.3-0.4,0.7-0.8,1.2-1.5c6-7,19.9-23.3,26.5-44.9
	C423.6,340.2,414.9,312,390,290.4z"/>
<circle fill="#FFF59D" cx="154.3" cy="365" r="80.4"/>
<path fill="#FDD835" d="M148.1,250.6c5-6.8,7.5-15.4,6.4-24.4c-2.3-18.7-19.3-31.9-37.9-29.6c-18.7,2.3-31.9,19.3-29.6,37.9
	s19.3,31.9,37.9,29.6c7.4-0.9,14-4.2,19-8.9l9.7,4.9L148.1,250.6z"/>
<path fill="#FFEE58" d="M242.3,154.5c-28.5-6.5-57,11.3-63.5,39.9c-6.5,28.6,11.3,57,39.9,63.5c12.7,2.9,25.5,1,36.2-4.6l11.4,13.1
	l-2.7-18.7c9.1-7.2,15.8-17.4,18.6-29.6C288.7,189.4,270.9,161,242.3,154.5z"/>
<g>
	<rect x="286.1" y="439.3" fill="#334151" width="130.8" height="9.5"/>
	<path fill="#546E7A" d="M364.1,383c-8.8,0-12.6,7.3-12.6,15.2v41.1h51.5C402.9,406.4,379.8,383,364.1,383z"/>
</g>
<g>
	
		<rect x="259.4" y="357.2" transform="matrix(0.7925 0.6099 -0.6099 0.7925 280.4182 -101.56)" fill="#546E7A" width="60.1" height="8.3"/>
</g>
<g>
	<path fill="#546E7A" d="M383.3,302.4l10.3-13.4l-13-10.1l-32.2,41.7l13,10.1l8.6-11.1c0.9,0.7,2,1.2,3.2,1.6
		c5.8,1.8,11.9-1.4,13.7-7.2C388.2,309.8,386.6,305.2,383.3,302.4z"/>
	
		<rect x="324.3" y="237.6" transform="matrix(0.7919 0.6107 -0.6107 0.7919 247.7496 -151.5608)" fill="#37474F" width="43.8" height="100.2"/>
	
		<rect x="369.7" y="235.8" transform="matrix(0.7919 0.6107 -0.6107 0.7919 227.4712 -182.1556)" fill="#546E7A" width="22.5" height="13.6"/>
	
		<rect x="298" y="326.3" transform="matrix(0.7919 0.6107 -0.6107 0.7919 267.4494 -121.8713)" fill="#546E7A" width="28.9" height="10.3"/>
	
		<rect x="297.4" y="334.4" transform="matrix(0.7919 0.6107 -0.6107 0.7919 271.0746 -116.3823)" fill="#263238" width="17.7" height="10.1"/>
</g>
<g>
	<circle fill="#FFFFFF" cx="376.4" cy="310.9" r="6"/>
</g>
<g>
	<circle fill="#FFFFFF" cx="365.4" cy="396.9" r="6"/>
</g>
<g>
	<path fill="#827717" d="M104.7,231.1H100v3.3h5.5v1.8h-7.8v-11.7h7.8v1.8H100v2.9h4.7V231.1z"/>
	<path fill="#827717" d="M114.1,230.2h-7.2v-1.9h7.2V230.2z M114.1,233.7h-7.2v-1.9h7.2V233.7z"/>
	<path fill="#827717" d="M119.5,224.5l3.1,8.6l3.1-8.6h3.1v11.7h-2.3v-3.4l0.2-5.4l-3.2,8.8h-1.6l-3.2-8.8l0.2,5.4v3.4h-2.3v-11.7
		H119.5z"/>
	<path fill="#827717" d="M140,232.3c-0.1,1.2-0.5,2.2-1.3,2.9c-0.8,0.7-1.9,1.1-3.3,1.1c-1.5,0-2.7-0.5-3.5-1.5s-1.3-2.4-1.3-4.1
		v-0.8c0-1.7,0.4-3.1,1.3-4.1c0.9-1,2-1.5,3.6-1.5c1.4,0,2.5,0.4,3.3,1.1c0.8,0.7,1.2,1.7,1.4,3h-2.3c-0.1-0.8-0.3-1.3-0.6-1.7
		c-0.3-0.4-0.9-0.6-1.7-0.6c-0.8,0-1.5,0.3-1.9,0.9c-0.4,0.6-0.6,1.6-0.6,2.8v0.8c0,1.3,0.2,2.2,0.6,2.8c0.4,0.6,1,0.9,1.9,0.9
		c0.8,0,1.3-0.2,1.7-0.5c0.4-0.4,0.6-0.9,0.7-1.7H140z"/>
	<path fill="#827717" d="M146.5,230.8h-5v-1.3l2.5-2c0.3-0.3,0.5-0.5,0.6-0.7c0.1-0.2,0.1-0.4,0.1-0.6c0-0.2-0.1-0.4-0.2-0.5
		c-0.1-0.1-0.3-0.2-0.6-0.2c-0.3,0-0.5,0.1-0.7,0.2s-0.2,0.4-0.2,0.6h-1.7c0-0.6,0.2-1.1,0.7-1.5c0.5-0.4,1.1-0.6,1.9-0.6
		c0.8,0,1.4,0.2,1.8,0.5c0.4,0.3,0.6,0.8,0.6,1.5c0,0.4-0.1,0.8-0.4,1.2c-0.3,0.3-0.8,0.8-1.4,1.3l-0.9,0.8h2.8V230.8z"/>
</g>
<rect x="346.4" y="243.4" transform="matrix(0.7919 0.6107 -0.6107 0.7919 252.8494 -154.9319)" fill="#263238" width="14.6" height="100.2"/>
<g>
	<path fill="#D7CCC8" d="M218.6,225.9c-0.4,0-0.9-0.1-1.3-0.3c-1.3-0.7-1.7-2.3-1-3.6l7.9-14.3c0.7-1.3,2.3-1.7,3.6-1
		c1.3,0.7,1.7,2.3,1,3.6l-8,14.3C220.4,225.4,219.5,225.9,218.6,225.9z"/>
	<g>
		<circle fill="#0F9D58" cx="217.2" cy="225.8" r="8"/>
		<path fill="#87CEAC" d="M221.3,219c-0.1-0.1-0.2-0.1-0.4-0.2c-3.9-2.1-8.7-0.6-10.8,3.3c-2.1,3.9-0.6,8.7,3.3,10.8
			c0.1,0.1,0.3,0.1,0.4,0.2L221.3,219z"/>
	</g>
	<g>
		<circle fill="#0F9D58" cx="230.7" cy="204.5" r="8.5"/>
		<path fill="#87CEAC" d="M231.2,196c-0.1,0-0.3,0-0.4,0c-4.7,0-8.5,3.8-8.5,8.5c0,4.7,3.8,8.5,8.5,8.5c0.2,0,0.3,0,0.4,0V196z"/>
	</g>
	<path fill="#D7CCC8" d="M228.1,203.6c-0.9,0-1.7-0.4-2.3-1.2l-7.9-12.7c-0.8-1.2-0.4-2.9,0.8-3.7c1.2-0.8,2.9-0.4,3.7,0.8l7.9,12.7
		c0.8,1.2,0.4,2.9-0.8,3.7C229.1,203.5,228.6,203.6,228.1,203.6z"/>
	<path fill="#D7CCC8" d="M249.3,211.6c-0.2,0-0.5,0-0.7-0.1l-13.2-3.7c-1.4-0.4-2.2-1.9-1.8-3.3c0.4-1.4,1.9-2.2,3.3-1.8l13.2,3.7
		c1.4,0.4,2.2,1.9,1.8,3.3C251.5,210.8,250.5,211.6,249.3,211.6z"/>
	<g>
		<circle fill="#0F9D58" cx="219.1" cy="186.1" r="6.9"/>
		<path fill="#87CEAC" d="M219.5,179.2c-0.1,0-0.2,0-0.4,0c-3.8,0-6.9,3.1-6.9,6.9c0,3.8,3.1,6.9,6.9,6.9c0.1,0,0.2,0,0.4,0V179.2z"
			/>
	</g>
	<g>
		<circle fill="#0F9D58" cx="253.7" cy="210.4" r="8"/>
		<path fill="#87CEAC" d="M254.1,202.5c-0.1,0-0.3,0-0.4,0c-4.4,0-8,3.6-8,8c0,4.4,3.6,8,8,8c0.1,0,0.3,0,0.4,0V202.5z"/>
	</g>
</g>
<g>
	<path fill="#E2E0CE" d="M151.7,356.2V324h-18.2v32.1h-0.2L110.1,394c-3.2,7.4,3,10,8.5,10h47.7c5.5,0,12.9-2.9,8.5-10L151.7,356.2
		L151.7,356.2z"/>
	<path fill="#7CB342" d="M163,374.7h-41.1L110.1,394c-3.2,7.4,3,10,8.5,10h47.7c5.5,0,12.9-2.9,8.5-10L163,374.7z"/>
	<path fill="#558B2F" d="M163,374.7h-19.7V404h22.9c5.5,0,12.9-2.9,8.5-10L163,374.7z"/>
	<circle opacity="0.2" fill="#FFFFFF" cx="148.9" cy="397.6" r="2.7"/>
	<circle opacity="0.2" fill="#FFFFFF" cx="150.1" cy="381.1" r="2.3"/>
	<circle opacity="0.2" fill="#FFFFFF" cx="163.7" cy="397.6" r="2.9"/>
	<circle opacity="0.2" fill="#FFFFFF" cx="153.7" cy="391.1" r="1.6"/>
	<circle opacity="0.2" fill="#FFFFFF" cx="161.4" cy="382.2" r="1.8"/>
	<circle opacity="0.2" fill="#FFFFFF" cx="137.7" cy="381" r="3.2"/>
	<circle opacity="0.2" fill="#FFFFFF" cx="137.7" cy="397.6" r="2.3"/>
	<circle opacity="0.2" fill="#FFFFFF" cx="122.9" cy="385.4" r="2.9"/>
	<circle opacity="0.2" fill="#FFFFFF" cx="130.8" cy="390.2" r="1.6"/>
	<circle opacity="0.2" fill="#FFFFFF" cx="122.9" cy="397.6" r="1.9"/>
	<g>
		<path fill="#E1E1E1" d="M170.3,339.9v58.6c0,8.4,5.7,13,12.8,13l0,0c7.1,0,12.8-4.7,12.8-13v-58.6H170.3z"/>
		<path fill="#A3A3A3" d="M183,411.5C183,411.5,183,411.5,183,411.5c7.1,0,12.8-4.7,12.8-13v-58.6H183V411.5z"/>
		<path fill="#AFB42B" d="M195.8,363v35.5c0,8.4-5.7,13-12.8,13c-7.1,0-12.8-4.7-12.8-13V363H195.8z"/>
		<rect x="170.3" y="340.4" opacity="0.2" fill="#424242" width="25.5" height="2.2"/>
		<g>
			<path fill="#E1E1E1" d="M169,340.4h28.1c1.3,0,2.4-1.3,2.4-2.8c0-1.6-1.1-2.8-2.4-2.8H169c-1.3,0-2.4,1.3-2.4,2.8
				C166.6,339.1,167.7,340.4,169,340.4z"/>
		</g>
		<path fill="#9E9D24" d="M183,411.5C183,411.5,183,411.5,183,411.5c7.1,0,12.8-4.7,12.8-13V363H183V411.5z"/>
		<g>
			<g>
				<rect x="189" y="370.6" fill="#646464" width="6.8" height="1.7"/>
			</g>
			<g>
				<rect x="189" y="381.9" fill="#646464" width="6.8" height="1.7"/>
			</g>
			<g>
				<rect x="189" y="393.1" fill="#646464" width="6.8" height="1.7"/>
			</g>
			<g>
				<rect x="189" y="348.1" fill="#646464" width="6.8" height="1.7"/>
			</g>
			<g>
				<rect x="189" y="359.3" fill="#646464" width="6.8" height="1.7"/>
			</g>
		</g>
	</g>
	<rect x="133.4" y="324" opacity="0.2" fill="#424242" width="18.2" height="2.2"/>
	<g>
		<path fill="#E1E1E1" d="M132.1,324h20.8c1.3,0,2.4-1.3,2.4-2.8c0-1.6-1.1-2.8-2.4-2.8h-20.8c-1.3,0-2.4,1.3-2.4,2.8
			C129.7,322.8,130.8,324,132.1,324z"/>
	</g>
</g>
</svg>
