<?xml version="1.0" encoding="utf-8"?>
<!-- Generator: Adobe Illustrator 17.1.0, SVG Export Plug-In . SVG Version: 6.00 Build 0)  -->
<!DOCTYPE svg PUBLIC "-//W3C//DTD SVG 1.1//EN" "http://www.w3.org/Graphics/SVG/1.1/DTD/svg11.dtd">
<svg version="1.1" id="Layer_1" xmlns="http://www.w3.org/2000/svg" xmlns:xlink="http://www.w3.org/1999/xlink" x="0px" y="0px"
	 viewBox="0 0 512 640" enable-background="new 0 0 512 640" xml:space="preserve">
<g>
	<g>
		<g>
			<path fill="#7E57C2" d="M144.2,163.5c0,1.6-1.3,2.9-2.9,2.9h-31.2c-1.6,0-2.9-1.3-2.9-2.9v-13.6c0-1.6,1.3-2.9,2.9-2.9h31.2
				c1.6,0,2.9,1.3,2.9,2.9V163.5z"/>
			<path fill="#7E57C2" d="M189.3,163.5c0,1.6-1.3,2.9-2.9,2.9h-31.2c-1.6,0-2.9-1.3-2.9-2.9v-13.6c0-1.6,1.3-2.9,2.9-2.9h31.2
				c1.6,0,2.9,1.3,2.9,2.9V163.5z"/>
			<path fill="#7E57C2" d="M234.3,163.5c0,1.6-1.3,2.9-2.9,2.9h-31.2c-1.6,0-2.9-1.3-2.9-2.9v-13.6c0-1.6,1.3-2.9,2.9-2.9h31.2
				c1.6,0,2.9,1.3,2.9,2.9V163.5z"/>
			<path fill="#7E57C2" d="M279.3,163.5c0,1.6-1.3,2.9-2.9,2.9h-31.2c-1.6,0-2.9-1.3-2.9-2.9v-13.6c0-1.6,1.3-2.9,2.9-2.9h31.2
				c1.6,0,2.9,1.3,2.9,2.9V163.5z"/>
			<path fill="#7E57C2" d="M324.4,163.5c0,1.6-1.3,2.9-2.9,2.9h-31.2c-1.6,0-2.9-1.3-2.9-2.9v-13.6c0-1.6,1.3-2.9,2.9-2.9h31.2
				c1.6,0,2.9,1.3,2.9,2.9V163.5z"/>
			<path fill="#7E57C2" d="M369.4,163.5c0,1.6-1.3,2.9-2.9,2.9h-31.2c-1.6,0-2.9-1.3-2.9-2.9v-13.6c0-1.6,1.3-2.9,2.9-2.9h31.2
				c1.6,0,2.9,1.3,2.9,2.9V163.5z"/>
			<path fill="#7E57C2" d="M414.5,163.5c0,1.6-1.3,2.9-2.9,2.9h-31.2c-1.6,0-2.9-1.3-2.9-2.9v-13.6c0-1.6,1.3-2.9,2.9-2.9h31.2
				c1.6,0,2.9,1.3,2.9,2.9V163.5z"/>
			<path fill="#7E57C2" d="M125.7,189.5c0,1.6-1.3,2.9-2.9,2.9H91.5c-1.6,0-2.9-1.3-2.9-2.9V176c0-1.6,1.3-2.9,2.9-2.9h31.2
				c1.6,0,2.9,1.3,2.9,2.9V189.5z"/>
			<path fill="#7E57C2" d="M170.7,189.5c0,1.6-1.3,2.9-2.9,2.9h-31.2c-1.6,0-2.9-1.3-2.9-2.9V176c0-1.6,1.3-2.9,2.9-2.9h31.2
				c1.6,0,2.9,1.3,2.9,2.9V189.5z"/>
			<path fill="#7E57C2" d="M215.8,189.5c0,1.6-1.3,2.9-2.9,2.9h-31.2c-1.6,0-2.9-1.3-2.9-2.9V176c0-1.6,1.3-2.9,2.9-2.9h31.2
				c1.6,0,2.9,1.3,2.9,2.9V189.5z"/>
			<path fill="#7E57C2" d="M260.8,189.5c0,1.6-1.3,2.9-2.9,2.9h-31.2c-1.6,0-2.9-1.3-2.9-2.9V176c0-1.6,1.3-2.9,2.9-2.9h31.2
				c1.6,0,2.9,1.3,2.9,2.9V189.5z"/>
			<path fill="#7E57C2" d="M305.8,189.5c0,1.6-1.3,2.9-2.9,2.9h-31.2c-1.6,0-2.9-1.3-2.9-2.9V176c0-1.6,1.3-2.9,2.9-2.9h31.2
				c1.6,0,2.9,1.3,2.9,2.9V189.5z"/>
			<path fill="#7E57C2" d="M350.9,189.5c0,1.6-1.3,2.9-2.9,2.9h-31.2c-1.6,0-2.9-1.3-2.9-2.9V176c0-1.6,1.3-2.9,2.9-2.9h31.2
				c1.6,0,2.9,1.3,2.9,2.9V189.5z"/>
			<path fill="#7E57C2" d="M395.9,189.5c0,1.6-1.3,2.9-2.9,2.9h-31.2c-1.6,0-2.9-1.3-2.9-2.9V176c0-1.6,1.3-2.9,2.9-2.9H393
				c1.6,0,2.9,1.3,2.9,2.9V189.5z"/>
		</g>
		<g>
			<path fill="#7E57C2" d="M144.2,216.1c0,1.6-1.3,2.9-2.9,2.9h-31.2c-1.6,0-2.9-1.3-2.9-2.9v-13.6c0-1.6,1.3-2.9,2.9-2.9h31.2
				c1.6,0,2.9,1.3,2.9,2.9V216.1z"/>
			<path fill="#7E57C2" d="M189.3,216.1c0,1.6-1.3,2.9-2.9,2.9h-31.2c-1.6,0-2.9-1.3-2.9-2.9v-13.6c0-1.6,1.3-2.9,2.9-2.9h31.2
				c1.6,0,2.9,1.3,2.9,2.9V216.1z"/>
			<path fill="#7E57C2" d="M234.3,216.1c0,1.6-1.3,2.9-2.9,2.9h-31.2c-1.6,0-2.9-1.3-2.9-2.9v-13.6c0-1.6,1.3-2.9,2.9-2.9h31.2
				c1.6,0,2.9,1.3,2.9,2.9V216.1z"/>
			<path fill="#7E57C2" d="M279.3,216.1c0,1.6-1.3,2.9-2.9,2.9h-31.2c-1.6,0-2.9-1.3-2.9-2.9v-13.6c0-1.6,1.3-2.9,2.9-2.9h31.2
				c1.6,0,2.9,1.3,2.9,2.9V216.1z"/>
			<path fill="#7E57C2" d="M324.4,216.1c0,1.6-1.3,2.9-2.9,2.9h-31.2c-1.6,0-2.9-1.3-2.9-2.9v-13.6c0-1.6,1.3-2.9,2.9-2.9h31.2
				c1.6,0,2.9,1.3,2.9,2.9V216.1z"/>
			<path fill="#7E57C2" d="M369.4,216.1c0,1.6-1.3,2.9-2.9,2.9h-31.2c-1.6,0-2.9-1.3-2.9-2.9v-13.6c0-1.6,1.3-2.9,2.9-2.9h31.2
				c1.6,0,2.9,1.3,2.9,2.9V216.1z"/>
			<path fill="#7E57C2" d="M414.5,216.1c0,1.6-1.3,2.9-2.9,2.9h-31.2c-1.6,0-2.9-1.3-2.9-2.9v-13.6c0-1.6,1.3-2.9,2.9-2.9h31.2
				c1.6,0,2.9,1.3,2.9,2.9V216.1z"/>
			<path fill="#7E57C2" d="M125.7,242.1c0,1.6-1.3,2.9-2.9,2.9H91.5c-1.6,0-2.9-1.3-2.9-2.9v-13.6c0-1.6,1.3-2.9,2.9-2.9h31.2
				c1.6,0,2.9,1.3,2.9,2.9V242.1z"/>
			<path fill="#7E57C2" d="M170.7,242.1c0,1.6-1.3,2.9-2.9,2.9h-31.2c-1.6,0-2.9-1.3-2.9-2.9v-13.6c0-1.6,1.3-2.9,2.9-2.9h31.2
				c1.6,0,2.9,1.3,2.9,2.9V242.1z"/>
			<path fill="#7E57C2" d="M215.8,242.1c0,1.6-1.3,2.9-2.9,2.9h-31.2c-1.6,0-2.9-1.3-2.9-2.9v-13.6c0-1.6,1.3-2.9,2.9-2.9h31.2
				c1.6,0,2.9,1.3,2.9,2.9V242.1z"/>
			<path fill="#7E57C2" d="M260.8,242.1c0,1.6-1.3,2.9-2.9,2.9h-31.2c-1.6,0-2.9-1.3-2.9-2.9v-13.6c0-1.6,1.3-2.9,2.9-2.9h31.2
				c1.6,0,2.9,1.3,2.9,2.9V242.1z"/>
			<path fill="#7E57C2" d="M305.8,242.1c0,1.6-1.3,2.9-2.9,2.9h-31.2c-1.6,0-2.9-1.3-2.9-2.9v-13.6c0-1.6,1.3-2.9,2.9-2.9h31.2
				c1.6,0,2.9,1.3,2.9,2.9V242.1z"/>
			<path fill="#7E57C2" d="M350.9,242.1c0,1.6-1.3,2.9-2.9,2.9h-31.2c-1.6,0-2.9-1.3-2.9-2.9v-13.6c0-1.6,1.3-2.9,2.9-2.9h31.2
				c1.6,0,2.9,1.3,2.9,2.9V242.1z"/>
			<path fill="#7E57C2" d="M395.9,242.1c0,1.6-1.3,2.9-2.9,2.9h-31.2c-1.6,0-2.9-1.3-2.9-2.9v-13.6c0-1.6,1.3-2.9,2.9-2.9H393
				c1.6,0,2.9,1.3,2.9,2.9V242.1z"/>
		</g>
		<g>
			<path fill="#7E57C2" d="M144.2,111.9c0,1.6-1.3,2.9-2.9,2.9h-31.2c-1.6,0-2.9-1.3-2.9-2.9V98.3c0-1.6,1.3-2.9,2.9-2.9h31.2
				c1.6,0,2.9,1.3,2.9,2.9V111.9z"/>
			<path fill="#7E57C2" d="M189.3,111.9c0,1.6-1.3,2.9-2.9,2.9h-31.2c-1.6,0-2.9-1.3-2.9-2.9V98.3c0-1.6,1.3-2.9,2.9-2.9h31.2
				c1.6,0,2.9,1.3,2.9,2.9V111.9z"/>
			<path fill="#7E57C2" d="M234.3,111.9c0,1.6-1.3,2.9-2.9,2.9h-31.2c-1.6,0-2.9-1.3-2.9-2.9V98.3c0-1.6,1.3-2.9,2.9-2.9h31.2
				c1.6,0,2.9,1.3,2.9,2.9V111.9z"/>
			<path fill="#7E57C2" d="M279.3,111.9c0,1.6-1.3,2.9-2.9,2.9h-31.2c-1.6,0-2.9-1.3-2.9-2.9V98.3c0-1.6,1.3-2.9,2.9-2.9h31.2
				c1.6,0,2.9,1.3,2.9,2.9V111.9z"/>
			<path fill="#7E57C2" d="M324.4,111.9c0,1.6-1.3,2.9-2.9,2.9h-31.2c-1.6,0-2.9-1.3-2.9-2.9V98.3c0-1.6,1.3-2.9,2.9-2.9h31.2
				c1.6,0,2.9,1.3,2.9,2.9V111.9z"/>
			<path fill="#7E57C2" d="M369.4,111.9c0,1.6-1.3,2.9-2.9,2.9h-31.2c-1.6,0-2.9-1.3-2.9-2.9V98.3c0-1.6,1.3-2.9,2.9-2.9h31.2
				c1.6,0,2.9,1.3,2.9,2.9V111.9z"/>
			<path fill="#7E57C2" d="M414.5,111.9c0,1.6-1.3,2.9-2.9,2.9h-31.2c-1.6,0-2.9-1.3-2.9-2.9V98.3c0-1.6,1.3-2.9,2.9-2.9h31.2
				c1.6,0,2.9,1.3,2.9,2.9V111.9z"/>
			<path fill="#7E57C2" d="M125.7,137.9c0,1.6-1.3,2.9-2.9,2.9H91.5c-1.6,0-2.9-1.3-2.9-2.9v-13.6c0-1.6,1.3-2.9,2.9-2.9h31.2
				c1.6,0,2.9,1.3,2.9,2.9V137.9z"/>
			<path fill="#7E57C2" d="M170.7,137.9c0,1.6-1.3,2.9-2.9,2.9h-31.2c-1.6,0-2.9-1.3-2.9-2.9v-13.6c0-1.6,1.3-2.9,2.9-2.9h31.2
				c1.6,0,2.9,1.3,2.9,2.9V137.9z"/>
			<path fill="#7E57C2" d="M215.8,137.9c0,1.6-1.3,2.9-2.9,2.9h-31.2c-1.6,0-2.9-1.3-2.9-2.9v-13.6c0-1.6,1.3-2.9,2.9-2.9h31.2
				c1.6,0,2.9,1.3,2.9,2.9V137.9z"/>
			<path fill="#7E57C2" d="M260.8,137.9c0,1.6-1.3,2.9-2.9,2.9h-31.2c-1.6,0-2.9-1.3-2.9-2.9v-13.6c0-1.6,1.3-2.9,2.9-2.9h31.2
				c1.6,0,2.9,1.3,2.9,2.9V137.9z"/>
			<path fill="#7E57C2" d="M305.8,137.9c0,1.6-1.3,2.9-2.9,2.9h-31.2c-1.6,0-2.9-1.3-2.9-2.9v-13.6c0-1.6,1.3-2.9,2.9-2.9h31.2
				c1.6,0,2.9,1.3,2.9,2.9V137.9z"/>
			<path fill="#7E57C2" d="M350.9,137.9c0,1.6-1.3,2.9-2.9,2.9h-31.2c-1.6,0-2.9-1.3-2.9-2.9v-13.6c0-1.6,1.3-2.9,2.9-2.9h31.2
				c1.6,0,2.9,1.3,2.9,2.9V137.9z"/>
			<path fill="#7E57C2" d="M395.9,137.9c0,1.6-1.3,2.9-2.9,2.9h-31.2c-1.6,0-2.9-1.3-2.9-2.9v-13.6c0-1.6,1.3-2.9,2.9-2.9H393
				c1.6,0,2.9,1.3,2.9,2.9V137.9z"/>
		</g>
		<g>
			<path fill="#7E57C2" d="M144.2,268.6c0,1.6-1.3,2.9-2.9,2.9h-31.2c-1.6,0-2.9-1.3-2.9-2.9V255c0-1.6,1.3-2.9,2.9-2.9h31.2
				c1.6,0,2.9,1.3,2.9,2.9V268.6z"/>
			<path fill="#7E57C2" d="M189.3,268.6c0,1.6-1.3,2.9-2.9,2.9h-31.2c-1.6,0-2.9-1.3-2.9-2.9V255c0-1.6,1.3-2.9,2.9-2.9h31.2
				c1.6,0,2.9,1.3,2.9,2.9V268.6z"/>
			<path fill="#7E57C2" d="M234.3,268.6c0,1.6-1.3,2.9-2.9,2.9h-31.2c-1.6,0-2.9-1.3-2.9-2.9V255c0-1.6,1.3-2.9,2.9-2.9h31.2
				c1.6,0,2.9,1.3,2.9,2.9V268.6z"/>
			<path fill="#7E57C2" d="M279.3,268.6c0,1.6-1.3,2.9-2.9,2.9h-31.2c-1.6,0-2.9-1.3-2.9-2.9V255c0-1.6,1.3-2.9,2.9-2.9h31.2
				c1.6,0,2.9,1.3,2.9,2.9V268.6z"/>
			<path fill="#7E57C2" d="M324.4,268.6c0,1.6-1.3,2.9-2.9,2.9h-31.2c-1.6,0-2.9-1.3-2.9-2.9V255c0-1.6,1.3-2.9,2.9-2.9h31.2
				c1.6,0,2.9,1.3,2.9,2.9V268.6z"/>
			<path fill="#7E57C2" d="M369.4,268.6c0,1.6-1.3,2.9-2.9,2.9h-31.2c-1.6,0-2.9-1.3-2.9-2.9V255c0-1.6,1.3-2.9,2.9-2.9h31.2
				c1.6,0,2.9,1.3,2.9,2.9V268.6z"/>
			<path fill="#7E57C2" d="M414.5,268.6c0,1.6-1.3,2.9-2.9,2.9h-31.2c-1.6,0-2.9-1.3-2.9-2.9V255c0-1.6,1.3-2.9,2.9-2.9h31.2
				c1.6,0,2.9,1.3,2.9,2.9V268.6z"/>
			<path fill="#7E57C2" d="M125.7,294.6c0,1.6-1.3,2.9-2.9,2.9H91.5c-1.6,0-2.9-1.3-2.9-2.9V281c0-1.6,1.3-2.9,2.9-2.9h31.2
				c1.6,0,2.9,1.3,2.9,2.9V294.6z"/>
			<path fill="#7E57C2" d="M170.7,294.6c0,1.6-1.3,2.9-2.9,2.9h-31.2c-1.6,0-2.9-1.3-2.9-2.9V281c0-1.6,1.3-2.9,2.9-2.9h31.2
				c1.6,0,2.9,1.3,2.9,2.9V294.6z"/>
			<path fill="#7E57C2" d="M215.8,294.6c0,1.6-1.3,2.9-2.9,2.9h-31.2c-1.6,0-2.9-1.3-2.9-2.9V281c0-1.6,1.3-2.9,2.9-2.9h31.2
				c1.6,0,2.9,1.3,2.9,2.9V294.6z"/>
			<path fill="#7E57C2" d="M260.8,294.6c0,1.6-1.3,2.9-2.9,2.9h-31.2c-1.6,0-2.9-1.3-2.9-2.9V281c0-1.6,1.3-2.9,2.9-2.9h31.2
				c1.6,0,2.9,1.3,2.9,2.9V294.6z"/>
			<path fill="#7E57C2" d="M305.8,294.6c0,1.6-1.3,2.9-2.9,2.9h-31.2c-1.6,0-2.9-1.3-2.9-2.9V281c0-1.6,1.3-2.9,2.9-2.9h31.2
				c1.6,0,2.9,1.3,2.9,2.9V294.6z"/>
			<path fill="#7E57C2" d="M350.9,294.6c0,1.6-1.3,2.9-2.9,2.9h-31.2c-1.6,0-2.9-1.3-2.9-2.9V281c0-1.6,1.3-2.9,2.9-2.9h31.2
				c1.6,0,2.9,1.3,2.9,2.9V294.6z"/>
			<path fill="#7E57C2" d="M395.9,294.6c0,1.6-1.3,2.9-2.9,2.9h-31.2c-1.6,0-2.9-1.3-2.9-2.9V281c0-1.6,1.3-2.9,2.9-2.9H393
				c1.6,0,2.9,1.3,2.9,2.9V294.6z"/>
		</g>
		<g>
			<path fill="#7E57C2" d="M144.2,372.6c0,1.6-1.3,2.9-2.9,2.9h-31.2c-1.6,0-2.9-1.3-2.9-2.9V359c0-1.6,1.3-2.9,2.9-2.9h31.2
				c1.6,0,2.9,1.3,2.9,2.9V372.6z"/>
			<path fill="#7E57C2" d="M189.3,372.6c0,1.6-1.3,2.9-2.9,2.9h-31.2c-1.6,0-2.9-1.3-2.9-2.9V359c0-1.6,1.3-2.9,2.9-2.9h31.2
				c1.6,0,2.9,1.3,2.9,2.9V372.6z"/>
			<path fill="#7E57C2" d="M234.3,372.6c0,1.6-1.3,2.9-2.9,2.9h-31.2c-1.6,0-2.9-1.3-2.9-2.9V359c0-1.6,1.3-2.9,2.9-2.9h31.2
				c1.6,0,2.9,1.3,2.9,2.9V372.6z"/>
			<path fill="#7E57C2" d="M279.3,372.6c0,1.6-1.3,2.9-2.9,2.9h-31.2c-1.6,0-2.9-1.3-2.9-2.9V359c0-1.6,1.3-2.9,2.9-2.9h31.2
				c1.6,0,2.9,1.3,2.9,2.9V372.6z"/>
			<path fill="#7E57C2" d="M324.4,372.6c0,1.6-1.3,2.9-2.9,2.9h-31.2c-1.6,0-2.9-1.3-2.9-2.9V359c0-1.6,1.3-2.9,2.9-2.9h31.2
				c1.6,0,2.9,1.3,2.9,2.9V372.6z"/>
			<path fill="#7E57C2" d="M369.4,372.6c0,1.6-1.3,2.9-2.9,2.9h-31.2c-1.6,0-2.9-1.3-2.9-2.9V359c0-1.6,1.3-2.9,2.9-2.9h31.2
				c1.6,0,2.9,1.3,2.9,2.9V372.6z"/>
			<path fill="#7E57C2" d="M414.5,372.6c0,1.6-1.3,2.9-2.9,2.9h-31.2c-1.6,0-2.9-1.3-2.9-2.9V359c0-1.6,1.3-2.9,2.9-2.9h31.2
				c1.6,0,2.9,1.3,2.9,2.9V372.6z"/>
			<path fill="#7E57C2" d="M125.7,398.6c0,1.6-1.3,2.9-2.9,2.9H91.5c-1.6,0-2.9-1.3-2.9-2.9V385c0-1.6,1.3-2.9,2.9-2.9h31.2
				c1.6,0,2.9,1.3,2.9,2.9V398.6z"/>
			<path fill="#7E57C2" d="M170.7,398.6c0,1.6-1.3,2.9-2.9,2.9h-31.2c-1.6,0-2.9-1.3-2.9-2.9V385c0-1.6,1.3-2.9,2.9-2.9h31.2
				c1.6,0,2.9,1.3,2.9,2.9V398.6z"/>
			<path fill="#7E57C2" d="M215.8,398.6c0,1.6-1.3,2.9-2.9,2.9h-31.2c-1.6,0-2.9-1.3-2.9-2.9V385c0-1.6,1.3-2.9,2.9-2.9h31.2
				c1.6,0,2.9,1.3,2.9,2.9V398.6z"/>
			<path fill="#7E57C2" d="M260.8,398.6c0,1.6-1.3,2.9-2.9,2.9h-31.2c-1.6,0-2.9-1.3-2.9-2.9V385c0-1.6,1.3-2.9,2.9-2.9h31.2
				c1.6,0,2.9,1.3,2.9,2.9V398.6z"/>
			<path fill="#7E57C2" d="M305.8,398.6c0,1.6-1.3,2.9-2.9,2.9h-31.2c-1.6,0-2.9-1.3-2.9-2.9V385c0-1.6,1.3-2.9,2.9-2.9h31.2
				c1.6,0,2.9,1.3,2.9,2.9V398.6z"/>
			<path fill="#7E57C2" d="M350.9,398.6c0,1.6-1.3,2.9-2.9,2.9h-31.2c-1.6,0-2.9-1.3-2.9-2.9V385c0-1.6,1.3-2.9,2.9-2.9h31.2
				c1.6,0,2.9,1.3,2.9,2.9V398.6z"/>
			<path fill="#7E57C2" d="M395.9,398.6c0,1.6-1.3,2.9-2.9,2.9h-31.2c-1.6,0-2.9-1.3-2.9-2.9V385c0-1.6,1.3-2.9,2.9-2.9H393
				c1.6,0,2.9,1.3,2.9,2.9V398.6z"/>
		</g>
		<g>
			<path fill="#7E57C2" d="M144.2,321.3c0,1.6-1.3,2.9-2.9,2.9h-31.2c-1.6,0-2.9-1.3-2.9-2.9v-13.6c0-1.6,1.3-2.9,2.9-2.9h31.2
				c1.6,0,2.9,1.3,2.9,2.9V321.3z"/>
			<path fill="#7E57C2" d="M189.3,321.3c0,1.6-1.3,2.9-2.9,2.9h-31.2c-1.6,0-2.9-1.3-2.9-2.9v-13.6c0-1.6,1.3-2.9,2.9-2.9h31.2
				c1.6,0,2.9,1.3,2.9,2.9V321.3z"/>
			<path fill="#7E57C2" d="M234.3,321.3c0,1.6-1.3,2.9-2.9,2.9h-31.2c-1.6,0-2.9-1.3-2.9-2.9v-13.6c0-1.6,1.3-2.9,2.9-2.9h31.2
				c1.6,0,2.9,1.3,2.9,2.9V321.3z"/>
			<path fill="#7E57C2" d="M279.3,321.3c0,1.6-1.3,2.9-2.9,2.9h-31.2c-1.6,0-2.9-1.3-2.9-2.9v-13.6c0-1.6,1.3-2.9,2.9-2.9h31.2
				c1.6,0,2.9,1.3,2.9,2.9V321.3z"/>
			<path fill="#7E57C2" d="M324.4,321.3c0,1.6-1.3,2.9-2.9,2.9h-31.2c-1.6,0-2.9-1.3-2.9-2.9v-13.6c0-1.6,1.3-2.9,2.9-2.9h31.2
				c1.6,0,2.9,1.3,2.9,2.9V321.3z"/>
			<path fill="#7E57C2" d="M369.4,321.3c0,1.6-1.3,2.9-2.9,2.9h-31.2c-1.6,0-2.9-1.3-2.9-2.9v-13.6c0-1.6,1.3-2.9,2.9-2.9h31.2
				c1.6,0,2.9,1.3,2.9,2.9V321.3z"/>
			<path fill="#7E57C2" d="M414.5,321.3c0,1.6-1.3,2.9-2.9,2.9h-31.2c-1.6,0-2.9-1.3-2.9-2.9v-13.6c0-1.6,1.3-2.9,2.9-2.9h31.2
				c1.6,0,2.9,1.3,2.9,2.9V321.3z"/>
			<path fill="#7E57C2" d="M125.7,347.3c0,1.6-1.3,2.9-2.9,2.9H91.5c-1.6,0-2.9-1.3-2.9-2.9v-13.6c0-1.6,1.3-2.9,2.9-2.9h31.2
				c1.6,0,2.9,1.3,2.9,2.9V347.3z"/>
			<path fill="#7E57C2" d="M170.7,347.3c0,1.6-1.3,2.9-2.9,2.9h-31.2c-1.6,0-2.9-1.3-2.9-2.9v-13.6c0-1.6,1.3-2.9,2.9-2.9h31.2
				c1.6,0,2.9,1.3,2.9,2.9V347.3z"/>
			<path fill="#7E57C2" d="M215.8,347.3c0,1.6-1.3,2.9-2.9,2.9h-31.2c-1.6,0-2.9-1.3-2.9-2.9v-13.6c0-1.6,1.3-2.9,2.9-2.9h31.2
				c1.6,0,2.9,1.3,2.9,2.9V347.3z"/>
			<path fill="#7E57C2" d="M260.8,347.3c0,1.6-1.3,2.9-2.9,2.9h-31.2c-1.6,0-2.9-1.3-2.9-2.9v-13.6c0-1.6,1.3-2.9,2.9-2.9h31.2
				c1.6,0,2.9,1.3,2.9,2.9V347.3z"/>
			<path fill="#7E57C2" d="M305.8,347.3c0,1.6-1.3,2.9-2.9,2.9h-31.2c-1.6,0-2.9-1.3-2.9-2.9v-13.6c0-1.6,1.3-2.9,2.9-2.9h31.2
				c1.6,0,2.9,1.3,2.9,2.9V347.3z"/>
			<path fill="#7E57C2" d="M350.9,347.3c0,1.6-1.3,2.9-2.9,2.9h-31.2c-1.6,0-2.9-1.3-2.9-2.9v-13.6c0-1.6,1.3-2.9,2.9-2.9h31.2
				c1.6,0,2.9,1.3,2.9,2.9V347.3z"/>
			<path fill="#7E57C2" d="M395.9,347.3c0,1.6-1.3,2.9-2.9,2.9h-31.2c-1.6,0-2.9-1.3-2.9-2.9v-13.6c0-1.6,1.3-2.9,2.9-2.9H393
				c1.6,0,2.9,1.3,2.9,2.9V347.3z"/>
		</g>
	</g>
	<g>
		<rect x="197.6" y="498" fill="#8D6E63" width="17.8" height="1.6"/>
		<rect x="223" y="517.6" fill="#7E57C2" width="17.8" height="1.6"/>
		<rect x="256" y="507" fill="#8D6E63" width="17.8" height="1.6"/>
		<rect x="87.9" y="506.2" fill="#8D6E63" width="17.8" height="1.6"/>
		<polygon fill="#7E57C2" points="422.6,498 431.5,498 431.5,499.6 422.6,499.6 		"/>
		<polygon fill="#7E57C2" points="271.5,494.4 316.5,494.4 316.5,496.1 271.5,496.1 		"/>
		<polygon fill="#7E57C2" points="301.3,514.6 327.2,514.6 327.2,516.3 301.3,516.3 		"/>
		<polygon fill="#7E57C2" points="115.9,492.8 141.8,492.8 141.8,494.4 115.9,494.4 		"/>
		<rect x="142.8" y="511.2" fill="#7E57C2" width="45.5" height="1.6"/>
		
			<rect x="395.3" y="513" transform="matrix(-1 -1.815875e-04 1.815875e-04 -1 819.8027 1027.6942)" fill="#7E57C2" width="29.2" height="1.6"/>
		<rect x="80.5" y="505.3" fill="#7E57C2" width="17.8" height="1.6"/>
	</g>
	<g>
		<path fill="#FDD835" d="M218,497.1c0.3,0,12.5,6.2,12.5,6.2l-33.4,4.8l-9.8-10.7L218,497.1z"/>
		<path fill="#FFF176" d="M218.5,496.5c0.3,0,12.5,6.2,12.5,6.2l-33.4,4.8l-9.8-10.7L218.5,496.5z"/>
		<g>
			<polygon fill="#FFFFFF" points="220.9,502.6 197.5,502.6 193.4,468.5 225.1,468.5 			"/>
			<polygon fill="#E8F0FE" points="219.7,500.5 199.1,500.5 194.9,468.5 223.9,468.5 			"/>
			<polygon fill="#F7CB4D" points="197.9,491.5 199.1,500.5 219.7,500.5 220.9,491.5 			"/>
			<polygon fill="#F57C00" points="198,492.4 199.1,500.5 219.7,500.5 220.7,492.4 			"/>
			<g>
				<polygon fill="#FEF6E0" points="203.5,499.5 198.4,492.3 205.1,479.6 219.6,485.4 218,492.6 211.8,500.5 				"/>
				<polygon fill="#FFCCBC" points="203.5,499.5 211.8,500.5 218,492.6 209.8,494.1 198.4,492.3 				"/>
				<polygon fill="#FFF9C4" points="219.6,485.5 203.5,499.5 211.8,500.5 				"/>
				<polygon fill="#FFE0B2" points="205.1,479.6 211.8,500.5 203.5,499.5 				"/>
			</g>
		</g>
		<polygon opacity="0.3" fill="#B2DFDB" points="197.7,502.6 221.1,502.6 225.1,468.5 		"/>
		<linearGradient id="SVGID_1_" gradientUnits="userSpaceOnUse" x1="226.4487" y1="519.7841" x2="218.799" y2="510.7844">
			<stop  offset="0" style="stop-color:#FFFFFF;stop-opacity:0"/>
			<stop  offset="1" style="stop-color:#E1E1E1"/>
		</linearGradient>
		<polyline fill="url(#SVGID_1_)" points="235.5,513.7 221.2,502.6 197.5,502.6 211.4,518.7 		"/>
	</g>
	<g>
		<linearGradient id="SVGID_2_" gradientUnits="userSpaceOnUse" x1="236.443" y1="508.2592" x2="274.5442" y2="508.2592">
			<stop  offset="0" style="stop-color:#FFFFFF;stop-opacity:0"/>
			<stop  offset="1" style="stop-color:#E1E1E1"/>
		</linearGradient>
		<ellipse fill="url(#SVGID_2_)" cx="255.5" cy="508.3" rx="19.1" ry="6.6"/>
		<ellipse fill="#E1E1E1" cx="254.6" cy="507.4" rx="19.1" ry="6.6"/>
		<ellipse fill="#00ACC1" cx="254.6" cy="507.4" rx="15.2" ry="5.2"/>
		<polygon fill="#FFFFFF" points="267.1,508.5 242.6,508.5 238.1,453.7 271.6,453.7 		"/>
		<polygon fill="#B2DFDB" points="239.9,453.7 244.3,506.5 265.4,506.5 269.8,453.7 		"/>
		<polygon fill="#FFEE58" points="240.2,456.4 269.5,456.4 269.2,460.9 240.5,460.9 		"/>
		<polygon fill="#F6BF26" points="244.3,506.5 265.4,506.5 269.2,460.9 240.5,460.9 		"/>
		<circle fill="#FFF59D" cx="262.4" cy="462.7" r="2.7"/>
		<circle fill="#FFF59D" cx="258.2" cy="468.2" r="1.3"/>
		<circle fill="#FFF59D" cx="260.6" cy="474.9" r="0.9"/>
		<circle fill="#FFF59D" cx="249.7" cy="479.6" r="2.7"/>
		<circle fill="#FFF59D" cx="253.7" cy="490.6" r="1.3"/>
		<circle fill="#FFF59D" cx="246.7" cy="479.2" r="0.9"/>
		<path fill="#F5F5F5" d="M271.6,453.7c0.3-0.9,0.5-1.8,0.5-2.8c0-4.5-3.6-8.1-8.1-8.1c-2.8,0-5.3,1.4-6.7,3.6
			c-0.7-0.5-1.5-0.8-2.4-0.8c-1.6,0-2.9,0.9-3.6,2.2c-0.5-0.1-1.1-0.2-1.6-0.2c-0.4,0-0.8,0-1.2,0.1c-1.1-1.3-2.8-2.1-4.6-2.1
			c-3.3,0-6.1,2.7-6.1,6.1c0,0.7,0.1,1.4,0.3,2v0H271.6z"/>
		<polygon fill="#E1E1E1" points="239.9,453.7 239.9,453.7 240.2,456.4 242,456.4 254.9,456.4 258,456.4 268,456.4 269.5,456.4 
			269.8,453.7 269.7,453.7 		"/>
		<polygon opacity="0.3" fill="#FFB74D" points="242.6,508.5 267.1,508.5 269.8,474.4 		"/>
		<linearGradient id="SVGID_3_" gradientUnits="userSpaceOnUse" x1="288.7361" y1="525.3129" x2="280.3549" y2="521.0941">
			<stop  offset="0" style="stop-color:#FFFFFF;stop-opacity:0"/>
			<stop  offset="1" style="stop-color:#E1E1E1"/>
		</linearGradient>
		<polygon fill="url(#SVGID_3_)" points="242.6,508.5 256,519.5 298.5,519.5 267.1,508.5 		"/>
	</g>
	<g>
		<linearGradient id="SVGID_4_" gradientUnits="userSpaceOnUse" x1="86.7741" y1="502.7213" x2="124.8754" y2="502.7213">
			<stop  offset="0" style="stop-color:#FFFFFF;stop-opacity:0"/>
			<stop  offset="1" style="stop-color:#E1E1E1"/>
		</linearGradient>
		<ellipse fill="url(#SVGID_4_)" cx="105.8" cy="502.7" rx="19.1" ry="6.6"/>
		<ellipse fill="#E1E1E1" cx="104.9" cy="501.8" rx="19.1" ry="6.6"/>
		<ellipse fill="#64DD17" cx="104.9" cy="501.8" rx="15.2" ry="5.2"/>
		<polygon fill="#E0F7FA" points="115.7,500.9 120.1,448.2 90.3,448.2 94.7,500.9 		"/>
		<polygon fill="#FFEE58" points="92.4,474.1 117.9,474.1 117.5,478.6 92.8,478.6 		"/>
		<polygon fill="#F6BF26" points="94.7,500.9 115.7,500.9 117.5,478.6 92.8,478.6 		"/>
		<circle fill="#FFF59D" cx="106.8" cy="481.7" r="0.9"/>
		<circle fill="#FFF59D" cx="102.1" cy="485.8" r="2.2"/>
		<circle fill="#FFF59D" cx="103.5" cy="488.1" r="1.3"/>
		<circle fill="#FFF59D" cx="110.3" cy="495.3" r="0.9"/>
		<polygon fill="#E1E1E1" points="92.3,472.3 92.5,475 117.8,475 118.1,472.3 		"/>
		<polygon opacity="0.3" fill="#FFB74D" points="93,502.9 117.4,502.9 118.8,484.7 		"/>
		<linearGradient id="SVGID_5_" gradientUnits="userSpaceOnUse" x1="138.8603" y1="525.5983" x2="130.4229" y2="518.061">
			<stop  offset="0" style="stop-color:#FFFFFF;stop-opacity:0"/>
			<stop  offset="1" style="stop-color:#E1E1E1"/>
		</linearGradient>
		<polygon fill="url(#SVGID_5_)" points="93,502.9 111.8,519.5 144.6,519.5 144.6,512.4 117.4,502.9 		"/>
		<path fill="#E1E1E1" d="M117.1,470.8c-0.5,0-1,0.2-1.4,0.5c-0.8-2-2.7-3.4-5-3.4c-1.6,0-3.1,0.7-4.1,1.8c-0.2,0-0.4-0.1-0.5-0.1
			c-0.8,0-1.5,0.3-2.1,0.7c-1.1-2.2-3.3-3.7-5.9-3.7c-3.6,0-6.6,2.9-6.6,6.6h28C119.5,471.9,118.4,470.8,117.1,470.8z"/>
		<polygon fill="#FFFFFF" points="120.1,448.2 115.7,500.9 94.7,500.9 90.3,448.2 88.5,448.2 93,502.9 117.4,502.9 121.9,448.2 		
			"/>
		<circle fill="#E1E1E1" cx="114.5" cy="461" r="2.7"/>
		<circle fill="#E1E1E1" cx="116.2" cy="458.9" r="1.3"/>
	</g>
	<g>
		
			<linearGradient id="SVGID_6_" gradientUnits="userSpaceOnUse" x1="607.7517" y1="280.7688" x2="599.1223" y2="277.2947" gradientTransform="matrix(0.9946 -0.1039 0.1039 0.9946 -214.4872 108.0931)">
			<stop  offset="0" style="stop-color:#FFFFFF;stop-opacity:0"/>
			<stop  offset="1" style="stop-color:#E1E1E1"/>
		</linearGradient>
		<polygon fill="url(#SVGID_6_)" points="364,301.9 418,309.8 375,325.6 		"/>
		<g>
			<polygon fill="#81D4FA" points="349.7,300.2 355.9,335 411.7,307.5 			"/>
			<circle fill="#0277BD" cx="366.4" cy="315.2" r="9.5"/>
			<g>
				<polygon fill="#4FC3F7" points="341.7,315 342.1,317.1 352.9,318.1 352.6,316.3 				"/>
				<polygon fill="#4FC3F7" points="352.7,317 353.1,319.1 343.2,323.8 342.9,321.9 				"/>
			</g>
		</g>
		<linearGradient id="SVGID_7_" gradientUnits="userSpaceOnUse" x1="363.2443" y1="310.4614" x2="373.567" y2="310.4614">
			<stop  offset="0" style="stop-color:#FFFFFF;stop-opacity:0"/>
			<stop  offset="1" style="stop-color:#E1E1E1"/>
		</linearGradient>
		<polygon fill="url(#SVGID_7_)" points="373.1,308.1 373.6,310.8 363.2,312.8 		"/>
		<linearGradient id="SVGID_8_" gradientUnits="userSpaceOnUse" x1="393.0653" y1="349.8787" x2="383.3617" y2="345.972">
			<stop  offset="0" style="stop-color:#FFFFFF;stop-opacity:0"/>
			<stop  offset="1" style="stop-color:#E1E1E1"/>
		</linearGradient>
		<polygon fill="url(#SVGID_8_)" points="333.5,319.7 392.9,335 347.3,346.3 		"/>
		<g>
			<polygon fill="#AEEA00" points="325.6,317.3 325.6,352.6 385.4,335.3 			"/>
			<g>
				<polygon fill="#EEFF41" points="315.1,330.5 315.1,332.6 325.6,335.5 325.6,333.6 				"/>
				<polygon fill="#EEFF41" points="325.6,334.4 325.6,336.5 315.1,339.4 315.1,337.5 				"/>
			</g>
			<polygon fill="#C6FF00" points="327.4,335.1 352.9,327.3 352.9,342.9 			"/>
		</g>
	</g>
	<g>
		<linearGradient id="SVGID_9_" gradientUnits="userSpaceOnUse" x1="366.3485" y1="344.2122" x2="331.4407" y2="310.5088">
			<stop  offset="0" style="stop-color:#FFFFFF;stop-opacity:0"/>
			<stop  offset="1" style="stop-color:#E1E1E1"/>
		</linearGradient>
		<polygon fill="url(#SVGID_9_)" points="121.2,284.5 138.8,302 375.1,302 375.1,175.2 356.6,158.5 356.6,284.5 		"/>
		<g>
			<g>
				<g>
					<g>
						<path fill="#37474F" d="M338.1,174.7v93.6H139.6v-93.6H338.1 M356.6,158.5H121.2v126h235.3V158.5L356.6,158.5z"/>
						<rect x="130.2" y="168.4" fill="#80DEEA" width="217.3" height="30.4"/>
						<rect x="130.2" y="195.2" fill="#FF7043" width="217.3" height="14.9"/>
						<path fill="#FFFFFF" d="M176.7,183.3v26.9h6.2V204h5.9v6.6h1.5V204h6.7v6.6h1.5V204h6.7v6.6h1.5V204h6.7v6.6h1.5V204h6.7v6.6
							h1.5V204h5.9v6.1h6.2v-26.9H176.7z M229.5,189.4v5.1h-5.9v-5.1H229.5z M222,189.4v5.1h-6.7v-5.1H222z M213.7,189.4v5.1H207
							v-5.1H213.7z M205.4,189.4v5.1h-6.7v-5.1H205.4z M197.1,189.4v5.1h-6.7v-5.1H197.1z M188.8,189.4v5.1h-5.9v-5.1H188.8z
							 M182.9,202.5v-6.4h5.9v6.4H182.9z M190.4,202.5v-6.4h6.7v6.4H190.4z M198.7,202.5v-6.4h6.7v6.4H198.7z M207,202.5v-6.4h6.7
							v6.4H207z M215.3,202.5v-6.4h6.7v6.4H215.3z M223.6,202.5v-6.4h5.9v6.4H223.6z"/>
						<rect x="133.8" y="172" fill="#E83636" width="23.9" height="5.7"/>
						<g>
							<rect x="130.2" y="210.1" fill="#B2FF59" width="217.3" height="58.2"/>
							<g>
								<rect x="130.2" y="210.1" fill="#00E676" width="24.7" height="58.2"/>
								<rect x="185.5" y="210.1" fill="#00E676" width="24.7" height="58.2"/>
								<rect x="240.8" y="210.1" fill="#00E676" width="24.7" height="58.2"/>
								<rect x="296.1" y="210.1" fill="#00E676" width="24.7" height="58.2"/>
							</g>
						</g>
						<g>
							<defs>
								<rect id="SVGID_10_" x="276.5" y="210.9" width="71.8" height="57.4"/>
							</defs>
							<clipPath id="SVGID_11_">
								<use xlink:href="#SVGID_10_"  overflow="visible"/>
							</clipPath>
							<g clip-path="url(#SVGID_11_)">
								<defs>
									<circle id="SVGID_12_" cx="311.7" cy="246.4" r="26.8"/>
								</defs>
								<clipPath id="SVGID_13_">
									<use xlink:href="#SVGID_12_"  overflow="visible"/>
								</clipPath>
								<circle clip-path="url(#SVGID_13_)" fill="#FAFAFA" cx="311.7" cy="246.4" r="26.8"/>
								<polygon clip-path="url(#SVGID_13_)" fill="#424242" points="317.2,239.3 320.7,250 311.6,256.6 302.5,250 305.9,239.3 
																	"/>
								<polygon clip-path="url(#SVGID_13_)" fill="#424242" points="317,275.3 320.5,268.6 311.4,264.5 302.3,268.6 305.7,275.3 
																	"/>
								<polygon clip-path="url(#SVGID_13_)" fill="#424242" points="285,259.4 292.3,261.2 294.1,251.4 288,243.5 282.4,248.4 
																	"/>
								<polygon clip-path="url(#SVGID_13_)" fill="#424242" points="337.6,259.1 330.4,260.9 328.5,251.1 334.6,243.2 340.3,248.1 
																	"/>
								<polygon clip-path="url(#SVGID_13_)" fill="#424242" points="333,227.9 331.8,235.3 322.1,233.1 317.2,224.3 324,221.1 
																	"/>
								<polygon clip-path="url(#SVGID_13_)" fill="#424242" points="289.5,227.6 290.6,235 300.4,232.8 305.2,224 298.5,220.8 
																	"/>
							</g>
						</g>
					</g>
					<g>
						<rect x="328.7" y="274.7" fill="#263238" width="11.4" height="3.7"/>
						<circle fill="#76FF03" cx="345.8" cy="276.7" r="1.8"/>
					</g>
				</g>
				<polygon opacity="0.2" fill="#FEFFFD" points="170,268.3 130.2,268.3 130.2,168.4 309.9,168.4 				"/>
				<rect x="199.1" y="271" fill="#263238" width="79.5" height="10.8"/>
				<polygon fill="#B0BEC5" points="347.6,168.4 347.6,169.9 131.8,169.9 131.8,268.3 130.2,268.3 130.2,168.4 				"/>
				<polygon opacity="0.3" fill="#FEFFFD" points="131.8,268.3 131.8,266.8 346,266.9 346,169.9 347.6,169.9 347.6,268.3 				"/>
				<g>
					<g>
						<g>
							<path fill="#4FC3F7" d="M321.7,185.8c-3.5,0-6.4,1.4-6.4,3.2v3.2h12.7V189C328.1,187.2,325.2,185.8,321.7,185.8z"/>
							<linearGradient id="SVGID_14_" gradientUnits="userSpaceOnUse" x1="322.0331" y1="188.9621" x2="313.52" y2="188.9621">
								<stop  offset="0" style="stop-color:#FFFFFF;stop-opacity:0"/>
								<stop  offset="1" style="stop-color:#E1E1E1"/>
							</linearGradient>
							<path fill="url(#SVGID_14_)" d="M321.7,185.8c-3.5,0-6.4,1.4-6.4,3.2v3.2h12.7V189C328.1,187.2,325.2,185.8,321.7,185.8z"/>
							<polygon fill="#8D6E63" points="322.7,185.8 322.7,185.3 320.7,185.3 320.7,185.8 320.1,185.9 321.7,187.1 323.3,185.9 
															"/>
							<polygon fill="#D7CCC8" points="322.7,185.8 322.7,185.3 320.7,185.3 320.7,185.8 320.1,185.9 321.7,187.1 323.3,185.9 
															"/>
							<g>
								<circle fill="#8D6E63" cx="321.7" cy="182.7" r="3.1"/>
								<g>
									<defs>
										<circle id="SVGID_15_" cx="321.7" cy="182.7" r="3.1"/>
									</defs>
									<clipPath id="SVGID_16_">
										<use xlink:href="#SVGID_15_"  overflow="visible"/>
									</clipPath>
									<g clip-path="url(#SVGID_16_)">
										<path fill="#262626" d="M320,180.1c0,0,0.5,1.2,4.5,1.2c4,0,0.9-2.4,0.9-2.4l-5.7-0.4L320,180.1z"/>
										<path fill="#262626" d="M320.9,180.5c0,0-1.7,0.7-2,0.8c-0.4,0-1.1-0.9-1.1-0.9l1-2L320.9,180.5z"/>
									</g>
								</g>
							</g>
						</g>
						<g>
							<path fill="#FF8A65" d="M337,185.8c-3.5,0-6.4,1.4-6.4,3.2v3.2h12.7V189C343.4,187.2,340.5,185.8,337,185.8z"/>
							<linearGradient id="SVGID_17_" gradientUnits="userSpaceOnUse" x1="337.3655" y1="188.9621" x2="328.8524" y2="188.9621">
								<stop  offset="0" style="stop-color:#FFFFFF;stop-opacity:0"/>
								<stop  offset="1" style="stop-color:#E1E1E1"/>
							</linearGradient>
							<path fill="url(#SVGID_17_)" d="M337,185.8c-3.5,0-6.4,1.4-6.4,3.2v3.2h12.7V189C343.4,187.2,340.5,185.8,337,185.8z"/>
							<polygon fill="#FEF6E0" points="338.1,185.8 338,185.3 336.1,185.3 336,185.8 335.4,185.9 337,187.1 338.6,185.9 							"/>
							<polygon fill="#FEF6E0" points="338.1,185.8 338,185.3 336.1,185.3 336,185.8 335.4,185.9 337,187.1 338.6,185.9 							"/>
							<circle fill="#FEF6E0" cx="337" cy="182.7" r="3.1"/>
							<g>
								<defs>
									<circle id="SVGID_18_" cx="337" cy="182.7" r="3.1"/>
								</defs>
								<clipPath id="SVGID_19_">
									<use xlink:href="#SVGID_18_"  overflow="visible"/>
								</clipPath>
								<g clip-path="url(#SVGID_19_)">
									<path fill="#FBC02D" d="M335.3,180.1c0,0,0.5,1.2,4.5,1.2c4,0,0.9-2.4,0.9-2.4l-5.7-0.4L335.3,180.1z"/>
									<path fill="#FBC02D" d="M336.3,180.5c0,0-1.7,0.7-2,0.8c-0.4,0-1.1-0.9-1.1-0.9l1-2L336.3,180.5z"/>
								</g>
							</g>
						</g>
						<g>
							<path fill="#FBC02D" d="M306.4,185.8c-3.5,0-6.4,1.4-6.4,3.2v3.2h12.7V189C312.7,187.2,309.9,185.8,306.4,185.8z"/>
							<linearGradient id="SVGID_20_" gradientUnits="userSpaceOnUse" x1="306.6892" y1="188.9621" x2="298.1762" y2="188.9621">
								<stop  offset="0" style="stop-color:#FFFFFF;stop-opacity:0"/>
								<stop  offset="1" style="stop-color:#E1E1E1"/>
							</linearGradient>
							<path fill="url(#SVGID_20_)" d="M306.4,185.8c-3.5,0-6.4,1.4-6.4,3.2v3.2h12.7V189C312.7,187.2,309.9,185.8,306.4,185.8z"/>
							<polygon fill="#D7CCC8" points="307.4,185.8 307.3,185.3 305.4,185.3 305.3,185.8 304.8,185.9 306.4,187.1 307.9,185.9 
															"/>
							<polygon fill="#EFEBE9" points="307.4,185.8 307.3,185.3 305.4,185.3 305.3,185.8 304.8,185.9 306.4,187.1 307.9,185.9 
															"/>
							<circle fill="#D7CCC8" cx="306.4" cy="182.7" r="3.1"/>
							<g>
								<defs>
									<circle id="SVGID_21_" cx="306.4" cy="182.7" r="3.1"/>
								</defs>
								<clipPath id="SVGID_22_">
									<use xlink:href="#SVGID_21_"  overflow="visible"/>
								</clipPath>
								<path clip-path="url(#SVGID_22_)" fill="#6D4C41" d="M304.7,180.1c0,0,0.5,1.2,4.5,1.2c4,0,0.9-2.4,0.9-2.4l-5.7-0.4
									L304.7,180.1z"/>
								<path clip-path="url(#SVGID_22_)" fill="#6D4C41" d="M305.6,180.5c0,0-1.7,0.7-2,0.8c-0.4,0-1.1-0.9-1.1-0.9l1-2
									L305.6,180.5z"/>
							</g>
						</g>
						<g>
							<path fill="#0F9D58" d="M291,185.8c-3.5,0-6.4,1.4-6.4,3.2v3.2h12.7V189C297.4,187.2,294.5,185.8,291,185.8z"/>
							<linearGradient id="SVGID_23_" gradientUnits="userSpaceOnUse" x1="291.3568" y1="188.9621" x2="282.8438" y2="188.9621">
								<stop  offset="0" style="stop-color:#FFFFFF;stop-opacity:0"/>
								<stop  offset="1" style="stop-color:#E1E1E1"/>
							</linearGradient>
							<path fill="url(#SVGID_23_)" d="M291,185.8c-3.5,0-6.4,1.4-6.4,3.2v3.2h12.7V189C297.4,187.2,294.5,185.8,291,185.8z"/>
							<polygon fill="#8D6E63" points="292.1,185.8 292,185.3 290.1,185.3 290,185.8 289.4,185.9 291,187.1 292.6,185.9 							"/>
							<polygon fill="#D7CCC8" points="292.1,185.8 292,185.3 290.1,185.3 290,185.8 289.4,185.9 291,187.1 292.6,185.9 							"/>
							<g>
								<circle fill="#8D6E63" cx="291" cy="182.7" r="3.1"/>
								<g>
									<defs>
										<circle id="SVGID_24_" cx="291" cy="182.7" r="3.1"/>
									</defs>
									<clipPath id="SVGID_25_">
										<use xlink:href="#SVGID_24_"  overflow="visible"/>
									</clipPath>
									<g clip-path="url(#SVGID_25_)">
										<path fill="#262626" d="M289.3,180.1c0,0,0.5,1.2,4.5,1.2c4,0,0.9-2.4,0.9-2.4l-5.7-0.4L289.3,180.1z"/>
										<path fill="#262626" d="M290.2,180.5c0,0-1.7,0.7-2,0.8c-0.4,0-1.1-0.9-1.1-0.9l1-2L290.2,180.5z"/>
									</g>
								</g>
							</g>
						</g>
						<g>
							<path fill="#FBC02D" d="M245,185.8c-3.5,0-6.4,1.4-6.4,3.2v3.2h12.7V189C251.4,187.2,248.5,185.8,245,185.8z"/>
							<linearGradient id="SVGID_26_" gradientUnits="userSpaceOnUse" x1="245.3489" y1="188.9621" x2="236.8358" y2="188.9621">
								<stop  offset="0" style="stop-color:#FFFFFF;stop-opacity:0"/>
								<stop  offset="1" style="stop-color:#E1E1E1"/>
							</linearGradient>
							<path fill="url(#SVGID_26_)" d="M245,185.8c-3.5,0-6.4,1.4-6.4,3.2v3.2h12.7V189C251.4,187.2,248.5,185.8,245,185.8z"/>
							<polygon fill="#8D6E63" points="246,185.8 246,185.3 244,185.3 244,185.8 243.4,185.9 245,187.1 246.6,185.9 							"/>
							<polygon fill="#D7CCC8" points="246,185.8 246,185.3 244,185.3 244,185.8 243.4,185.9 245,187.1 246.6,185.9 							"/>
							<g>
								<circle fill="#8D6E63" cx="245" cy="182.7" r="3.1"/>
								<g>
									<defs>
										<circle id="SVGID_27_" cx="245" cy="182.7" r="3.1"/>
									</defs>
									<clipPath id="SVGID_28_">
										<use xlink:href="#SVGID_27_"  overflow="visible"/>
									</clipPath>
									<g clip-path="url(#SVGID_28_)">
										<path fill="#262626" d="M243.3,180.1c0,0,0.5,1.2,4.5,1.2c4,0,0.9-2.4,0.9-2.4l-5.7-0.4L243.3,180.1z"/>
										<path fill="#262626" d="M244.2,180.5c0,0-1.7,0.7-2,0.8c-0.4,0-1.1-0.9-1.1-0.9l1-2L244.2,180.5z"/>
									</g>
								</g>
							</g>
						</g>
						<g>
							<path fill="#4FC3F7" d="M260.3,185.8c-3.5,0-6.4,1.4-6.4,3.2v3.2h12.7V189C266.7,187.2,263.9,185.8,260.3,185.8z"/>
							<linearGradient id="SVGID_29_" gradientUnits="userSpaceOnUse" x1="260.6814" y1="188.9621" x2="252.1683" y2="188.9621">
								<stop  offset="0" style="stop-color:#FFFFFF;stop-opacity:0"/>
								<stop  offset="1" style="stop-color:#E1E1E1"/>
							</linearGradient>
							<path fill="url(#SVGID_29_)" d="M260.3,185.8c-3.5,0-6.4,1.4-6.4,3.2v3.2h12.7V189C266.7,187.2,263.9,185.8,260.3,185.8z"/>
							<polygon fill="#FEF6E0" points="261.4,185.8 261.3,185.3 259.4,185.3 259.3,185.8 258.7,185.9 260.3,187.1 261.9,185.9 
															"/>
							<polygon fill="#FEF6E0" points="261.4,185.8 261.3,185.3 259.4,185.3 259.3,185.8 258.7,185.9 260.3,187.1 261.9,185.9 
															"/>
							<circle fill="#FEF6E0" cx="260.4" cy="182.7" r="3.1"/>
							<g>
								<defs>
									<circle id="SVGID_30_" cx="260.4" cy="182.7" r="3.1"/>
								</defs>
								<clipPath id="SVGID_31_">
									<use xlink:href="#SVGID_30_"  overflow="visible"/>
								</clipPath>
								<g clip-path="url(#SVGID_31_)">
									<path fill="#FBC02D" d="M258.7,180.1c0,0,0.5,1.2,4.5,1.2c4,0,0.9-2.4,0.9-2.4l-5.7-0.4L258.7,180.1z"/>
									<path fill="#FBC02D" d="M259.6,180.5c0,0-1.7,0.7-2,0.8c-0.4,0-1.1-0.9-1.1-0.9l1-2L259.6,180.5z"/>
								</g>
							</g>
						</g>
						<g>
							<path fill="#FF8A65" d="M275.7,185.8c-3.5,0-6.4,1.4-6.4,3.2v3.2H282V189C282,187.2,279.2,185.8,275.7,185.8z"/>
							<linearGradient id="SVGID_32_" gradientUnits="userSpaceOnUse" x1="276.0243" y1="188.9621" x2="267.5113" y2="188.9621">
								<stop  offset="0" style="stop-color:#FFFFFF;stop-opacity:0"/>
								<stop  offset="1" style="stop-color:#E1E1E1"/>
							</linearGradient>
							<path fill="url(#SVGID_32_)" d="M275.7,185.8c-3.5,0-6.4,1.4-6.4,3.2v3.2h12.7V189C282.1,187.2,279.2,185.8,275.7,185.8z"/>
							<polygon fill="#D7CCC8" points="276.7,185.8 276.6,185.3 274.7,185.3 274.6,185.8 274.1,185.9 275.7,187.1 277.3,185.9 
															"/>
							<polygon fill="#EFEBE9" points="276.7,185.8 276.6,185.3 274.7,185.3 274.6,185.8 274.1,185.9 275.7,187.1 277.3,185.9 
															"/>
							<circle fill="#D7CCC8" cx="275.7" cy="182.7" r="3.1"/>
							<g>
								<defs>
									<circle id="SVGID_33_" cx="275.7" cy="182.7" r="3.1"/>
								</defs>
								<clipPath id="SVGID_34_">
									<use xlink:href="#SVGID_33_"  overflow="visible"/>
								</clipPath>
								<path clip-path="url(#SVGID_34_)" fill="#6D4C41" d="M274,180.1c0,0,0.5,1.2,4.5,1.2c4,0,0.9-2.4,0.9-2.4l-5.7-0.4
									L274,180.1z"/>
								<path clip-path="url(#SVGID_34_)" fill="#6D4C41" d="M274.9,180.5c0,0-1.7,0.7-2,0.8c-0.4,0-1.1-0.9-1.1-0.9l1-2
									L274.9,180.5z"/>
							</g>
						</g>
					</g>
					<g>
						<g>
							<path fill="#FF8A65" d="M151.5,185.8c-3.5,0-6.4,1.4-6.4,3.2v3.2h12.7V189C157.9,187.2,155.1,185.8,151.5,185.8z"/>
							<linearGradient id="SVGID_35_" gradientUnits="userSpaceOnUse" x1="151.8891" y1="188.9708" x2="143.3761" y2="188.9708">
								<stop  offset="0" style="stop-color:#FFFFFF;stop-opacity:0"/>
								<stop  offset="1" style="stop-color:#E1E1E1"/>
							</linearGradient>
							<path fill="url(#SVGID_35_)" d="M151.5,185.8c-3.5,0-6.4,1.4-6.4,3.2v3.2h12.7V189C157.9,187.2,155.1,185.8,151.5,185.8z"/>
							<polygon fill="#8D6E63" points="152.6,185.8 152.5,185.3 150.6,185.3 150.5,185.8 149.9,185.9 151.5,187.1 153.1,185.9 
															"/>
							<polygon fill="#D7CCC8" points="152.6,185.8 152.5,185.3 150.6,185.3 150.5,185.8 149.9,185.9 151.5,187.1 153.1,185.9 
															"/>
							<g>
								<circle fill="#8D6E63" cx="151.5" cy="182.7" r="3.1"/>
								<g>
									<defs>
										<circle id="SVGID_36_" cx="151.5" cy="182.7" r="3.1"/>
									</defs>
									<clipPath id="SVGID_37_">
										<use xlink:href="#SVGID_36_"  overflow="visible"/>
									</clipPath>
									<g clip-path="url(#SVGID_37_)">
										<path fill="#262626" d="M149.8,180.1c0,0,0.5,1.2,4.5,1.2c4,0,0.9-2.4,0.9-2.4l-5.7-0.4L149.8,180.1z"/>
										<path fill="#262626" d="M150.8,180.5c0,0-1.7,0.7-2,0.8c-0.4,0-1.1-0.9-1.1-0.9l1-2L150.8,180.5z"/>
									</g>
								</g>
							</g>
						</g>
						<g>
							<path fill="#0F9D58" d="M166.9,185.8c-3.5,0-6.4,1.4-6.4,3.2v3.2h12.7V189C173.2,187.2,170.4,185.8,166.9,185.8z"/>
							<linearGradient id="SVGID_38_" gradientUnits="userSpaceOnUse" x1="167.2286" y1="188.9708" x2="158.7156" y2="188.9708">
								<stop  offset="0" style="stop-color:#FFFFFF;stop-opacity:0"/>
								<stop  offset="1" style="stop-color:#E1E1E1"/>
							</linearGradient>
							<path fill="url(#SVGID_38_)" d="M166.9,185.8c-3.5,0-6.4,1.4-6.4,3.2v3.2h12.7V189C173.3,187.2,170.4,185.8,166.9,185.8z"/>
							<polygon fill="#D7CCC8" points="167.9,185.8 167.9,185.3 165.9,185.3 165.9,185.8 165.3,185.9 166.9,187.1 168.5,185.9 
															"/>
							<polygon fill="#EFEBE9" points="167.9,185.8 167.9,185.3 165.9,185.3 165.9,185.8 165.3,185.9 166.9,187.1 168.5,185.9 
															"/>
							<circle fill="#D7CCC8" cx="166.9" cy="182.7" r="3.1"/>
							<g>
								<defs>
									<circle id="SVGID_39_" cx="166.9" cy="182.7" r="3.1"/>
								</defs>
								<clipPath id="SVGID_40_">
									<use xlink:href="#SVGID_39_"  overflow="visible"/>
								</clipPath>
								<path clip-path="url(#SVGID_40_)" fill="#6D4C41" d="M165.2,180.1c0,0,0.5,1.2,4.5,1.2c4,0,0.9-2.4,0.9-2.4l-5.7-0.4
									L165.2,180.1z"/>
								<path clip-path="url(#SVGID_40_)" fill="#6D4C41" d="M166.1,180.5c0,0-1.7,0.7-2,0.8c-0.4,0-1.1-0.9-1.1-0.9l1-2
									L166.1,180.5z"/>
							</g>
						</g>
					</g>
				</g>
			</g>
			<polygon fill="#C2C2C2" points="356.6,158.5 356.6,284.5 121.2,284.5 130.2,268.3 347.6,268.3 347.6,168.4 			"/>
		</g>
	</g>
</g>
</svg>
