<?xml version="1.0" encoding="utf-8"?>
<!-- Generator: Adobe Illustrator 17.1.0, SVG Export Plug-In . SVG Version: 6.00 Build 0)  -->
<!DOCTYPE svg PUBLIC "-//W3C//DTD SVG 1.1//EN" "http://www.w3.org/Graphics/SVG/1.1/DTD/svg11.dtd">
<svg version="1.1" id="Layer_1" xmlns="http://www.w3.org/2000/svg" xmlns:xlink="http://www.w3.org/1999/xlink" x="0px" y="0px"
	 viewBox="0 0 512 640" enable-background="new 0 0 512 640" xml:space="preserve">
<polygon opacity="0.1" fill="#424242" points="427,393 129,393 129,402 182,402 244,402 427,402 "/>
<rect x="325" y="411" opacity="0.1" fill="#424242" width="113" height="9"/>
<ellipse opacity="0.1" fill="#424242" cx="210.9" cy="422.2" rx="20" ry="5.1"/>
<ellipse opacity="0.1" fill="#424242" cx="121.9" cy="421.2" rx="54.5" ry="5.1"/>
<rect x="128" y="208" fill="#424242" width="297.2" height="185.3"/>
<g>
	<path fill="#00E5FF" d="M362.4,360.8c0,4.8-3.9,8.7-8.7,8.7h-193c-4.8,0-8.7-3.9-8.7-8.7V241.1c0-4.8,3.9-8.7,8.7-8.7h193
		c4.8,0,8.7,3.9,8.7,8.7V360.8z"/>
</g>
<path fill="#40C4FF" d="M355.8,232H159c-3.5,0-7,3-7,6.5v1.5h197.2c3.5,0,6.8,2,6.8,5.5V369h-0.2c3.5,0,7.2-2.6,7.2-6.1V238.5
	C363,235,359.3,232,355.8,232z"/>
<circle fill="#F4B400" cx="393.8" cy="242.8" r="12"/>
<g>
	<path fill="#646464" d="M362.4,208c0-12-9.7-21.7-21.7-21.7c-12,0-21.7,9.7-21.7,21.7H362.4z"/>
</g>
<rect x="381.8" y="278.9" fill="#F4B400" width="24.1" height="42.2"/>
<g>
	<path fill="#646464" d="M340.7,199.1c-0.7,0-1.5-0.4-1.8-1.2l-20.5-49.6c-0.4-1,0.1-2.1,1-2.5c1-0.4,2.1,0.1,2.5,1l20.5,49.6
		c0.4,1-0.1,2.1-1,2.5C341.2,199,341,199.1,340.7,199.1z"/>
</g>
<g>
	<path fill="#646464" d="M340.7,199.1c-0.2,0-0.5,0-0.7-0.1c-1-0.4-1.4-1.5-1-2.5l20.5-49.6c0.4-1,1.5-1.4,2.5-1
		c1,0.4,1.4,1.5,1,2.5l-20.5,49.6C342.2,198.6,341.5,199.1,340.7,199.1z"/>
</g>
<g>
	<g>
		<path fill="#F5F5F5" d="M329.9,380.5c-2.4,0-4.3,1.9-4.3,4.3v24.7c0,2.4,1.9,4.3,4.3,4.3h40.2c2.4,0,5.7-1.4,7.4-3.1l1.3-1.3
			c1.7-1.7,4.4-1.7,6.1,0l1.3,1.3c1.7,1.7,5,3.1,7.4,3.1h40.2c2.4,0,4.3-1.9,4.3-4.3v-24.7c0-2.4-1.9-4.3-4.3-4.3H329.9z"/>
	</g>
	<g>
		<path fill="#4DD0E1" d="M370.9,398.2c0,4.7-3.9,8.6-8.6,8.6h-20.3c-4.7,0-8.6-3.9-8.6-8.6v-2c0-4.7,3.9-8.6,8.6-8.6h20.3
			c4.7,0,8.6,3.9,8.6,8.6V398.2z"/>
	</g>
	<g>
		<path fill="#DB4437" d="M392.7,398.2c0,4.7,3.9,8.6,8.6,8.6h20.3c4.7,0,8.6-3.9,8.6-8.6v-2c0-4.7-3.9-8.6-8.6-8.6h-20.3
			c-4.7,0-8.6,3.9-8.6,8.6V398.2z"/>
	</g>
</g>
<g>
	<g>
		<g>
			<rect x="212.7" y="300" fill="#646464" width="13" height="2.3"/>
		</g>
		<g>
			<rect x="254.9" y="257.7" fill="#646464" width="2.3" height="13"/>
		</g>
		<g>
			<rect x="254.9" y="257.7" fill="#646464" width="2.3" height="13"/>
		</g>
		<g>
			<rect x="286.5" y="300" fill="#646464" width="13" height="2.3"/>
		</g>
		<g>
			<rect x="254.9" y="331.6" fill="#646464" width="2.3" height="13"/>
		</g>
		<g>
			<rect x="212.7" y="300" fill="#646464" width="13" height="2.3"/>
		</g>
		<g>
			<rect x="286.5" y="300" fill="#646464" width="13" height="2.3"/>
		</g>
		<g>
			<rect x="254.9" y="331.6" fill="#646464" width="2.3" height="13"/>
		</g>
	</g>
	<g>
		<path fill="#646464" d="M256.1,263.4c-20.9,0-37.8,16.9-37.8,37.8h37.8V263.4z"/>
	</g>
	<g>
		<path fill="#646464" d="M218.3,301.1c0,20.9,16.9,37.8,37.8,37.8v-37.8H218.3z"/>
	</g>
	<g>
		<path fill="#646464" d="M256.1,301.1v37.8c20.9,0,37.8-16.9,37.8-37.8H256.1z"/>
	</g>
	<g>
		<path fill="#F57C00" d="M293.8,301.1c0-20.9-16.9-37.8-37.8-37.8v37.8H293.8z"/>
	</g>
	<g>
		<path fill="#00E5FF" d="M256.1,273.3c-15.4,0-27.9,12.5-27.9,27.9h27.9V273.3z"/>
	</g>
	<g>
		<path fill="#00E5FF" d="M228.2,301.1c0,15.4,12.5,27.9,27.9,27.9v-27.9H228.2z"/>
	</g>
	<g>
		<path fill="#00E5FF" d="M256.1,301.1V329c15.4,0,27.9-12.5,27.9-27.9H256.1z"/>
	</g>
	<g>
		<path fill="#F6BF26" d="M284,301.1c0-15.4-12.5-27.9-27.9-27.9v27.9H284z"/>
	</g>
	<g>
		<g>
			<path fill="#F57C00" d="M259.1,291.1c0-3.6-1.2-4.5-3.2-4.5c-2,0-3.2,1.1-3.2,3.9v2.6h-5.9v-2.2c0-6.4,3.2-10,9.3-10
				s9.3,3.6,9.3,10v1c0,4.3-1.4,6.9-4.4,8.2c3.1,1.4,4.4,4.3,4.4,8.3v3.1c0,6.4-3.2,10-9.3,10s-9.3-3.6-9.3-10v-3.3h5.9v3.7
				c0,2.8,1.2,3.9,3.2,3.9c2,0,3.2-1,3.2-4.5v-3.1c0-3.7-1.2-5-4.1-5H253v-5.7h2.4c2.3,0,3.7-1,3.7-4.2V291.1z"/>
		</g>
	</g>
</g>
<g>
	<circle fill="#F6BF26" cx="119.8" cy="326.3" r="46.4"/>
	<circle fill="#F6BF26" cx="83.9" cy="305.9" r="14"/>
	<circle fill="#F6BF26" cx="158.5" cy="310.9" r="14"/>
	<g>
		<defs>
			<polygon id="SVGID_1_" points="176.7,304.2 63,304.2 75.9,420.7 163.8,420.7 			"/>
		</defs>
		<use xlink:href="#SVGID_1_"  overflow="visible" fill="#FFFFFF"/>
		<clipPath id="SVGID_2_">
			<use xlink:href="#SVGID_1_"  overflow="visible"/>
		</clipPath>
	</g>
	<rect x="112.3" y="304.2" fill="#DB4437" width="15.1" height="116.6"/>
	<polygon fill="#DB4437" points="150.1,420.7 135,420.7 147.6,304.2 162.7,304.2 	"/>
	<polygon fill="#DB4437" points="89.5,420.7 104.6,420.7 92,304.2 76.9,304.2 	"/>
	<path fill="#FFFFFF" d="M182.2,303.1H57.3c-2.4,0-4.4,2-4.4,4.4c0,2.4,2,4.4,4.4,4.4h124.9c2.4,0,4.4-2,4.4-4.4
		C186.6,305,184.6,303.1,182.2,303.1z"/>
	<path fill="#E6E6E6" d="M52.9,308.6c0,2.4,2,4.4,4.4,4.4h124.9c2.4,0,4.4-2,4.4-4.4"/>
	<polygon fill="#E6E6E6" points="175.7,313 69.4,362.4 64,313 	"/>
	<g>
		<path fill="#FFFFFF" d="M215.5,343.3l-6.3-0.7l1.3-11.6c0.6-5.7,5.3-11.7,10.7-13.6l15.1-5.5l2.1,6l-15.1,5.5
			c-3.1,1.1-6.2,5-6.6,8.3L215.5,343.3z"/>
		<polygon fill="#FFFFFF" points="185.7,341.7 236.6,341.7 227.9,420.7 194.4,420.7 		"/>
		<polygon fill="#00E5FF" points="230.4,398 191.9,398 188.5,366.7 233.9,366.7 		"/>
		<polygon fill="#E6E6E6" points="236,347 189.1,372.8 185.7,347 		"/>
	</g>
	<ellipse fill="#F6BF26" cx="63.3" cy="423.8" rx="5.5" ry="5.5"/>
	<ellipse fill="#F6BF26" cx="60.1" cy="427.5" rx="3.9" ry="3.9"/>
	<ellipse fill="#F6BF26" cx="66.9" cy="427.5" rx="3.9" ry="3.9"/>
	
		<ellipse transform="matrix(-0.5547 0.8321 -0.8321 -0.5547 578.0314 575.7305)" fill="#F6BF26" cx="135" cy="442.5" rx="5.5" ry="5.5"/>
	
		<ellipse transform="matrix(-0.5549 0.8319 -0.8319 -0.5549 572.0603 569.5009)" fill="#F6BF26" cx="133.7" cy="437.8" rx="3.9" ry="3.9"/>
	
		<ellipse transform="matrix(-0.5547 0.8321 -0.8321 -0.5547 570.9257 581.4107)" fill="#F6BF26" cx="129.9" cy="443.5" rx="3.9" ry="3.9"/>
	
		<ellipse transform="matrix(0.9726 -0.2324 0.2324 0.9726 -94.1221 50.3587)" fill="#F6BF26" cx="166.7" cy="424.7" rx="3.9" ry="3.9"/>
	
		<ellipse transform="matrix(0.9726 -0.2324 0.2324 0.9726 -93.1613 51.682)" fill="#F6BF26" cx="172.8" cy="421.2" rx="3.9" ry="3.9"/>
	
		<ellipse transform="matrix(0.9726 -0.2323 0.2323 0.9726 -93.0255 50.7579)" fill="#F6BF26" cx="169" cy="420.3" rx="5.5" ry="5.5"/>
</g>
</svg>
